<svg width="60" height="60" viewBox="0 0 60 60" fill="none" xmlns="http://www.w3.org/2000/svg">
<g id="jez">
<circle id="Ellipse 95" cx="30" cy="30" r="30" fill="#A9CF54"/>
<g id="Hadegog">
<path id="Vector" d="M51.1202 33.5772L45.6919 33.7914L50.1985 36.8358C50.4625 37.0141 50.3024 37.4266 49.9872 37.3801L44.611 36.587L48.4787 40.412C48.7052 40.636 48.4716 41.0119 48.1705 40.908L43.024 39.1325L46.1307 43.608C46.3123 43.8696 46.0142 44.1963 45.7371 44.0392L41.0058 41.3584L43.2364 46.3129C43.3672 46.6032 43.0145 46.8699 42.7707 46.6651L38.6095 43.1688H21.5054L17.3398 46.6652C17.0959 46.8699 16.7434 46.603 16.8743 46.3127L19.1092 41.3584L14.3779 44.0392C14.1008 44.1962 13.8027 43.8695 13.9843 43.608L17.091 39.1325L11.9443 40.9037C11.6431 41.0074 11.4098 40.6314 11.6365 40.4075L15.5041 36.587L10.1279 37.3801C9.81271 37.4266 9.65258 37.0141 9.91657 36.8358L14.4232 33.7914L8.99487 33.5772C8.67632 33.5646 8.59535 33.1291 8.8882 33.003L13.88 30.852L8.56885 29.6369C8.25863 29.5659 8.25863 29.124 8.56885 29.0531L13.88 27.838L8.8882 25.687C8.59544 25.5608 8.67632 25.1253 8.99487 25.1128L14.4232 24.8985L9.91657 21.8542C9.65258 21.6758 9.81271 21.2633 10.1279 21.3098L15.5041 22.1029L11.6364 18.278C11.4099 18.054 11.6434 17.6781 11.9446 17.7819L17.0911 19.5575L13.9843 15.082C13.8028 14.8203 14.1009 14.4937 14.378 14.6507L19.1093 17.3316L16.8786 12.377C16.7479 12.0867 17.1006 11.82 17.3444 12.0248L21.5056 15.5211L20.2197 10.2444C20.1442 9.93481 20.5403 9.73723 20.7422 9.98367L24.1895 14.1899L23.9022 8.76242C23.8854 8.44424 24.3112 8.32337 24.464 8.60292L27.0704 13.3698L27.7866 7.97877C27.8286 7.66304 28.2691 7.62242 28.3681 7.92513L30.0575 13.0928L31.7472 7.92513C31.8462 7.62242 32.2868 7.66304 32.3286 7.97877L33.0449 13.3698L35.6612 8.60048C35.8143 8.3212 36.2398 8.44252 36.2227 8.76052L35.9311 14.1898L39.3768 9.98539C39.5789 9.73886 39.975 9.93671 39.8993 10.2463L38.6096 15.5211L42.7752 12.0247C43.0191 11.82 43.3716 12.087 43.2407 12.3772L41.0058 17.3316L45.7371 14.6507C46.0142 14.4937 46.3123 14.8204 46.1307 15.082L43.024 19.5575L48.1707 17.7862C48.4719 17.6825 48.7052 18.0585 48.4785 18.2824L44.6109 22.1029L49.9871 21.3098C50.3023 21.2633 50.4624 21.6758 50.1984 21.8542L45.6918 24.8985L51.1201 25.1128C51.4387 25.1253 51.5196 25.5609 51.2268 25.687L46.235 27.838L51.5462 29.0531C51.8564 29.1241 51.8564 29.5659 51.5462 29.6369L46.235 30.852L51.2268 33.003C51.5197 33.1291 51.4388 33.5646 51.1202 33.5772Z" fill="#C17D61"/>
<path id="Vector_2" opacity="0.4" d="M24.1955 17.2605C24.2891 17.2605 24.38 17.2418 24.4661 17.2052C25.1937 16.8958 25.9801 16.6163 26.8433 16.3739C27.1525 16.2871 27.3711 16.0099 27.3711 15.6886V15.6839C27.3711 15.2096 26.9147 14.8716 26.4581 15C25.5517 15.2547 24.7066 15.5515 23.919 15.8916C23.2059 16.1997 23.4186 17.2605 24.1955 17.2605Z" fill="white"/>
<path id="Vector_3" d="M47.6923 33.8818C47.6259 37.4862 44.5347 40.3056 40.9303 40.3056C38.3001 40.3056 36.0101 42.102 35.3838 44.6565L34.6876 47.4962C34.1491 49.6501 32.2371 51.1247 30.0568 51.1247C27.8591 51.1247 25.9513 49.6274 25.4261 47.4962L24.7264 44.6521C24.0984 42.0997 21.8094 40.3056 19.1809 40.3056H19.1712C15.7117 40.3056 12.6929 37.7095 12.4395 34.256C12.2945 32.2576 13.0432 30.4222 14.3352 29.1302C15.5246 27.9468 17.1548 27.2163 18.966 27.2163H25.3295C26.2225 27.2163 27.0717 27.5807 27.7055 28.2096C28.3565 28.8555 29.2097 29.1844 30.0629 29.1844C30.9141 29.1844 31.7715 28.8584 32.4235 28.2064L32.4296 28.2003C33.0574 27.5784 33.9027 27.2283 34.7842 27.2283L41.1477 27.2162C44.8063 27.2164 47.7587 30.211 47.6923 33.8818Z" fill="#E5E3E5"/>
<path id="Vector_4" opacity="0.08" d="M47.6909 33.8813C47.6244 37.4878 44.5358 40.3056 40.9293 40.3056C39.6179 40.3056 38.3872 40.7522 37.4083 41.522C36.4248 42.2918 35.6977 43.3799 35.3842 44.6581L34.6857 47.4949C34.1487 49.6521 32.2385 51.1252 30.0575 51.1252C29.7154 51.1252 29.378 51.0872 29.0549 51.0159C30.7988 50.6452 32.2291 49.3148 32.6852 47.4949L33.3789 44.6581C33.6926 43.38 34.4195 42.2918 35.4032 41.522C36.382 40.7522 37.6127 40.3056 38.9241 40.3056C42.5307 40.3056 45.624 37.4878 45.6905 33.8813C45.757 30.2605 42.8823 27.2955 39.29 27.2195L41.1479 27.2147C44.8066 27.2147 47.7574 30.2131 47.6909 33.8813Z" fill="black"/>
<path id="Vector_5" d="M23.1073 34.158C23.1073 35.3856 22.113 36.38 20.8852 36.38C19.6574 36.38 18.6631 35.3856 18.6631 34.158C18.6631 32.9336 19.6574 31.9392 20.8852 31.9392C22.113 31.9392 23.1073 32.9336 23.1073 34.158ZM41.4518 34.158C41.4518 35.3856 40.4574 36.38 39.2297 36.38C38.0019 36.38 37.0076 35.3856 37.0076 34.158C37.0076 32.9336 38.0019 31.9392 39.2297 31.9392C40.4574 31.9392 41.4518 32.9336 41.4518 34.158ZM33.7983 48.3452C33.7983 50.0181 31.8803 52.3841 30.0574 52.3841C28.2346 52.3841 26.3166 50.0184 26.3166 48.3452C26.3166 46.6723 28.2346 46.5433 30.0574 46.5433C31.8803 46.5433 33.7983 46.6723 33.7983 48.3452Z" fill="#6D6D6D"/>
</g>
</g>
</svg>
