<svg width="60" height="60" viewBox="0 0 60 60" fill="none" xmlns="http://www.w3.org/2000/svg">
<g id="Avatar">
<g id="Layer 2">
<g id="&#226;&#128;&#148;&#195;&#142;&#195;&#147;&#195;&#136; 1">
<path id="Vector" d="M30 60C46.5685 60 60 46.5685 60 30C60 13.4315 46.5685 0 30 0C13.4315 0 0 13.4315 0 30C0 46.5685 13.4315 60 30 60Z" fill="#FFC200"/>
<path id="Vector_2" fill-rule="evenodd" clip-rule="evenodd" d="M51.0553 51.367C45.3938 56.9474 37.7486 60.0522 29.7993 59.9992C21.85 59.9462 14.2468 56.7398 8.66019 51.0845C9.37466 49.1086 10.7624 47.4477 12.5796 46.3932C13.8044 45.4876 15.1325 44.7309 16.5359 44.1388C14.4019 36.8058 20.2029 33.201 22.4223 32.1631C22.4223 35.5485 25.5922 33.3019 29.5262 33.3447C32.765 33.3806 39.1699 36.6408 39.1699 32.3398C42.733 33.3942 46.6165 40.1845 43.9437 44.3563C45.0395 44.8921 46.0749 45.5437 47.032 46.3C48.9032 47.4907 50.3201 49.2755 51.0553 51.368V51.367Z" fill="#677079"/>
<path id="Vector_3" fill-rule="evenodd" clip-rule="evenodd" d="M23.332 37.5534L37.8175 37.6408V40.9777L37.8107 41.0291C37.8006 41.1803 37.7779 41.3303 37.7427 41.4777L37.6942 41.8087L37.665 41.8777C36.7272 46.8039 32.6233 48.7078 30.0893 50.034C27.4194 48.5796 23.6447 45.9592 23.3447 41.3233L23.332 41.266V41.0718C23.33 41.0049 23.3287 40.9379 23.3282 40.8709C23.3282 40.9058 23.3311 40.9388 23.332 40.9738V37.5534Z" fill="#F9DCA4"/>
<path id="Vector_4" opacity="0.11" fill-rule="evenodd" clip-rule="evenodd" d="M37.8184 37.4922V41.3806C37.8156 41.741 37.7848 42.1007 37.7262 42.4563C37.6527 42.8965 37.5289 43.3268 37.3573 43.7388C32.3243 47.5398 24.3048 44.4223 23.0243 37.9301L37.8184 37.4922Z" fill="black"/>
<path id="Vector_5" fill-rule="evenodd" clip-rule="evenodd" d="M17.5767 24.5C12.7806 25.733 16.8583 31.5777 19.8748 31.5524C18.6583 29.373 17.8777 26.9777 17.5767 24.5V24.5ZM42.5602 24.5C47.3563 25.733 43.2786 31.5777 40.2612 31.5515C41.478 29.3725 42.2588 26.9774 42.5602 24.5V24.5Z" fill="#F9DCA4"/>
<path id="Vector_6" fill-rule="evenodd" clip-rule="evenodd" d="M29.8379 11.0301C49.7631 11.0301 41.998 42.5311 29.8379 42.5311C18.3524 42.5311 9.91261 11.0301 29.8379 11.0301V11.0301Z" fill="#FFE8BE"/>
<path id="Vector_7" fill-rule="evenodd" clip-rule="evenodd" d="M20.434 21.4612C20.604 21.6475 20.73 21.8695 20.8029 22.111C20.8757 22.3525 20.8935 22.6072 20.855 22.8564C20.8164 23.1057 20.7225 23.3431 20.5801 23.5513C20.4376 23.7594 20.2504 23.933 20.032 24.0592C18.6243 25.2175 18.5728 29.2563 18.5728 29.2563C18.0291 28.7165 18.0417 25.8252 16.8631 24.1544C15.6845 22.4835 14.8903 10.7922 21.4816 6.54078C21.0765 7.01719 20.7846 7.57913 20.6277 8.18445C20.4709 8.78977 20.4531 9.42275 20.5757 10.0359C20.5757 10.0359 25.1544 3.4699 32.7505 3.65922C32.1483 3.98759 31.622 4.43915 31.206 4.98449C30.79 5.52983 30.4935 6.1567 30.3359 6.82427C30.3359 6.82427 36.9767 4.08447 42.5107 7.34369C41.0719 7.74136 39.7111 8.38055 38.4864 9.23398C41.1738 9.30777 43.7709 9.8068 45.7291 11.5485C45.3077 11.6838 44.9176 11.9022 44.582 12.1908C44.2464 12.4794 43.972 12.8323 43.7751 13.2287C43.5781 13.6252 43.4626 14.057 43.4354 14.4988C43.4082 14.9406 43.4697 15.3834 43.6165 15.801C44.4476 19.2019 44.5252 22.366 43.7204 24.067C42.9155 25.768 42.5359 24.6699 42.032 28.2369C42.0073 28.4779 41.927 28.7098 41.7972 28.9143C41.6675 29.1189 41.4919 29.2905 41.2845 29.4155C41.265 29.6738 41.6553 25.7689 40.6485 24.7291C39.6427 23.6903 40.2748 22.4136 40.6767 21.6583C43.4825 16.3893 35.0796 14.0019 30.4864 14.0078C26.5029 14.0126 16.8942 15.8233 20.434 21.4612V21.4612Z" fill="#8A5C42"/>
<path id="Vector_8" fill-rule="evenodd" clip-rule="evenodd" d="M19.2136 47.7301C19.2427 47.767 29.3282 60.8204 41.1845 47.5359C39.7524 51.4699 33.5757 54.5942 30.0427 54.5845C23.2951 54.5651 19.5612 49.1476 19.2136 47.7301V47.7301Z" fill="#434955"/>
<path id="Vector_9" fill-rule="evenodd" clip-rule="evenodd" d="M35.2777 59.5369C34.8796 59.6068 34.4796 59.668 34.0767 59.7233V51.0466C34.0915 50.9013 34.1625 50.7675 34.2746 50.6739C34.3868 50.5803 34.5311 50.5342 34.6767 50.5456C34.8225 50.534 34.967 50.5799 35.0794 50.6735C35.1917 50.7672 35.2629 50.9011 35.2777 51.0466V59.5369ZM25.7437 59.6981C25.3411 59.6405 24.9408 59.5757 24.5427 59.5039V51.0466C24.5575 50.9013 24.6285 50.7675 24.7407 50.6739C24.8528 50.5803 24.9971 50.5342 25.1427 50.5456C25.2887 50.5337 25.4335 50.5795 25.546 50.6732C25.6586 50.7668 25.7299 50.9009 25.7447 51.0466L25.7437 59.6981Z" fill="#E6E6E6"/>
</g>
</g>
</g>
</svg>
