<svg width="60" height="60" viewBox="0 0 60 60" fill="none" xmlns="http://www.w3.org/2000/svg">
<g id="renif">
<circle id="Ellipse 94" cx="30" cy="30" r="30" fill="#58B0E0"/>
<g id="ref">
<path id="Vector" d="M45.5312 27.3676C45.0823 28.6605 43.902 29.6044 42.4552 29.8335L35.4585 30.9432L33.2192 28.7918L34.449 28.4893C37.5741 27.7298 39.7948 26.5828 42.0683 23.7912C42.5458 23.2049 43.3964 23.0786 44.0089 23.522C45.0099 24.2464 46.1816 25.5241 45.5312 27.3676Z" fill="#C17D61"/>
<path id="Vector_2" d="M34.9053 29.2436C37.7954 28.5119 40.2464 27.3616 42.7212 24.3235C42.9181 24.0823 43.2632 24.0223 43.5155 24.2043C46.0643 26.0472 44.5694 28.6453 42.3242 29.0028L35.7399 30.0461L34.9053 29.2436Z" fill="#AD6850"/>
<path id="Vector_3" d="M14.4915 27.3676C14.9404 28.6605 16.1207 29.6044 17.5675 29.8335L24.5642 30.9432L26.8034 28.7918L25.5737 28.4893C22.4485 27.7298 20.2278 26.5828 17.9544 23.7912C17.4769 23.2049 16.6263 23.0786 16.0138 23.522C15.0128 24.2464 13.8411 25.5241 14.4915 27.3676Z" fill="#C17D61"/>
<path id="Vector_4" d="M17.6988 29.0027C15.5047 28.6534 13.9069 26.0846 16.5074 24.2043C16.7601 24.0221 17.1051 24.0825 17.3018 24.3235C19.7758 27.3607 22.2268 28.511 25.1177 29.2436L24.2832 30.046L17.6988 29.0027Z" fill="#AD6850"/>
<path id="Vector_5" d="M48.1974 15.0471C45.3834 23.3917 36.8851 22.0715 35.5429 28.9559L35.0882 31.2546C35.0124 31.6503 34.6589 31.9282 34.2631 31.9282C34.2125 31.9282 34.1536 31.9282 34.1031 31.9113C33.6485 31.827 33.3454 31.3808 33.438 30.9261L33.8927 28.636C34.5473 25.2836 36.4463 23.3859 39.3653 21.7826C37.934 21.3869 36.7132 20.629 35.7113 19.5263C32.2509 15.6951 32.815 9.03544 32.8403 8.75778C32.8823 8.29466 33.3033 7.94958 33.758 7.9999C34.221 8.03366 34.5578 8.44615 34.5241 8.90927C34.5156 8.96824 34.0021 15.1227 36.9657 18.398C38.1192 19.6778 39.6936 20.3596 41.6301 20.4186C41.9585 20.1997 42.2616 19.9723 42.5562 19.745C42.6825 14.8449 39.7525 11.9401 39.7273 11.9064C39.3905 11.5865 39.3821 11.0478 39.7021 10.7194C40.0305 10.3826 40.5609 10.3743 40.8892 10.694C41.0239 10.8204 43.8108 13.5483 44.2065 18.2969C47.5734 14.8312 48.0951 10.699 44.1644 7.12419C43.8192 6.81277 43.7939 6.28224 44.1054 5.93716C44.417 5.59188 44.9474 5.56677 45.2926 5.87819C48.2648 8.57232 49.2415 11.654 48.1974 15.0471ZM20.6573 21.7827C23.5665 23.3807 25.4735 25.2746 26.1299 28.6361L26.5846 30.9262C26.6772 31.3809 26.3741 31.8271 25.9195 31.9114C25.8689 31.9283 25.81 31.9283 25.7595 31.9283C25.3638 31.9283 25.0102 31.6504 24.9344 31.2547L24.4797 28.956C23.1712 22.2442 14.5953 23.1972 11.8336 15.0725C10.7811 11.6541 11.7578 8.57243 14.7298 5.87829C15.075 5.56687 15.6054 5.59198 15.917 5.93726C16.2285 6.28234 16.2032 6.81287 15.858 7.1243C11.9521 10.6765 12.4566 14.8385 15.8159 18.297C16.2116 13.5484 18.9985 10.8205 19.1332 10.6941C19.4615 10.3743 20.0004 10.3827 20.3203 10.7195C20.6403 11.0564 20.6318 11.5867 20.2951 11.9065C20.2698 11.9402 17.4577 14.7271 17.4577 19.4505C17.4577 19.5515 17.4577 19.6441 17.4661 19.7451C17.7608 19.9724 18.0639 20.1998 18.3922 20.4187C20.3287 20.3597 21.9031 19.6779 23.0565 18.3981C26.0202 15.1228 25.5067 8.96834 25.4982 8.90937C25.4645 8.44625 25.8013 8.03376 26.2643 8.00001C26.719 7.94968 27.1399 8.29476 27.182 8.75788C27.6593 14.0057 25.9213 20.3274 20.6573 21.7827Z" fill="#6D6D6D"/>
<path id="Vector_6" d="M42.7669 43.7068C42.7669 46.0728 42.1269 48.2872 41.0072 50.1816C38.7844 53.9451 34.6926 56.4709 30.0114 56.4709C25.3301 56.4709 21.2383 53.945 19.0155 50.1816C17.8957 48.2872 17.2559 46.0728 17.2559 43.7068C17.2559 36.6766 22.9643 24.5862 30.0114 24.5862C37.0584 24.5862 42.7669 36.6767 42.7669 43.7068Z" fill="#C17D61"/>
<path id="Vector_7" opacity="0.4" d="M26.0086 27.5667C25.2938 28.1378 24.6062 28.8378 23.9574 29.6319C23.5363 30.1474 23.9028 30.9236 24.5685 30.9236H24.5761C24.816 30.9236 25.0409 30.8106 25.1915 30.6239C25.7607 29.9181 26.3585 29.3042 26.9732 28.8143C27.1644 28.6619 27.2806 28.4376 27.2806 28.1931C27.2805 27.5377 26.5206 27.1575 26.0086 27.5667Z" fill="white"/>
<path id="Vector_8" opacity="0.08" d="M42.7669 43.7068C42.7669 46.0728 42.1269 48.2872 41.0072 50.1816C38.7844 53.9451 34.6926 56.4709 30.0114 56.4709C29.6578 56.4709 29.3126 56.454 28.9758 56.4288C33.2193 56.0837 36.8733 53.6587 38.9277 50.1816C40.0474 48.2872 40.6874 46.0728 40.6874 43.7068C40.6874 37.0303 35.5347 25.7735 28.9758 24.6705C29.3126 24.6199 29.6579 24.5862 30.0114 24.5862C37.0584 24.5863 42.7669 36.6767 42.7669 43.7068Z" fill="black"/>
<path id="Vector_9" d="M41.0073 50.1815C38.7845 53.945 34.6927 56.4708 30.0115 56.4708C25.3302 56.4708 21.2384 53.9449 19.0156 50.1815C20.7248 45.4076 25.0018 42.0315 30.0115 42.0315C35.0211 42.0315 39.2982 45.4076 41.0073 50.1815Z" fill="#F2F0F0"/>
<g id="Group">
<path id="Vector_10" d="M32.7387 47.003C32.7387 48.0245 31.3404 49.4694 30.0115 49.4694C28.6825 49.4694 27.2842 48.0247 27.2842 47.003C27.2842 45.9814 28.6825 45.9027 30.0115 45.9027C31.3404 45.9027 32.7387 45.9814 32.7387 47.003Z" fill="#6D6D6D"/>
<path id="Vector_11" d="M34.6017 50.5632C34.6017 51.3798 34.004 52.1087 33.0805 52.4295C32.75 52.5413 32.4001 52.5996 32.0502 52.5996C31.2192 52.5996 30.4804 52.2837 30.0139 51.7881C29.5426 52.2838 28.8038 52.5996 27.9728 52.5996C27.618 52.5996 27.2681 52.5413 26.9376 52.4247C26.0191 52.104 25.4214 51.3749 25.4214 50.5634C25.4214 50.2816 25.6499 50.0483 25.9366 50.0483C26.2233 50.0483 26.4566 50.2816 26.4566 50.5634C26.4566 50.9279 26.7774 51.273 27.278 51.4479C27.5015 51.5257 27.7348 51.5645 27.973 51.5645C28.7992 51.5645 29.4942 51.1077 29.4942 50.5634V47.9293C29.4942 47.6474 29.7275 47.4141 30.0142 47.4141C30.2961 47.4141 30.5294 47.6474 30.5294 47.9293V50.5634C30.5294 51.1077 31.2244 51.5645 32.0506 51.5645C32.2888 51.5645 32.522 51.5256 32.7407 51.4479C33.2413 51.2778 33.5669 50.9279 33.5669 50.5634C33.5669 50.2816 33.8002 50.0483 34.0869 50.0483C34.3736 50.0483 34.6017 50.2815 34.6017 50.5632Z" fill="#6D6D6D"/>
</g>
<g id="Group_2">
<path id="Vector_12" d="M25.9951 36.2602C25.7277 37.3829 24.9982 38.1708 24.369 38.021C23.7399 37.8711 23.4436 36.839 23.711 35.7162C23.9784 34.5935 24.7079 33.8058 25.3371 33.9556C25.9662 34.1054 26.2625 35.1374 25.9951 36.2602ZM34.0276 36.2602C34.295 37.3829 35.0246 38.1708 35.6537 38.021C36.2828 37.8711 36.5791 36.839 36.3117 35.7162C36.0443 34.5935 35.3148 33.8058 34.6856 33.9556C34.0565 34.1054 33.7602 35.1374 34.0276 36.2602Z" fill="#6D6D6D"/>
</g>
</g>
</g>
</svg>
