<svg width="60" height="60" viewBox="0 0 60 60" fill="none" xmlns="http://www.w3.org/2000/svg">
<g id="dogIcon">
<circle id="Ellipse 97" cx="30" cy="30" r="30" fill="#FFC200"/>
<g id="Dog">
<path id="Vector" d="M49.5717 33.7269C49.5717 45.1086 39.7866 47.8486 31.1291 48.0488C30.7761 48.0541 30.423 48.0594 30.0753 48.0594C29.7275 48.0594 29.3744 48.0541 29.0214 48.0488C20.3639 47.8486 10.5789 45.1086 10.5789 33.7269C10.5789 32.1935 10.758 30.7023 11.1005 29.2691C11.1848 28.916 11.2744 28.5682 11.3798 28.2257C11.4852 27.8674 11.6011 27.5144 11.7328 27.1613C13.4137 22.5244 16.8282 18.6989 21.1912 16.4699C21.5074 16.3066 21.8341 16.1538 22.1608 16.0115C22.4822 15.864 22.8036 15.7322 23.1356 15.611C25.2907 14.7838 27.6303 14.3359 30.0753 14.3359C32.5202 14.3359 34.8598 14.7838 37.0149 15.611C37.3469 15.7322 37.6683 15.864 37.9897 16.0115C38.3164 16.1538 38.6431 16.3066 38.9593 16.4699C43.3223 18.6989 46.7368 22.5244 48.4177 27.1613C48.5494 27.5144 48.6653 27.8674 48.7707 28.2257C48.8761 28.5735 48.971 28.9213 49.05 29.2743C49.3925 30.7076 49.5717 32.1935 49.5717 33.7269Z" fill="#935544"/>
<path id="Vector_2" d="M30.0752 41.7362C32.9854 41.7362 35.3445 39.8489 35.3445 37.5208C35.3445 35.1927 32.9854 33.3054 30.0752 33.3054C27.1651 33.3054 24.8059 35.1927 24.8059 37.5208C24.8059 39.8489 27.1651 41.7362 30.0752 41.7362Z" fill="#422822"/>
<path id="Vector_3" d="M31.1292 40.6824V48.0489C30.7762 48.0541 30.4231 48.0594 30.0753 48.0594C29.7276 48.0594 29.3745 48.0541 29.0215 48.0489V40.6824C29.0215 40.1028 29.4957 39.6285 30.0753 39.6285C30.655 39.6285 31.1292 40.1028 31.1292 40.6824Z" fill="#422822"/>
<path id="Vector_4" d="M39.2965 32.2515C39.8786 32.2515 40.3504 31.7797 40.3504 31.1977C40.3504 30.6156 39.8786 30.1438 39.2965 30.1438C38.7145 30.1438 38.2427 30.6156 38.2427 31.1977C38.2427 31.7797 38.7145 32.2515 39.2965 32.2515Z" fill="#422822"/>
<path id="Vector_5" d="M20.854 34.8862C22.8911 34.8862 24.5425 33.2348 24.5425 31.1977C24.5425 29.1606 22.8911 27.5092 20.854 27.5092C18.8169 27.5092 17.1655 29.1606 17.1655 31.1977C17.1655 33.2348 18.8169 34.8862 20.854 34.8862Z" fill="#422822"/>
<path id="Vector_6" d="M52.4329 20.2903L45.7303 13.5825C43.6753 11.5274 40.3293 11.5274 38.2796 13.5825C37.6894 14.1726 37.2679 14.8682 37.0149 15.6111C36.3931 17.4501 36.8147 19.5684 38.2796 21.0333L44.9821 27.7411C45.978 28.737 47.3006 29.285 48.7075 29.285C48.8234 29.285 48.9341 29.2797 49.05 29.2744C49.6349 29.2375 50.204 29.1058 50.7309 28.8845C51.3579 28.6263 51.9376 28.2364 52.4329 27.7411C54.4879 25.686 54.4879 22.34 52.4329 20.2903ZM21.8762 21.0333L15.1684 27.7411C14.1409 28.7686 12.792 29.2797 11.443 29.2797C11.3271 29.2797 11.2164 29.2744 11.1005 29.2692C9.86224 29.1901 8.6503 28.679 7.71237 27.7411C5.66261 25.686 5.66261 22.34 7.71237 20.2903L14.4202 13.5825C16.4752 11.5274 19.8212 11.5274 21.8762 13.5825C22.4611 14.1726 22.8827 14.8682 23.1356 15.6111C23.7574 17.4501 23.3358 19.5684 21.8762 21.0333Z" fill="#422822"/>
<path id="Vector_7" opacity="0.16" d="M30.0753 14.336V48.0595C29.7275 48.0595 29.3744 48.0542 29.0214 48.0489C20.3639 47.8487 10.5789 45.1087 10.5789 33.727C10.5789 32.1936 10.758 30.7024 11.1005 29.2692C9.86224 29.1901 8.6503 28.679 7.71237 27.7411C5.66261 25.686 5.66261 22.34 7.71237 20.2903L14.4202 13.5825C16.4752 11.5274 19.8212 11.5274 21.8762 13.5825C22.4611 14.1726 22.8827 14.8682 23.1356 15.6111C25.2907 14.7839 27.6303 14.336 30.0753 14.336Z" fill="white"/>
</g>
</g>
</svg>
