<svg width="60" height="60" viewBox="0 0 60 60" fill="none" xmlns="http://www.w3.org/2000/svg">
<g id="Avatar">
<g id="Layer 2">
<g id="&#226;&#128;&#148;&#195;&#142;&#195;&#147;&#195;&#136; 1">
<path id="Vector" fill-rule="evenodd" clip-rule="evenodd" d="M30.2223 8.18641C50.8835 8.18641 42.832 42.4252 30.2223 42.4252C18.3136 42.4252 9.56116 8.18641 30.2223 8.18641V8.18641Z" fill="#FFE8BE"/>
<path id="Vector_2" d="M30 60C46.5685 60 60 46.5685 60 30C60 13.4315 46.5685 0 30 0C13.4315 0 0 13.4315 0 30C0 46.5685 13.4315 60 30 60Z" fill="#A9CF54"/>
<path id="Vector_3" d="M18.4583 21.0835H42.2485V46.8835H18.4592L18.4583 21.0835Z" fill="#302E33"/>
<path id="Vector_4" fill-rule="evenodd" clip-rule="evenodd" d="M24.0233 37.5534L36.5777 37.6709V50.2126L24.0233 50.0951V37.5534Z" fill="#F9DCA4"/>
<path id="Vector_5" opacity="0.11" fill-rule="evenodd" clip-rule="evenodd" d="M36.5796 37.6485V41.1243C36.5796 41.4126 36.5777 41.234 36.5777 41.6223C36.6149 41.8984 36.5774 42.1794 36.4689 42.4359C32.2272 46.4786 25.1893 44.3602 24.1097 37.4544L36.5796 37.6485Z" fill="black"/>
<path id="Vector_6" fill-rule="evenodd" clip-rule="evenodd" d="M51.2592 51.166C48.6223 45.0621 42.6058 44.4738 36.5777 41.6223C36.5777 46.8786 24.0223 46.4563 24.0223 41.366C18.6165 43.8126 10.7893 44.9777 8.4631 50.8815C11.2361 53.7422 14.5513 56.0218 18.215 57.5872C21.8786 59.1526 25.8175 59.9725 29.8015 59.999C33.7855 60.0255 37.7349 59.258 41.4191 57.7415C45.1033 56.2249 48.4484 53.9896 51.2592 51.166V51.166Z" fill="#498BD9"/>
<path id="Vector_7" fill-rule="evenodd" clip-rule="evenodd" d="M42.1272 24.7961C45.001 26.0485 42.2485 31.1408 40.8621 30.6466C38.6272 29.8485 41.9922 27.167 42.1272 24.7951V24.7961Z" fill="#F9DCA4"/>
<path id="Vector_8" fill-rule="evenodd" clip-rule="evenodd" d="M30.2078 8.41359C38.6757 8.41359 42.2243 14.433 42.4417 21.3913C42.7398 30.9155 36.932 42.1971 30.2087 42.1971C23.8398 42.1971 17.8728 30.5291 18.235 20.9078C18.4874 14.1573 21.9379 8.41359 30.2078 8.41359V8.41359Z" fill="#FFE8BE"/>
<path id="Vector_9" fill-rule="evenodd" clip-rule="evenodd" d="M38.5786 19.6272C38.5786 19.6272 33.566 36.8699 13.9184 31.1204C18.8243 28.4476 18.2757 24.5456 17.9291 19.6272H38.5786Z" fill="#464449"/>
<path id="Vector_10" fill-rule="evenodd" clip-rule="evenodd" d="M32.6845 19.9495C32.6845 19.9495 35.5311 29.0709 45.3398 29.7728C44.2122 28.8729 43.267 27.7656 42.5553 26.5107C43.4177 26.904 44.384 27.0089 45.3107 26.8097C42.9262 25.0214 42.332 23.568 42.733 20.1204C43.134 16.6728 32.6845 19.9495 32.6845 19.9495Z" fill="#464449"/>
<path id="Vector_11" d="M30.3534 26.5796C38.7052 26.5796 45.4757 25.0117 45.4757 23.0777C45.4757 21.1436 38.7052 19.5757 30.3534 19.5757C22.0016 19.5757 15.2311 21.1436 15.2311 23.0777C15.2311 25.0117 22.0016 26.5796 30.3534 26.5796Z" fill="#58B0E0"/>
<path id="Vector_12" fill-rule="evenodd" clip-rule="evenodd" d="M26.1854 6.4301H34.5214C36.7089 6.4365 38.8051 7.30828 40.352 8.85504C41.899 10.4018 42.771 12.4979 42.7777 14.6854V21.0835H17.9291V14.6854C17.9358 12.4979 18.8078 10.4018 20.3548 8.85504C21.9017 7.30828 23.9979 6.4365 26.1854 6.4301V6.4301Z" fill="#2881BB"/>
<path id="Vector_13" fill-rule="evenodd" clip-rule="evenodd" d="M25.6359 12.8058H27.6019L29.0272 15.6437V13.9058C29.0333 13.8119 29.0248 13.7175 29.0019 13.6262C28.9855 13.5774 28.9521 13.536 28.9078 13.5097C28.8349 13.4814 28.7565 13.4702 28.6786 13.4767H28.4418V12.8058H30.4476V13.4767H30.2262C30.145 13.4718 30.0638 13.4851 29.9884 13.5155C29.9444 13.5378 29.9095 13.5745 29.8893 13.6194C29.8658 13.7126 29.8566 13.8089 29.8621 13.9049V17.668H28.8573L27.0563 14.0835V16.5922C27.0502 16.685 27.059 16.7781 27.0825 16.868C27.1017 16.9092 27.1347 16.9425 27.1757 16.9621C27.2505 16.9897 27.3302 17.0013 27.4097 16.9961H27.6427V17.668H25.6359V16.9971H25.8437C25.9239 17.0023 26.0043 16.9921 26.0806 16.967C26.1257 16.9455 26.162 16.9092 26.1835 16.8641C26.2124 16.7947 26.2253 16.7197 26.2214 16.6447V13.8534C26.2258 13.7733 26.2142 13.6931 26.1874 13.6175C26.1684 13.5721 26.1354 13.534 26.0932 13.5087C26.0308 13.482 25.9629 13.4706 25.8951 13.4757H25.6359V12.8058V12.8058ZM30.6388 12.8058H33.0515V13.4767H32.8709C32.7898 13.4689 32.708 13.4789 32.6311 13.5058C32.6147 13.5154 32.6015 13.5294 32.5929 13.5463C32.5843 13.5632 32.5807 13.5821 32.5825 13.601C32.5968 13.6996 32.6355 13.793 32.6951 13.8728L33.335 14.932L34.0466 13.834C34.0823 13.7814 34.1172 13.7283 34.1515 13.6748C34.1606 13.6492 34.1652 13.6223 34.165 13.5951C34.1666 13.578 34.1638 13.5607 34.1568 13.5449C34.1498 13.5291 34.139 13.5153 34.1252 13.5049C34.0658 13.4798 34.001 13.4701 33.9369 13.4767H33.6874V12.8058H35.6214V13.4767C35.4992 13.4561 35.3736 13.4773 35.2649 13.5369C35.1563 13.5964 35.0708 13.6908 35.0223 13.8049L33.7301 15.6951V16.5631C33.7233 16.6637 33.7332 16.7647 33.7592 16.8621C33.7792 16.9075 33.8157 16.9435 33.8612 16.9631C33.9525 16.9913 34.0483 17.0025 34.1437 16.9961H34.3155V17.668H31.9447V16.9971H32.0718C32.1785 17.0047 32.2857 16.9932 32.3884 16.9631C32.4362 16.9399 32.4741 16.9003 32.4951 16.8515C32.5256 16.7492 32.5374 16.6423 32.5301 16.5359V15.7757L31.2388 13.8049C31.1727 13.6884 31.0803 13.589 30.9689 13.5146C30.862 13.4824 30.7502 13.4696 30.6388 13.4767V12.8058Z" fill="white"/>
<path id="Vector_14" fill-rule="evenodd" clip-rule="evenodd" d="M29.5243 45.3262L30.7485 45.3379V48.6874H29.5243V45.3262Z" fill="#E6E6E6"/>
<path id="Vector_15" opacity="0.33" d="M29.499 59.9903L29.5485 48.6874L30.7738 48.6922L30.7243 59.9951L29.499 59.9903Z" fill="white"/>
<path id="Vector_16" fill-rule="evenodd" clip-rule="evenodd" d="M8.82137 51.2476C10.087 48.709 12.183 46.6798 14.7612 45.4971C18.7961 43.7621 24.0699 42.0165 24.0854 42.0117L24.3961 42.7922C24.3816 42.7971 19.0981 44.5301 15.0874 46.2544C12.6307 47.4274 10.6334 49.3836 9.40971 51.8155L8.82137 51.2476ZM50.9029 51.5184C49.6376 48.9813 47.5423 46.9535 44.9651 45.7718C40.9301 44.0369 36.4476 42.5583 36.433 42.5544L36.0524 43.3087C36.067 43.3136 40.6291 44.8058 44.6388 46.5301C47.0924 47.6991 49.0877 49.6506 50.3107 52.0777L50.6748 51.7379L50.9029 51.5184Z" fill="#E6E6E6"/>
</g>
</g>
</g>
</svg>
