<svg width="60" height="60" viewBox="0 0 60 60" fill="none" xmlns="http://www.w3.org/2000/svg">
<g id="Avatar">
<g id="Layer 2">
<g id="&#226;&#128;&#148;&#195;&#142;&#195;&#147;&#195;&#136; 1">
<path id="Vector" fill-rule="evenodd" clip-rule="evenodd" d="M30.2223 8.18641C50.8835 8.18641 42.8311 42.4252 30.2223 42.4252C18.3136 42.4252 9.56116 8.18641 30.2223 8.18641V8.18641Z" fill="#FFE8BE"/>
<path id="Vector_2" d="M30 60C46.5685 60 60 46.5685 60 30C60 13.4315 46.5685 0 30 0C13.4315 0 0 13.4315 0 30C0 46.5685 13.4315 60 30 60Z" fill="#A9CF54"/>
<path id="Vector_3" fill-rule="evenodd" clip-rule="evenodd" d="M16.1621 24.3728C16.1621 24.3728 17.5155 42.4505 14.2398 47.3291C10.9641 52.2078 30.2689 47.1447 30.2689 47.1447L30.2747 13.2971L16.1621 24.3728Z" fill="#302E33"/>
<path id="Vector_4" fill-rule="evenodd" clip-rule="evenodd" d="M44.3738 24.3728C44.3738 24.3728 43.0204 42.4505 46.2971 47.3291C49.5738 52.2078 30.268 47.1447 30.268 47.1447L30.2621 13.2971L44.3738 24.3728Z" fill="#302E33"/>
<path id="Vector_5" fill-rule="evenodd" clip-rule="evenodd" d="M51.2592 51.166C50.6689 49.7466 50.7796 48.333 46.0505 46.1301C43.8243 45.6039 38.0796 44.8495 36.9942 42.8291C36.4437 41.8078 36.5767 40.368 36.5767 37.6913L24.0233 37.5534C24.0233 40.2495 24.1291 41.6874 23.5146 42.6971C22.3592 44.5971 14.8398 45.9825 12.5068 46.6039C8.53301 48.3699 8.98738 49.4437 8.4631 50.8816C11.2361 53.7422 14.5513 56.0218 18.215 57.5872C21.8786 59.1526 25.8175 59.9725 29.8015 59.999C33.7855 60.0255 37.7349 59.258 41.4191 57.7415C45.1033 56.2249 48.4484 53.9896 51.2592 51.166V51.166Z" fill="#F9DCA4"/>
<path id="Vector_6" opacity="0.11" fill-rule="evenodd" clip-rule="evenodd" d="M36.5796 37.6485L36.5651 40.0767C36.4758 41.0815 36.6603 42.0917 37.099 43C32.7767 46.3204 24.6777 45.5194 23.7825 37.2359L36.5796 37.6485Z" fill="black"/>
<path id="Vector_7" fill-rule="evenodd" clip-rule="evenodd" d="M18.5534 23.4786C15.6816 24.7311 18.1243 30.6728 19.932 30.6466C19.1819 28.3224 18.7189 25.9152 18.5534 23.4786ZM42.2398 23.4777C45.1136 24.732 42.6699 30.6728 40.8621 30.6466C41.6121 28.3221 42.0748 25.9146 42.2398 23.4777V23.4777Z" fill="#F9DCA4"/>
<path id="Vector_8" fill-rule="evenodd" clip-rule="evenodd" d="M30.2078 8.41359C38.6757 8.41359 42.2243 14.433 42.4417 21.3913C42.7398 30.9155 36.932 42.1971 30.2087 42.1971C23.8398 42.1971 17.8728 30.5291 18.235 20.9078C18.4874 14.1573 21.9379 8.41359 30.2078 8.41359V8.41359Z" fill="#FFE8BE"/>
<path id="Vector_9" fill-rule="evenodd" clip-rule="evenodd" d="M30.2748 13.2981C29.7126 15.6388 27.0709 23.1689 16.1621 24.3728C15.0262 5.61359 29.3029 6.07379 30.2748 6.12718C31.2476 6.07379 45.5243 5.61262 44.3874 24.3728C33.4796 23.1689 30.8369 15.6388 30.2748 13.2981Z" fill="#464449"/>
<path id="Vector_10" fill-rule="evenodd" clip-rule="evenodd" d="M51.2592 51.166C36.8223 55.6107 18.0864 52.9282 12.5068 46.6039C8.53301 48.3699 8.98738 49.4437 8.4631 50.8816C11.2361 53.7422 14.5513 56.0218 18.215 57.5872C21.8786 59.1526 25.8175 59.9725 29.8015 59.999C33.7855 60.0255 37.7349 59.258 41.4191 57.7415C45.1033 56.2249 48.4484 53.9896 51.2592 51.166V51.166Z" fill="#E9573E"/>
<path id="Vector_11" fill-rule="evenodd" clip-rule="evenodd" d="M41.5505 45.1631L42.5903 45.4087L42.5864 53.2903H41.5505V45.1631Z" fill="#E9573E"/>
<path id="Vector_12" fill-rule="evenodd" clip-rule="evenodd" d="M23.1398 43.1262C23.1417 43.1388 23.9922 47.4476 30.4641 47.4476C36.9116 47.4476 37.3048 43.267 37.3058 43.2553L37.4883 43.433C37.4883 43.4447 36.9408 47.9981 30.4641 47.9981C23.865 47.9981 22.934 43.3087 22.9311 43.2942L23.1398 43.1262Z" fill="#464449"/>
<path id="Vector_13" d="M30.4116 49.8583C31.2229 49.8583 31.8806 49.0285 31.8806 48.0049C31.8806 46.9813 31.2229 46.1515 30.4116 46.1515C29.6004 46.1515 28.9427 46.9813 28.9427 48.0049C28.9427 49.0285 29.6004 49.8583 30.4116 49.8583Z" fill="#464449"/>
</g>
</g>
</g>
</svg>
