<svg width="60" height="60" viewBox="0 0 60 60" fill="none" xmlns="http://www.w3.org/2000/svg">
<g id="howlIcon">
<circle id="Ellipse 96" cx="30" cy="30" r="30" fill="#A9CF54"/>
<g id="Howl">
<path id="Vector" d="M42.9934 24.0486C42.9934 24.0486 50.8974 24.0486 51.1081 47.7604C51.1081 48.6035 50.3704 49.3412 49.5274 49.3412H49.422C48.5789 49.3412 47.8412 48.6035 47.8412 47.7604V48.182V48.7089C47.8412 49.552 47.1035 50.2897 46.2604 50.2897C45.4173 50.2897 44.6796 49.552 44.6796 48.7089V49.1304V49.6574C44.6796 50.5005 43.9419 51.2382 43.0988 51.2382C42.2557 51.2382 41.518 50.5005 41.518 49.6574V50.0789V50.6058C41.518 51.4489 40.7803 52.1866 39.9372 52.1866C39.0941 52.1866 38.3564 51.4489 38.3564 50.6058V46.9173" fill="#C48053"/>
<path id="Vector_2" opacity="0.15" d="M51.108 47.5496C51.108 48.3927 50.3703 49.025 49.5272 49.025H49.4218C48.5787 49.025 47.841 48.6035 47.841 47.7604V48.1819V48.6035C47.841 49.4465 47.1033 50.0789 46.2602 50.0789C45.4171 50.0789 44.6794 49.5519 44.6794 48.7088V49.6573C44.6794 50.5004 43.9417 51.1327 43.0987 51.1327C42.5717 51.1327 42.0448 50.922 41.834 50.5004C41.6232 50.2896 41.6232 49.9735 41.6232 49.6573V50.6058C41.6232 51.4489 40.8855 52.1866 40.0425 52.1866C39.1994 52.1866 38.4617 51.4489 38.4617 50.6058V46.9173L42.9933 24.0485C42.9933 24.0485 44.4687 23.9432 46.1548 25.8401C48.3679 28.3694 51.0026 34.1656 51.108 47.5496Z" fill="black"/>
<path id="Vector_3" opacity="0.1" d="M46.1548 31.1094C46.1548 38.5918 44.5741 45.4419 41.834 50.5005C41.6232 50.2897 41.6232 49.9735 41.6232 49.6574V50.6058C41.6232 51.4489 40.8855 52.1866 40.0425 52.1866C39.1994 52.1866 38.4617 51.4489 38.4617 50.6058V46.9173L42.9933 24.0486C42.9933 24.0486 44.4687 24.0486 46.1548 25.9455V31.1094Z" fill="black"/>
<path id="Vector_4" d="M17.0683 24.0486C17.0683 24.0486 9.16439 24.0486 8.95361 47.7604C8.95361 48.6035 9.69131 49.3412 10.5344 49.3412H10.6398C11.4829 49.3412 12.2206 48.6035 12.2206 47.7604V48.182V48.7089C12.2206 49.552 12.9583 50.2897 13.8014 50.2897C14.6445 50.2897 15.3822 49.552 15.3822 48.7089V49.1304V49.6574C15.3822 50.5005 16.1199 51.2382 16.9629 51.2382C17.806 51.2382 18.5437 50.5005 18.5437 49.6574V50.0789V50.6058C18.5437 51.4489 19.2814 52.1866 20.1245 52.1866C20.9676 52.1866 21.7053 51.4489 21.7053 50.6058V46.9173" fill="#C48053"/>
<path id="Vector_5" opacity="0.15" d="M21.5999 46.9173V50.6058C21.5999 51.4489 20.8622 52.1866 20.0191 52.1866C19.8084 52.1866 19.5976 52.1866 19.3868 52.0812C18.8599 51.8704 18.4383 51.3435 18.4383 50.6058V49.6573C18.4383 49.8681 18.4383 49.9735 18.333 50.1843C18.1222 50.8166 17.4899 51.1327 16.8576 51.1327C16.0145 51.1327 15.2768 50.5004 15.2768 49.6573V48.7089C15.2768 49.552 14.5391 50.0789 13.696 50.0789C12.7475 50.0789 12.1152 49.4466 12.1152 48.6035V48.1819V47.7604C12.1152 48.6035 11.3775 49.025 10.5344 49.025C9.58593 49.025 8.95361 48.4981 8.95361 47.5496C9.059 33.3225 12.0098 27.7371 14.2229 25.4186C15.8037 23.9432 17.0683 23.9432 17.0683 23.9432L21.5999 46.9173Z" fill="black"/>
<path id="Vector_6" opacity="0.1" d="M17.0683 24.0486L21.5999 46.9173V50.6058C21.5999 51.4489 20.8622 52.1866 20.0191 52.1866C19.8084 52.1866 19.5976 52.1866 19.3868 52.0812C19.0707 51.5543 18.7545 51.0274 18.4383 50.3951C18.4383 50.2897 18.333 50.2897 18.333 50.1843C15.8037 45.1258 14.2229 38.4865 14.2229 31.1094V25.524C15.8037 24.0486 17.0683 24.0486 17.0683 24.0486Z" fill="black"/>
<path id="Vector_7" d="M44.7848 7.92456C44.7848 7.92456 46.5764 11.9292 42.6771 15.7231L41.6233 16.4608L39.7263 13.9316" fill="#C48053"/>
<path id="Vector_8" opacity="0.3" d="M44.7848 7.92456C44.7848 7.92456 46.5764 11.9292 42.6771 15.7231L41.6233 16.4608L39.7263 13.9316" fill="black"/>
<path id="Vector_9" d="M15.2768 7.92456C15.2768 7.92456 13.4852 11.9292 17.3845 15.7231L18.4384 16.4608L20.3353 13.9316" fill="#C48053"/>
<path id="Vector_10" opacity="0.3" d="M15.2768 7.92456C15.2768 7.92456 13.4852 11.9292 17.3845 15.7231L18.4384 16.4608L20.3353 13.9316" fill="black"/>
<path id="Vector_11" d="M45.8387 31.2148C45.8387 42.8073 38.7778 52.1866 30.0308 52.1866C21.2838 52.1866 14.2229 42.8073 14.2229 31.2148V25.8401H45.8387V31.2148Z" fill="#C48053"/>
<path id="Vector_12" d="M30.0308 40.5942C38.7612 40.5942 45.8387 33.5167 45.8387 24.7863C45.8387 16.0558 38.7612 8.97839 30.0308 8.97839C21.3003 8.97839 14.2229 16.0558 14.2229 24.7863C14.2229 33.5167 21.3003 40.5942 30.0308 40.5942Z" fill="#C48053"/>
<path id="Vector_13" d="M30.031 50.0789C22.4432 50.0789 16.3308 41.3319 16.3308 30.5825C16.3308 19.8332 22.4432 11.0861 30.031 11.0861C37.6188 11.0861 43.7312 19.8332 43.7312 30.5825C43.7312 41.3319 37.6188 50.0789 30.031 50.0789Z" fill="#EAC4A9"/>
<path id="Vector_14" d="M32.9816 9.29455C32.0331 9.08378 31.0847 8.97839 30.0308 8.97839C28.9769 8.97839 28.0285 9.08378 27.08 9.29455C19.703 10.6646 14.2229 17.0931 14.2229 24.7863C14.2229 27.7371 15.066 30.5825 16.5414 32.901C17.4899 33.1118 18.4383 33.2172 19.4922 33.2172C23.4969 33.2172 27.1854 31.6364 30.0308 29.2125C32.8762 31.7418 36.5647 33.2172 40.5694 33.2172C41.6232 33.2172 42.5717 33.1118 43.5202 32.901C44.9956 30.5825 45.8387 27.7371 45.8387 24.7863C45.8387 17.0931 40.3586 10.6646 32.9816 9.29455Z" fill="#C48053"/>
<path id="Vector_15" opacity="0.1" d="M45.8389 31.2148C45.8389 42.8072 38.778 52.1866 30.031 52.1866C23.1809 52.1866 17.2793 46.285 15.0662 38.0649C17.8062 44.5988 22.9701 49.025 28.9771 49.025C37.7241 49.025 44.785 39.6457 44.785 28.0532V22.6785C44.785 22.3624 44.785 21.9408 44.785 21.6247C44.785 20.4654 44.6796 19.3062 44.4688 18.2523C45.4173 20.2547 45.8389 22.4678 45.8389 24.7862C45.8389 25.1024 45.8389 25.5239 45.8389 25.8401V31.2148Z" fill="black"/>
<path id="Vector_16" d="M23.1807 24.7862C20.0192 24.7862 17.3845 22.1516 17.3845 18.99C17.3845 15.8284 20.0192 13.1938 23.1807 13.1938C26.3423 13.1938 28.977 15.8284 28.977 18.99C28.977 22.1516 26.3423 24.7862 23.1807 24.7862Z" fill="#EAC4A9"/>
<path id="Vector_17" d="M23.1807 22.6785C25.2178 22.6785 26.8692 21.0271 26.8692 18.99C26.8692 16.9529 25.2178 15.3015 23.1807 15.3015C21.1436 15.3015 19.4922 16.9529 19.4922 18.99C19.4922 21.0271 21.1436 22.6785 23.1807 22.6785Z" fill="white"/>
<path id="Vector_18" d="M23.1809 20.5709C24.0539 20.5709 24.7617 19.8631 24.7617 18.9901C24.7617 18.117 24.0539 17.4093 23.1809 17.4093C22.3078 17.4093 21.6001 18.117 21.6001 18.9901C21.6001 19.8631 22.3078 20.5709 23.1809 20.5709Z" fill="#515151"/>
<path id="Vector_19" d="M36.8809 24.7862C33.7194 24.7862 31.0847 22.1516 31.0847 18.99C31.0847 15.8284 33.7194 13.1938 36.8809 13.1938C40.0425 13.1938 42.6772 15.8284 42.6772 18.99C42.6772 22.1516 40.0425 24.7862 36.8809 24.7862Z" fill="#EAC4A9"/>
<path id="Vector_20" d="M36.8809 22.6785C38.918 22.6785 40.5694 21.0271 40.5694 18.99C40.5694 16.9529 38.918 15.3015 36.8809 15.3015C34.8438 15.3015 33.1924 16.9529 33.1924 18.99C33.1924 21.0271 34.8438 22.6785 36.8809 22.6785Z" fill="white"/>
<path id="Vector_21" d="M36.8811 20.5709C37.7541 20.5709 38.4619 19.8631 38.4619 18.9901C38.4619 18.117 37.7541 17.4093 36.8811 17.4093C36.008 17.4093 35.3003 18.117 35.3003 18.9901C35.3003 19.8631 36.008 20.5709 36.8811 20.5709Z" fill="#515151"/>
<path id="Vector_22" opacity="0.2" d="M24.7616 36.3787C24.7616 37.538 23.8131 38.4864 22.6539 38.4864C21.4946 38.4864 20.5461 37.538 20.5461 36.3787M32.1386 36.3787C32.1386 37.538 31.1901 38.4864 30.0309 38.4864C28.8716 38.4864 27.9232 37.538 27.9232 36.3787M39.5156 36.3787C39.5156 37.538 38.5671 38.4864 37.4079 38.4864C36.2486 38.4864 35.3002 37.538 35.3002 36.3787M27.9232 40.5942C27.9232 41.7534 26.9747 42.7019 25.8154 42.7019C24.6562 42.7019 23.7077 41.7534 23.7077 40.5942M32.1386 44.8096C32.1386 45.9688 31.1901 46.9173 30.0309 46.9173C28.8716 46.9173 27.9232 45.9688 27.9232 44.8096M36.354 40.5942C36.354 41.7534 35.4056 42.7019 34.2463 42.7019C33.0871 42.7019 32.1386 41.7534 32.1386 40.5942" fill="black"/>
<path id="Vector_23" opacity="0.1" d="M28.134 20.5708C28.134 20.5708 22.9701 15.5123 17.2793 15.5123C17.2793 15.5123 18.7547 13.7207 19.387 13.1938L27.3963 16.3554L28.661 18.99M32.1387 20.5708C32.1387 20.5708 37.3026 15.5123 42.9935 15.5123C42.9935 15.5123 41.5181 13.7207 40.8857 13.1938L32.8764 16.3554L31.6118 18.99" fill="black"/>
<path id="Vector_24" d="M27.9233 20.5709C26.4479 14.88 13.1693 14.2477 15.277 7.92456C15.277 7.92456 19.4924 11.1915 24.5509 12.6669C30.031 14.2477 30.031 20.6763 30.031 20.6763" fill="#C48053"/>
<path id="Vector_25" opacity="0.15" d="M27.923 20.5709C27.1853 15.3016 13.169 14.2477 15.2767 7.92456C15.2767 7.92456 19.4922 11.1915 24.5507 12.6669C30.0307 14.2477 30.0308 20.5709 30.0308 20.5709" fill="black"/>
<path id="Vector_26" d="M32.1385 20.5709C33.6139 14.88 46.8925 14.2477 44.7848 7.92456C44.7848 7.92456 40.5694 11.1915 35.5108 12.6669C30.0308 14.2477 30.0308 20.6763 30.0308 20.6763" fill="#C48053"/>
<path id="Vector_27" opacity="0.15" d="M32.1385 20.5709C32.8762 15.3016 46.8925 14.2477 44.7848 7.92456C44.7848 7.92456 40.5694 11.1915 35.5108 12.6669C30.0308 14.2477 30.0308 20.5709 30.0308 20.5709" fill="black"/>
<path id="Vector_28" d="M30.0308 19.6224C30.0308 19.6224 27.9231 18.9901 27.9231 21.7301C27.9231 21.7301 27.9231 25.524 30.0308 28.0533C32.1385 25.524 32.1385 21.7301 32.1385 21.7301C32.1385 18.9901 30.0308 19.6224 30.0308 19.6224Z" fill="#EABF47"/>
</g>
</g>
</svg>
