<svg width="60" height="60" viewBox="0 0 60 60" fill="none" xmlns="http://www.w3.org/2000/svg">
<g id="Avatar" clip-path="url(#clip0_100_2770)">
<g id="Layer 2">
<g id="&#226;&#128;&#148;&#195;&#142;&#195;&#147;&#195;&#136; 1">
<path id="Vector" d="M30 60C46.5685 60 60 46.5685 60 30C60 13.4315 46.5685 0 30 0C13.4315 0 0 13.4315 0 30C0 46.5685 13.4315 60 30 60Z" fill="#58B0E0"/>
<path id="Vector_2" fill-rule="evenodd" clip-rule="evenodd" d="M22.5777 37.5534L38.0214 37.6709V50.2126L22.5777 50.0951V37.5534Z" fill="#F9DCA4"/>
<path id="Vector_3" fill-rule="evenodd" clip-rule="evenodd" d="M42.6903 57.1893C38.7647 59.0176 34.4904 59.9763 30.16 59.9997C25.8296 60.0232 21.5452 59.1109 17.6 57.3252V47.0068H42.6893L42.6903 57.1893Z" fill="#E6E6E6"/>
<path id="Vector_4" fill-rule="evenodd" clip-rule="evenodd" d="M32.4301 59.9029C31.6288 59.967 30.8188 59.9993 30 60C29.3819 60 28.7686 59.9816 28.1602 59.9447L29.1602 51.2184H31.5L32.4301 59.9029Z" fill="#E9573E"/>
<path id="Vector_5" fill-rule="evenodd" clip-rule="evenodd" d="M24.9097 59.5456C21.602 58.9296 18.4077 57.8125 15.4369 56.233C12.5835 54.6451 10.0071 52.604 7.80874 50.1893L9.05534 47.1796L22.5748 41.1485C22.5748 46.2087 24.2359 54.2379 24.9097 59.5466V59.5456Z" fill="#677079"/>
<path id="Vector_6" opacity="0.11" fill-rule="evenodd" clip-rule="evenodd" d="M38.0243 37.6301V40.767C33.4301 46.133 24.6524 45.3738 22.6845 37.4544L38.0243 37.6301Z" fill="black"/>
<path id="Vector_7" fill-rule="evenodd" clip-rule="evenodd" d="M30.2223 8.18641C50.8835 8.18641 42.8311 42.4252 30.2223 42.4252C18.3126 42.4252 9.56117 8.18641 30.2223 8.18641V8.18641Z" fill="#FFE8BE"/>
<path id="Vector_8" fill-rule="evenodd" clip-rule="evenodd" d="M17.8301 23.3456C14.8495 24.6456 17.3835 30.8078 19.2592 30.7806C18.4812 28.3695 18.0012 25.8723 17.8301 23.3447V23.3456ZM42.8544 23.3447C45.835 24.6447 43.301 30.8078 41.4262 30.7796C42.2036 28.3688 42.6833 25.8719 42.8544 23.3447Z" fill="#F9DCA4"/>
<path id="Vector_9" fill-rule="evenodd" clip-rule="evenodd" d="M21.2922 13.9107C18.0553 17.268 19.1942 26.5612 19.1942 26.5612L18.1748 26.0806C11.8117 1.42622 48.8874 1.42524 42.4884 26.0806L41.4689 26.5612C41.4689 26.5612 42.6087 17.268 39.3718 13.9107C35.3728 17.7893 25.2689 17.7689 21.2922 13.9107V13.9107Z" fill="#464449"/>
<path id="Vector_10" fill-rule="evenodd" clip-rule="evenodd" d="M35.6961 59.4592C42.2566 58.1922 48.2054 54.7688 52.5971 49.733L51.5388 47.1786L38.0204 41.1476C38.0204 46.2078 36.3699 54.1505 35.6961 59.4592V59.4592Z" fill="#677079"/>
<path id="Vector_11" fill-rule="evenodd" clip-rule="evenodd" d="M38.0214 40.7573L30.3262 47.034L36.7078 52.7748C36.7078 52.7748 38.4087 43.3534 38.0214 40.7573V40.7573Z" fill="white"/>
<path id="Vector_12" fill-rule="evenodd" clip-rule="evenodd" d="M22.5757 40.7573L30.332 47.034L23.8806 52.7748C23.8806 52.7748 22.1854 43.3534 22.5757 40.7573V40.7573Z" fill="white"/>
<path id="Vector_13" fill-rule="evenodd" clip-rule="evenodd" d="M27.2903 49.7349L30.3359 46.999L33.3816 49.7349L30.3359 52.4699L27.2903 49.7349Z" fill="#E9573E"/>
<path id="Vector_14" fill-rule="evenodd" clip-rule="evenodd" d="M25.0165 59.5854C23.7768 59.378 22.5514 59.0927 21.3476 58.7311C21.3099 58.702 21.2729 58.6719 21.2369 58.6408L17.8049 52.4369L22.2136 49.2719H17.6L18.5874 42.6204L22.5777 40.0971C22.7505 47.2524 24.2854 55.2971 25.0165 59.5854ZM35.5777 59.4816C36.1485 59.3864 36.7136 59.2544 37.2738 59.1087C37.9355 58.9336 38.5938 58.7462 39.2485 58.5466L39.3786 58.5049L42.7874 52.3738L38.3786 49.2262H42.9922L42.0049 42.6078L38.0146 40.0971C37.8417 47.2155 36.3078 55.2146 35.5777 59.4816V59.4816Z" fill="#434955"/>
</g>
</g>
</g>
<defs>
<clipPath id="clip0_100_2770">
<rect width="60" height="60" fill="white"/>
</clipPath>
</defs>
</svg>
