<svg width="42" height="32" viewBox="0 0 42 32" fill="none" xmlns="http://www.w3.org/2000/svg">
<path id="Vector" d="M41.58 28.2274H0.42C0.189 28.2274 0 28.4161 0 28.6466V31.5808C0 31.8114 0.189 32 0.42 32H41.58C41.811 32 42 31.8114 42 31.5808V28.6466C42 28.4161 41.811 28.2274 41.58 28.2274ZM2.81925 21.6673L4.9035 23.737C5.06625 23.8995 5.334 23.8995 5.49675 23.737L17.8185 11.4814L22.9425 16.5796C23.2582 16.8918 23.6846 17.0669 24.129 17.0669C24.5734 17.0669 24.9998 16.8918 25.3155 16.5796L39.186 2.78877C39.3488 2.62634 39.3488 2.35911 39.186 2.19668L37.1017 0.12177C37.0228 0.043761 36.9162 0 36.8051 0C36.694 0 36.5874 0.043761 36.5085 0.12177L24.1343 12.435L19.005 7.33681C18.6893 7.02465 18.2629 6.84952 17.8185 6.84952C17.3741 6.84952 16.9477 7.02465 16.632 7.33681L2.81925 21.0753C2.77998 21.114 2.7488 21.1601 2.72752 21.2109C2.70624 21.2617 2.69528 21.3162 2.69528 21.3713C2.69528 21.4264 2.70624 21.4809 2.72752 21.5317C2.7488 21.5826 2.77998 21.6286 2.81925 21.6673Z" fill="#1C1A32"/>
</svg>
