<svg width="26" height="27" viewBox="0 0 26 27" fill="none" xmlns="http://www.w3.org/2000/svg">
<path d="M3.25 13.8071C3.25 14.0205 3.29203 14.2318 3.3737 14.429C3.45536 14.6261 3.57506 14.8053 3.72595 14.9562C3.87685 15.1071 4.05599 15.2268 4.25314 15.3084C4.45029 15.3901 4.6616 15.4321 4.875 15.4321C5.0884 15.4321 5.29971 15.3901 5.49686 15.3084C5.69401 15.2268 5.87315 15.1071 6.02405 14.9562C6.17494 14.8053 6.29464 14.6261 6.3763 14.429C6.45797 14.2318 6.5 14.0205 6.5 13.8071C6.5 13.5937 6.45797 13.3824 6.3763 13.1853C6.29464 12.9881 6.17494 12.809 6.02405 12.6581C5.87315 12.5072 5.69401 12.3875 5.49686 12.3058C5.29971 12.2242 5.0884 12.1821 4.875 12.1821C4.6616 12.1821 4.45029 12.2242 4.25314 12.3058C4.05599 12.3875 3.87685 12.5072 3.72595 12.6581C3.57506 12.809 3.45536 12.9881 3.3737 13.1853C3.29203 13.3824 3.25 13.5937 3.25 13.8071ZM11.375 13.8071C11.375 14.2381 11.5462 14.6514 11.851 14.9562C12.1557 15.2609 12.569 15.4321 13 15.4321C13.431 15.4321 13.8443 15.2609 14.149 14.9562C14.4538 14.6514 14.625 14.2381 14.625 13.8071C14.625 13.3762 14.4538 12.9628 14.149 12.6581C13.8443 12.3533 13.431 12.1821 13 12.1821C12.569 12.1821 12.1557 12.3533 11.851 12.6581C11.5462 12.9628 11.375 13.3762 11.375 13.8071ZM19.5 13.8071C19.5 14.2381 19.6712 14.6514 19.976 14.9562C20.2807 15.2609 20.694 15.4321 21.125 15.4321C21.556 15.4321 21.9693 15.2609 22.274 14.9562C22.5788 14.6514 22.75 14.2381 22.75 13.8071C22.75 13.3762 22.5788 12.9628 22.274 12.6581C21.9693 12.3533 21.556 12.1821 21.125 12.1821C20.694 12.1821 20.2807 12.3533 19.976 12.6581C19.6712 12.9628 19.5 13.3762 19.5 13.8071Z" fill="#1C1A32"/>
</svg>
