<svg width="32" height="40" viewBox="0 0 32 40" fill="none" xmlns="http://www.w3.org/2000/svg">
<path id="Vector" d="M16.8617 22.7857L16.8751 22.7232C17.134 21.6562 17.4599 20.3259 17.2054 19.1205C17.0358 18.1696 16.3349 17.7991 15.7367 17.7723C15.0313 17.7411 14.4018 18.1429 14.2456 18.7277C13.9509 19.7991 14.2143 21.2634 14.6965 23.1295C14.0893 24.5759 13.1206 26.6786 12.4108 27.9286C11.0893 28.6116 9.31702 29.6652 9.05362 30.9955C9.00005 31.2411 9.06255 31.5536 9.20987 31.8348C9.37505 32.1473 9.63845 32.3884 9.94648 32.5045C10.0804 32.5536 10.2411 32.5938 10.4286 32.5938C11.2143 32.5938 12.4867 31.9598 14.1831 29.0491C14.442 28.9643 14.7099 28.875 14.9688 28.7857C16.1831 28.375 17.442 27.9464 18.5804 27.7545C19.8393 28.4286 21.2724 28.8616 22.2456 28.8616C23.2099 28.8616 23.5893 28.2902 23.7322 27.9464C23.9822 27.3438 23.8617 26.5848 23.4554 26.1786C22.8661 25.5982 21.4331 25.4464 19.2009 25.7232C18.1027 25.0536 17.384 24.1429 16.8617 22.7857ZM11.9643 29.567C11.3438 30.4688 10.8751 30.9196 10.6206 31.1161C10.9197 30.567 11.5045 29.9866 11.9643 29.567ZM15.8751 19.0536C16.1072 19.4509 16.0759 20.6518 15.8974 21.2589C15.6786 20.3705 15.6474 19.1116 15.7768 18.9643C15.8126 18.9688 15.8438 18.9955 15.8751 19.0536ZM15.8036 24.433C16.2813 25.2589 16.884 25.9688 17.5492 26.4955C16.5849 26.7143 15.7054 27.0759 14.9197 27.3973C14.7322 27.4732 14.5492 27.5491 14.3706 27.6205C14.9643 26.5446 15.4599 25.3259 15.8036 24.433ZM22.7501 27.3571C22.7545 27.3661 22.759 27.3795 22.7322 27.3973H22.7233L22.7143 27.4107C22.6786 27.433 22.3126 27.6473 20.7367 27.0268C22.5492 26.942 22.7456 27.3527 22.7501 27.3571ZM31.2947 10.0268L21.6876 0.419643C21.4197 0.151786 21.0581 0 20.6786 0H1.71434C0.924159 0 0.285767 0.638393 0.285767 1.42857V38.5714C0.285767 39.3616 0.924159 40 1.71434 40H30.2858C31.0759 40 31.7143 39.3616 31.7143 38.5714V11.0402C31.7143 10.6607 31.5626 10.2946 31.2947 10.0268ZM28.4197 11.6964H20.0179V3.29464L28.4197 11.6964ZM28.5001 36.7857H3.50005V3.21429H16.9822V12.8571C16.9822 13.3544 17.1797 13.8313 17.5314 14.183C17.883 14.5346 18.3599 14.7321 18.8572 14.7321H28.5001V36.7857Z" fill="#1C1A32"/>
</svg>
