<svg width="38" height="40" viewBox="0 0 38 40" fill="none" xmlns="http://www.w3.org/2000/svg">
<path id="Vector" d="M37.3661 25.0826L34.442 22.5826C34.5804 21.7344 34.6518 20.8683 34.6518 20.0022C34.6518 19.1362 34.5804 18.2701 34.442 17.4219L37.3661 14.9219C37.5866 14.7331 37.7445 14.4816 37.8187 14.2009C37.8928 13.9202 37.8798 13.6236 37.7813 13.3504L37.7411 13.2344C36.9361 10.9845 35.7306 8.89882 34.183 7.07812L34.1027 6.98438C33.9149 6.76363 33.6647 6.60494 33.385 6.52923C33.1053 6.45352 32.8092 6.46434 32.5357 6.56027L28.9063 7.85045C27.567 6.75223 26.0714 5.88616 24.4554 5.27902L23.7545 1.48437C23.7016 1.19885 23.5631 0.936172 23.3574 0.73124C23.1516 0.526309 22.8884 0.388825 22.6027 0.337054L22.4822 0.314732C20.1563 -0.104911 17.7098 -0.104911 15.3839 0.314732L15.2634 0.337054C14.9777 0.388825 14.7145 0.526309 14.5087 0.73124C14.303 0.936172 14.1645 1.19885 14.1116 1.48437L13.4063 5.29688C11.8031 5.90414 10.3101 6.76976 8.98662 7.85937L5.33037 6.56027C5.057 6.46358 4.76068 6.45237 4.48079 6.52812C4.2009 6.60388 3.95069 6.76301 3.7634 6.98438L3.68304 7.07812C2.13727 8.90011 0.932045 10.9854 0.125009 13.2344L0.0848304 13.3504C-0.116062 13.9085 0.0491162 14.5335 0.500009 14.9219L3.45983 17.4487C3.32144 18.2879 3.25447 19.1451 3.25447 19.9978C3.25447 20.8549 3.32144 21.7121 3.45983 22.5469L0.500009 25.0737C0.279454 25.2625 0.1216 25.5139 0.0474375 25.7947C-0.0267253 26.0754 -0.013683 26.372 0.0848304 26.6451L0.125009 26.7612C0.933045 29.0112 2.12947 31.0871 3.68304 32.9174L3.7634 33.0112C3.95114 33.2319 4.20137 33.3906 4.48109 33.4663C4.76082 33.542 5.05691 33.5312 5.33037 33.4353L8.98662 32.1362C10.317 33.2299 11.8036 34.096 13.4063 34.6987L14.1116 38.5112C14.1645 38.7967 14.303 39.0594 14.5087 39.2643C14.7145 39.4692 14.9777 39.6067 15.2634 39.6585L15.3839 39.6808C17.7312 40.1027 20.1349 40.1027 22.4822 39.6808L22.6027 39.6585C22.8884 39.6067 23.1516 39.4692 23.3574 39.2643C23.5631 39.0594 23.7016 38.7967 23.7545 38.5112L24.4554 34.7165C26.0708 34.111 27.5748 33.2421 28.9063 32.1451L32.5357 33.4353C32.8091 33.532 33.1054 33.5432 33.3853 33.4674C33.6652 33.3917 33.9154 33.2325 34.1027 33.0112L34.183 32.9174C35.7366 31.0826 36.933 29.0112 37.7411 26.7612L37.7813 26.6451C37.9822 26.096 37.817 25.471 37.3661 25.0826ZM31.2723 17.9487C31.3839 18.6228 31.442 19.3147 31.442 20.0067C31.442 20.6987 31.3839 21.3906 31.2723 22.0647L30.9777 23.8549L34.3125 26.7076C33.807 27.8723 33.1688 28.9748 32.4107 29.9933L28.2679 28.5246L26.8661 29.6763C25.7991 30.5513 24.6116 31.2388 23.3259 31.721L21.625 32.3594L20.8259 36.6897C19.5651 36.8326 18.2921 36.8326 17.0313 36.6897L16.2322 32.3504L14.5447 31.7031C13.2723 31.221 12.0893 30.5335 11.0313 29.6629L9.62947 28.5067L5.45983 29.9888C4.7009 28.9665 4.06697 27.8638 3.55804 26.7031L6.92858 23.8237L6.6384 22.0379C6.53126 21.3728 6.47322 20.6853 6.47322 20.0067C6.47322 19.3237 6.5268 18.6406 6.6384 17.9754L6.92858 16.1897L3.55804 13.3103C4.06251 12.1451 4.7009 11.0469 5.45983 10.0246L9.62947 11.5067L11.0313 10.3504C12.0893 9.47991 13.2723 8.79241 14.5447 8.31027L16.2366 7.67188L17.0357 3.33259C18.2902 3.18973 19.5714 3.18973 20.8304 3.33259L21.6295 7.66295L23.3304 8.30134C24.6116 8.78348 25.8036 9.47098 26.8705 10.346L28.2723 11.4978L32.4152 10.029C33.1741 11.0513 33.808 12.154 34.317 13.3147L30.9822 16.1674L31.2723 17.9487ZM18.9375 11.7031C14.5982 11.7031 11.0804 15.221 11.0804 19.5603C11.0804 23.8996 14.5982 27.4174 18.9375 27.4174C23.2768 27.4174 26.7947 23.8996 26.7947 19.5603C26.7947 15.221 23.2768 11.7031 18.9375 11.7031ZM22.4732 23.096C22.0095 23.5611 21.4584 23.9299 20.8516 24.1812C20.2448 24.4324 19.5943 24.5613 18.9375 24.5603C17.6027 24.5603 16.3482 24.0379 15.4018 23.096C14.9367 22.6322 14.5679 22.0811 14.3166 21.4743C14.0653 20.8675 13.9365 20.217 13.9375 19.5603C13.9375 18.2254 14.4598 16.971 15.4018 16.0246C16.3482 15.0781 17.6027 14.5603 18.9375 14.5603C20.2723 14.5603 21.5268 15.0781 22.4732 16.0246C22.9383 16.4883 23.3071 17.0394 23.5584 17.6462C23.8097 18.253 23.9385 18.9035 23.9375 19.5603C23.9375 20.8951 23.4152 22.1496 22.4732 23.096Z" fill="#1C1A32"/>
</svg>
