<svg width="40" height="40" viewBox="0 0 40 40" fill="none" xmlns="http://www.w3.org/2000/svg">
<g id="ProfileTwoTone">
<path id="Vector" d="M36.4285 2.14285H3.57139C2.78122 2.14285 2.14282 2.78125 2.14282 3.57142V36.4286C2.14282 37.2187 2.78122 37.8571 3.57139 37.8571H36.4285C37.2187 37.8571 37.8571 37.2187 37.8571 36.4286V3.57142C37.8571 2.78125 37.2187 2.14285 36.4285 2.14285ZM34.6428 34.6429H5.35711V5.35714H34.6428V34.6429Z" fill="#1C1A32"/>
<path id="Vector_2" d="M36.4285 2.14282H3.57139C2.78122 2.14282 2.14282 2.78122 2.14282 3.57139V36.4285C2.14282 37.2187 2.78122 37.8571 3.57139 37.8571H36.4285C37.2187 37.8571 37.8571 37.2187 37.8571 36.4285V3.57139C37.8571 2.78122 37.2187 2.14282 36.4285 2.14282ZM34.6428 34.6428H5.35711V5.35711H34.6428V34.6428Z" fill="#1C1A32"/>
<path id="Vector_3" d="M12.3214 26.4286C12.3214 26.9022 12.5095 27.3564 12.8444 27.6913C13.1793 28.0261 13.6335 28.2143 14.1071 28.2143C14.5807 28.2143 15.0349 28.0261 15.3698 27.6913C15.7047 27.3564 15.8928 26.9022 15.8928 26.4286C15.8928 25.955 15.7047 25.5008 15.3698 25.1659C15.0349 24.831 14.5807 24.6428 14.1071 24.6428C13.6335 24.6428 13.1793 24.831 12.8444 25.1659C12.5095 25.5008 12.3214 25.955 12.3214 26.4286ZM12.3214 20C12.3214 20.4736 12.5095 20.9278 12.8444 21.2627C13.1793 21.5976 13.6335 21.7857 14.1071 21.7857C14.5807 21.7857 15.0349 21.5976 15.3698 21.2627C15.7047 20.9278 15.8928 20.4736 15.8928 20C15.8928 19.5264 15.7047 19.0722 15.3698 18.7373C15.0349 18.4024 14.5807 18.2143 14.1071 18.2143C13.6335 18.2143 13.1793 18.4024 12.8444 18.7373C12.5095 19.0722 12.3214 19.5264 12.3214 20ZM12.3214 13.5714C12.3214 14.045 12.5095 14.4992 12.8444 14.8341C13.1793 15.169 13.6335 15.3571 14.1071 15.3571C14.5807 15.3571 15.0349 15.169 15.3698 14.8341C15.7047 14.4992 15.8928 14.045 15.8928 13.5714C15.8928 13.0978 15.7047 12.6436 15.3698 12.3087C15.0349 11.9738 14.5807 11.7857 14.1071 11.7857C13.6335 11.7857 13.1793 11.9738 12.8444 12.3087C12.5095 12.6436 12.3214 13.0978 12.3214 13.5714ZM19.1071 27.8571H27.3214C27.5178 27.8571 27.6786 27.6964 27.6786 27.5V25.3571C27.6786 25.1607 27.5178 25 27.3214 25H19.1071C18.9107 25 18.75 25.1607 18.75 25.3571V27.5C18.75 27.6964 18.9107 27.8571 19.1071 27.8571ZM19.1071 21.4286H27.3214C27.5178 21.4286 27.6786 21.2678 27.6786 21.0714V18.9286C27.6786 18.7321 27.5178 18.5714 27.3214 18.5714H19.1071C18.9107 18.5714 18.75 18.7321 18.75 18.9286V21.0714C18.75 21.2678 18.9107 21.4286 19.1071 21.4286ZM19.1071 15H27.3214C27.5178 15 27.6786 14.8393 27.6786 14.6428V12.5C27.6786 12.3036 27.5178 12.1428 27.3214 12.1428H19.1071C18.9107 12.1428 18.75 12.3036 18.75 12.5V14.6428C18.75 14.8393 18.9107 15 19.1071 15Z" fill="#1C1A32"/>
</g>
</svg>
