<svg width="33" height="34" viewBox="0 0 33 34" fill="none" xmlns="http://www.w3.org/2000/svg">
<path id="Vector" d="M32.5793 0.00353773L23.7097 1.13859C23.4003 1.17723 23.2737 1.56364 23.4894 1.79065L26.0537 4.43267L18.8576 11.8468C18.7878 11.9194 18.7487 12.0175 18.7487 12.1197C18.7487 12.2219 18.7878 12.3199 18.8576 12.3926L20.9719 14.5709C21.1172 14.7206 21.3563 14.7206 21.5017 14.5709L28.7024 7.15198L31.2667 9.79401C31.3162 9.84496 31.3786 9.88051 31.4468 9.89659C31.515 9.91268 31.5862 9.90864 31.6522 9.88494C31.7183 9.86125 31.7765 9.81885 31.8203 9.76262C31.864 9.70638 31.8915 9.63859 31.8996 9.567L32.9966 0.43341C33.0043 0.375081 32.9989 0.315692 32.9807 0.259891C32.9624 0.20409 32.9319 0.153391 32.8915 0.11176C32.8511 0.0701293 32.8019 0.0386961 32.7478 0.0199213C32.6936 0.00114652 32.6359 -0.00446062 32.5793 0.00353773ZM12.0273 19.4299C11.9568 19.358 11.8616 19.3177 11.7624 19.3177C11.6632 19.3177 11.568 19.358 11.4975 19.4299L4.3015 26.8488L1.73718 24.2068C1.6877 24.1559 1.62529 24.1203 1.55711 24.1042C1.48892 24.0882 1.41772 24.0922 1.35166 24.1159C1.2856 24.1396 1.22735 24.182 1.1836 24.2382C1.13985 24.2944 1.11237 24.3622 1.1043 24.4338L0.0026279 33.5674C-0.0254999 33.8186 0.176083 34.0263 0.419857 33.9973L9.2895 32.8622C9.5989 32.8236 9.72548 32.4372 9.50983 32.2102L6.94551 29.5682L14.1462 22.1492C14.2916 21.9995 14.2916 21.7532 14.1462 21.6034L12.0273 19.4299Z" fill="#1C1A32"/>
</svg>
