<svg width="13" height="11" viewBox="0 0 13 11" fill="none" xmlns="http://www.w3.org/2000/svg">
<g id="FirstPage">
<path id="Vector" d="M12.375 1.14263V0.10736C12.375 0.0176274 12.2719 -0.0319262 12.2023 0.0229845L6.16475 4.73861C6.11345 4.7785 6.07195 4.82958 6.04339 4.88796C6.01484 4.94633 6 5.01046 6 5.07544C6 5.14042 6.01484 5.20455 6.04339 5.26292C6.07195 5.3213 6.11345 5.37238 6.16475 5.41227L12.2023 10.1279C12.2732 10.1828 12.375 10.1333 12.375 10.0435V9.00825C12.375 8.94263 12.3442 8.87968 12.2933 8.8395L7.47189 5.07611L12.2933 1.31138C12.3442 1.2712 12.375 1.20825 12.375 1.14263V1.14263Z" fill="#6ADDDD"/>
<path id="Vector_2" d="M6.37502 1.14263V0.10736C6.37502 0.0176274 6.2719 -0.0319262 6.20225 0.0229845L0.164751 4.73861C0.113454 4.7785 0.0719468 4.82958 0.0433946 4.88796C0.0148424 4.94633 0 5.01046 0 5.07544C0 5.14042 0.0148424 5.20455 0.0433946 5.26292C0.0719468 5.3213 0.113454 5.37238 0.164751 5.41227L6.20225 10.1279C6.27323 10.1828 6.37502 10.1333 6.37502 10.0435V9.00825C6.37502 8.94263 6.34422 8.87968 6.29332 8.8395L1.47189 5.07611L6.29332 1.31138C6.34422 1.2712 6.37502 1.20825 6.37502 1.14263V1.14263Z" fill="#6ADDDD"/>
</g>
</svg>
