<svg width="13" height="12" viewBox="0 0 13 12" fill="none" xmlns="http://www.w3.org/2000/svg">
<g id="LastPage">
<path id="Vector" d="M12.2103 5.66281L6.17277 0.947189C6.15699 0.934768 6.13803 0.92705 6.11807 0.924919C6.0981 0.922788 6.07794 0.926332 6.0599 0.935143C6.04186 0.943955 6.02667 0.957676 6.01607 0.974732C6.00548 0.991787 5.99991 1.01149 6 1.03156V2.06683C6 2.13246 6.0308 2.1954 6.0817 2.23558L10.9031 6.00031L6.0817 9.76505C6.02947 9.80522 6 9.86817 6 9.9338V10.9691C6 11.0588 6.10313 11.1083 6.17277 11.0534L12.2103 6.33781C12.2616 6.29779 12.3031 6.24658 12.3316 6.1881C12.3602 6.12962 12.375 6.06539 12.375 6.00031C12.375 5.93523 12.3602 5.87101 12.3316 5.81253C12.3031 5.75404 12.2616 5.70284 12.2103 5.66281Z" fill="#6ADDDD"/>
<path id="Vector_2" d="M6.21027 5.66281L0.172769 0.947189C0.156993 0.934768 0.138033 0.92705 0.118068 0.924919C0.0981026 0.922788 0.0779412 0.926332 0.0598992 0.935143C0.0418571 0.943955 0.0266664 0.957676 0.0160712 0.974732C0.00547591 0.991787 -9.40343e-05 1.01149 1.20111e-06 1.03156V2.06683C1.20111e-06 2.13246 0.0308049 2.1954 0.0816977 2.23558L4.90313 6.00031L0.0816977 9.76505C0.0294656 9.80522 1.20111e-06 9.86817 1.20111e-06 9.9338V10.9691C1.20111e-06 11.0588 0.103126 11.1083 0.172769 11.0534L6.21027 6.33781C6.26158 6.29779 6.3031 6.24658 6.33165 6.1881C6.3602 6.12962 6.37504 6.06539 6.37504 6.00031C6.37504 5.93523 6.3602 5.87101 6.33165 5.81253C6.3031 5.75404 6.26158 5.70284 6.21027 5.66281Z" fill="#6ADDDD"/>
</g>
</svg>
