<svg width="231" height="199" viewBox="0 0 231 199" fill="none" xmlns="http://www.w3.org/2000/svg">
<g id="actionDone 1" clip-path="url(#clip0_1339_2659)">
<path id="Path 438" d="M17.3461 182.62C18.6772 183.09 20.1063 183.208 21.4959 182.962C22.8854 182.716 24.1885 182.116 25.2796 181.218C28.0583 178.876 28.9296 175.02 29.6383 171.448L31.735 160.883L27.3454 163.917C24.1885 166.1 20.9606 168.352 18.775 171.513C16.5893 174.673 15.6358 178.988 17.3914 182.408" fill="#E6E6E6"/>
<path id="Path 439" d="M18.0238 196.147C17.4713 192.106 16.9029 188.012 17.2914 183.928C17.6356 180.301 18.738 176.758 20.9822 173.853C22.1735 172.314 23.623 170.995 25.2656 169.956C25.6938 169.685 26.0881 170.366 25.6617 170.636C22.8194 172.439 20.621 175.102 19.3833 178.241C18.0165 181.731 17.797 185.535 18.0325 189.243C18.1748 191.485 18.4772 193.712 18.7809 195.937C18.8049 196.037 18.7899 196.143 18.739 196.233C18.6881 196.323 18.6051 196.39 18.5067 196.421C18.4064 196.448 18.2995 196.435 18.2091 196.383C18.1187 196.332 18.0523 196.246 18.0241 196.146L18.0238 196.147Z" fill="#F2F2F2"/>
<path id="Path 442" d="M22.0006 189.662C22.5714 190.534 23.3561 191.243 24.279 191.721C25.202 192.199 26.2322 192.431 27.2702 192.394C29.9385 192.267 32.1621 190.398 34.1636 188.623L40.0848 183.374L36.1661 183.186C33.3479 183.051 30.457 182.924 27.7728 183.797C25.0885 184.67 22.613 186.769 22.1223 189.559" fill="#E6E6E6"/>
<path id="Path 443" d="M16.4621 198.469C19.1221 193.745 22.2071 188.493 27.72 186.815C29.2527 186.35 30.8598 186.183 32.4549 186.324C32.9577 186.368 32.8321 187.146 32.3304 187.102C29.6566 186.88 26.988 187.588 24.7739 189.109C22.6432 190.565 20.9841 192.59 19.5801 194.736C18.72 196.051 17.9496 197.422 17.1792 198.79C16.933 199.228 16.2131 198.912 16.4621 198.469Z" fill="#F2F2F2"/>
<path id="Path 141" d="M229.296 140.141H82.6505C82.1986 140.141 81.7654 139.96 81.4459 139.64C81.1264 139.319 80.9466 138.884 80.946 138.43V1.71113C80.9466 1.25749 81.1264 0.822601 81.4459 0.501832C81.7654 0.181063 82.1986 0.000593016 82.6505 0H229.296C229.747 0.000593016 230.181 0.181063 230.5 0.501832C230.82 0.822601 230.999 1.25749 231 1.71113V138.43C230.999 138.884 230.82 139.319 230.5 139.639C230.181 139.96 229.747 140.141 229.296 140.141Z" fill="white"/>
<path id="Path 141_2" d="M229.296 140.141H82.6505C82.1986 140.141 81.7654 139.96 81.4459 139.64C81.1264 139.319 80.9466 138.884 80.946 138.43V1.71113C80.9466 1.25749 81.1264 0.822601 81.4459 0.501832C81.7654 0.181063 82.1986 0.000593016 82.6505 0H229.296C229.747 0.000593016 230.181 0.181063 230.5 0.501832C230.82 0.822601 230.999 1.25749 231 1.71113V138.43C230.999 138.884 230.82 139.319 230.5 139.639C230.181 139.96 229.747 140.141 229.296 140.141ZM82.6505 0.683102C82.3797 0.683692 82.1201 0.791957 81.9286 0.984199C81.7371 1.17644 81.6293 1.43701 81.6287 1.70888V138.43C81.6293 138.702 81.7371 138.962 81.9286 139.155C82.1201 139.347 82.3797 139.455 82.6505 139.456H229.296C229.566 139.455 229.826 139.347 230.017 139.155C230.209 138.962 230.317 138.702 230.317 138.43V1.71113C230.317 1.43925 230.209 1.17869 230.017 0.986444C229.826 0.794202 229.566 0.685938 229.296 0.685347L82.6505 0.683102Z" fill="#CACACA"/>
<path id="Path 142" d="M151.943 35.5269C151.636 35.5274 151.343 35.6501 151.126 35.8679C150.909 36.0857 150.788 36.3808 150.788 36.6886C150.788 36.9964 150.909 37.2915 151.126 37.5093C151.343 37.7271 151.636 37.8498 151.943 37.8503H215.438C215.745 37.8498 216.039 37.7271 216.255 37.5093C216.472 37.2915 216.593 36.9964 216.593 36.6886C216.593 36.3808 216.472 36.0857 216.255 35.8679C216.039 35.6501 215.745 35.5274 215.438 35.5269H151.943Z" fill="#E4E4E4"/>
<path id="Path 143" d="M151.943 42.4977C151.637 42.4984 151.343 42.6211 151.127 42.8389C150.91 43.0567 150.789 43.3518 150.789 43.6594C150.789 43.967 150.91 44.262 151.127 44.4798C151.343 44.6976 151.637 44.8203 151.943 44.8211H184.359C184.665 44.8203 184.959 44.6976 185.175 44.4798C185.391 44.262 185.513 43.967 185.513 43.6594C185.513 43.3518 185.391 43.0567 185.175 42.8389C184.959 42.6211 184.665 42.4984 184.359 42.4977H151.943Z" fill="#E4E4E4"/>
<path id="Path 142_2" d="M96.4461 79.9841C96.1397 79.9849 95.8461 80.1076 95.6297 80.3254C95.4133 80.5432 95.2917 80.8382 95.2917 81.1458C95.2917 81.4534 95.4133 81.7485 95.6297 81.9663C95.8461 82.184 96.1397 82.3068 96.4461 82.3075H215.5C215.806 82.3068 216.1 82.184 216.316 81.9663C216.533 81.7485 216.654 81.4534 216.654 81.1458C216.654 80.8382 216.533 80.5432 216.316 80.3254C216.1 80.1076 215.806 79.9849 215.5 79.9841H96.4461Z" fill="#E4E4E4"/>
<path id="Path 143_2" d="M96.4461 86.955C96.1397 86.9557 95.8461 87.0784 95.6297 87.2962C95.4133 87.514 95.2917 87.809 95.2917 88.1166C95.2917 88.4243 95.4133 88.7193 95.6297 88.9371C95.8461 89.1549 96.1397 89.2776 96.4461 89.2783H184.42C184.727 89.2776 185.02 89.1549 185.237 88.9371C185.453 88.7193 185.575 88.4243 185.575 88.1166C185.575 87.809 185.453 87.514 185.237 87.2962C185.02 87.0784 184.727 86.9557 184.42 86.955H96.4461Z" fill="#E4E4E4"/>
<path id="Path 142_3" d="M96.4461 93.768C96.1397 93.7688 95.8461 93.8915 95.6297 94.1092C95.4133 94.327 95.2917 94.6221 95.2917 94.9297C95.2917 95.2373 95.4133 95.5324 95.6297 95.7501C95.8461 95.9679 96.1397 96.0906 96.4461 96.0914H215.5C215.806 96.0906 216.1 95.9679 216.316 95.7501C216.533 95.5324 216.654 95.2373 216.654 94.9297C216.654 94.6221 216.533 94.327 216.316 94.1092C216.1 93.8915 215.806 93.7688 215.5 93.768H96.4461Z" fill="#E4E4E4"/>
<path id="Path 143_3" d="M96.4461 100.739C96.1397 100.74 95.8461 100.862 95.6297 101.08C95.4133 101.298 95.2917 101.593 95.2917 101.9C95.2917 102.208 95.4133 102.503 95.6297 102.721C95.8461 102.939 96.1397 103.061 96.4461 103.062H184.42C184.727 103.061 185.02 102.939 185.237 102.721C185.453 102.503 185.575 102.208 185.575 101.9C185.575 101.593 185.453 101.298 185.237 101.08C185.02 100.862 184.727 100.74 184.42 100.739H96.4461Z" fill="#E4E4E4"/>
<path id="Path 142_4" d="M96.4461 107.733C96.1397 107.734 95.8461 107.857 95.6297 108.075C95.4133 108.292 95.2917 108.587 95.2917 108.895C95.2917 109.203 95.4133 109.498 95.6297 109.715C95.8461 109.933 96.1397 110.056 96.4461 110.057H215.5C215.806 110.056 216.1 109.933 216.316 109.715C216.533 109.498 216.654 109.203 216.654 108.895C216.654 108.587 216.533 108.292 216.316 108.075C216.1 107.857 215.806 107.734 215.5 107.733H96.4461Z" fill="#E4E4E4"/>
<path id="Path 143_4" d="M96.4461 114.704C96.1397 114.705 95.8461 114.828 95.6297 115.045C95.4133 115.263 95.2917 115.558 95.2917 115.866C95.2917 116.173 95.4133 116.468 95.6297 116.686C95.8461 116.904 96.1397 117.027 96.4461 117.027H184.42C184.727 117.027 185.02 116.904 185.237 116.686C185.453 116.468 185.575 116.173 185.575 115.866C185.575 115.558 185.453 115.263 185.237 115.045C185.02 114.828 184.727 114.705 184.42 114.704H96.4461Z" fill="#E4E4E4"/>
<path id="Vector" d="M115.303 56.8642C112.015 56.8643 108.801 55.8854 106.067 54.0515C103.333 52.2176 101.202 49.6109 99.9433 46.5611C98.685 43.5114 98.3557 40.1555 98.9972 36.9179C99.6386 33.6803 101.222 30.7064 103.547 28.3722C105.872 26.038 108.834 24.4484 112.059 23.8044C115.284 23.1603 118.627 23.4909 121.665 24.7541C124.703 26.0174 127.299 28.1566 129.126 30.9013C130.953 33.646 131.928 36.8729 131.928 40.1739C131.923 44.5989 130.17 48.8412 127.053 51.9701C123.936 55.0991 119.711 56.8592 115.303 56.8642Z" fill="#6ADDDD"/>
<path id="Vector_2" d="M64.8371 119.971C64.8083 119.362 64.6469 118.767 64.3641 118.227C64.0813 117.687 63.6841 117.216 63.2004 116.847C62.7167 116.478 62.1583 116.22 61.5645 116.091C60.9708 115.962 60.3561 115.966 59.7637 116.101L54.2685 108.326L48.7478 110.527L56.6617 121.397C56.9543 122.38 57.5962 123.222 58.4658 123.763C59.3354 124.304 60.3723 124.505 61.38 124.329C62.3877 124.154 63.2962 123.613 63.9334 122.81C64.5705 122.007 64.8921 120.997 64.8371 119.971Z" fill="#A0616A"/>
<path id="Vector_3" d="M54.127 119.395L37.4993 97.7394L43.7295 78.0819C44.1861 73.1398 47.2666 71.7598 47.3977 71.7034L47.5976 71.6172L53.0191 86.1316L49.0385 96.7883L58.8088 113.285L54.127 119.395Z" fill="#3F3D56"/>
<path id="Vector_4" d="M111.872 52.6377C111.27 52.7136 110.691 52.9213 110.176 53.246C109.662 53.5708 109.225 54.0048 108.896 54.5175C108.567 55.0301 108.354 55.609 108.272 56.2133C108.19 56.8176 108.241 57.4326 108.421 58.015L101.125 64.1164L103.737 69.472L113.92 60.7104C114.874 60.3415 115.661 59.6339 116.131 58.7217C116.6 57.8095 116.72 56.7561 116.468 55.7611C116.215 54.766 115.608 53.8985 114.761 53.3228C113.914 52.7472 112.886 52.5034 111.872 52.6377Z" fill="#A0616A"/>
<path id="Vector_5" d="M112.128 63.4022L91.9072 81.7195L71.9034 77.0033C66.96 76.9285 65.3513 73.9518 65.2852 73.825L65.1842 73.6315L79.1794 67.0829L90.0705 70.2432L105.698 59.1884L112.128 63.4022Z" fill="#3F3D56"/>
<path id="Vector_6" d="M77.1023 193.62L82.5353 193.62L85.1197 172.582L77.1013 172.582L77.1023 193.62Z" fill="#A0616A"/>
<path id="Vector_7" d="M93.0133 198.684L75.9383 198.685L75.938 192.062L88.2226 192.061C89.4931 192.061 90.7116 192.568 91.61 193.469C92.5084 194.371 93.0132 195.595 93.0132 196.87L93.0133 198.684Z" fill="#2F2E41"/>
<path id="Vector_8" d="M55.3876 193.62L60.8207 193.62L63.4053 172.582L55.387 172.582L55.3876 193.62Z" fill="#A0616A"/>
<path id="Vector_9" d="M71.2988 198.684L54.2238 198.685L54.2235 192.062L66.5081 192.061C67.1372 192.061 67.7601 192.185 68.3413 192.427C68.9225 192.669 69.4507 193.023 69.8955 193.469C70.3404 193.916 70.6932 194.446 70.934 195.03C71.1748 195.613 71.2987 196.238 71.2987 196.87L71.2988 198.684Z" fill="#2F2E41"/>
<path id="Vector_10" d="M53.4554 116.829L53.8986 147.971L54.342 188.901L64.0911 188.012L68.966 131.511L75.1702 188.012H85.2351L86.2489 131.066L82.7037 118.609L53.4554 116.829Z" fill="#2F2E41"/>
<path id="Vector_11" d="M72.5374 121.011C61.9295 121.012 52.165 116.192 52.0332 116.126L51.9237 116.071L51.0335 94.6233C50.7753 93.8654 45.6922 78.9103 44.8313 74.1568C43.959 69.3409 56.6006 65.1143 58.1358 64.62L58.4842 60.7458L72.6506 59.2133L74.4462 64.1705L79.5285 66.0837C80.1047 66.3008 80.5815 66.7225 80.8687 67.2689C81.1558 67.8154 81.2333 68.4486 81.0865 69.0486L78.2618 80.5806L85.1607 118.734L83.6754 118.799C80.1153 120.413 76.273 121.011 72.5374 121.011Z" fill="#3F3D56"/>
<path id="Vector_12" d="M71.0145 55.5047C75.9574 52.792 77.774 46.5702 75.0719 41.6079C72.3699 36.6456 66.1724 34.8219 61.2295 37.5346C56.2866 40.2472 54.47 46.469 57.172 51.4313C59.8741 56.3936 66.0716 58.2173 71.0145 55.5047Z" fill="#A0616A"/>
<path id="Vector_13" d="M57.8607 56.4327C59.8046 58.5114 63.4146 57.3955 63.6679 54.5556C63.6878 54.3352 63.6863 54.1133 63.6636 53.8931C63.5328 52.6351 62.8089 51.4931 62.9823 50.1649C63.0216 49.8343 63.1442 49.5193 63.3387 49.2496C64.8877 47.1672 68.5239 50.181 69.9858 48.2959C70.8822 47.14 69.8285 45.32 70.5164 44.0281C71.4243 42.323 74.1135 43.1641 75.7999 42.2303C77.6762 41.1913 77.564 38.3012 76.3288 36.5433C74.8226 34.3994 72.1816 33.2555 69.5735 33.0906C66.9654 32.9258 64.3753 33.6336 61.9404 34.5862C59.1739 35.6685 56.4305 37.1644 54.728 39.6065C52.6576 42.5765 52.4584 46.5692 53.4938 50.042C54.1237 52.1545 56.2734 54.7352 57.8607 56.4327Z" fill="#2F2E41"/>
<path id="Vector_14" d="M129.608 198.948H0.339287C0.249303 198.948 0.162998 198.912 0.0993696 198.848C0.0357408 198.784 0 198.697 0 198.607C0 198.517 0.0357408 198.43 0.0993696 198.366C0.162998 198.302 0.249303 198.266 0.339287 198.266H129.608C129.698 198.266 129.784 198.302 129.848 198.366C129.911 198.43 129.947 198.517 129.947 198.607C129.947 198.697 129.911 198.784 129.848 198.848C129.784 198.912 129.698 198.948 129.608 198.948Z" fill="#CACACA"/>
<path id="Vector_15" d="M114.343 46.4778C114.043 46.4782 113.754 46.3643 113.535 46.1592L108.053 41.0474C107.823 40.8321 107.687 40.5339 107.675 40.2181C107.664 39.9023 107.778 39.5949 107.992 39.3634C108.206 39.1319 108.503 38.9952 108.818 38.9834C109.132 38.9716 109.438 39.0856 109.669 39.3004L114.313 43.6303L123.499 34.4077C123.61 34.2963 123.74 34.2078 123.885 34.1473C124.029 34.0869 124.184 34.0556 124.34 34.0553C124.496 34.055 124.651 34.0857 124.796 34.1456C124.94 34.2056 125.072 34.2936 125.182 34.4046C125.293 34.5155 125.38 34.6474 125.44 34.7924C125.5 34.9375 125.53 35.0929 125.53 35.2499C125.529 35.4068 125.498 35.5622 125.438 35.707C125.378 35.8518 125.29 35.9833 125.179 36.0938L115.183 46.1287C115.073 46.2396 114.942 46.3274 114.798 46.3874C114.653 46.4473 114.499 46.478 114.343 46.4778Z" fill="white"/>
</g>
<defs>
<clipPath id="clip0_1339_2659">
<rect width="231" height="199" fill="white"/>
</clipPath>
</defs>
</svg>
