<svg width="238" height="164" viewBox="0 0 238 164" fill="none" xmlns="http://www.w3.org/2000/svg">
<g id="Group 27">
<path id="Vector" d="M230.854 158.777H0V159.822H230.854V158.777Z" fill="#E6E6E6"/>
<path id="Vector_2" d="M232.943 164C235.25 164 237.121 161.895 237.121 159.299C237.121 156.703 235.25 154.599 232.943 154.599C230.635 154.599 228.764 156.703 228.764 159.299C228.764 161.895 230.635 164 232.943 164Z" fill="#E6E6E6"/>
<path id="Vector_3" d="M125.599 159.822H34.2232C33.4582 159.821 32.7247 159.518 32.1838 158.98C31.6428 158.442 31.3385 157.712 31.3376 156.951V2.87105C31.3385 2.10986 31.6428 1.3801 32.1838 0.841857C32.7247 0.303617 33.4582 0.000857842 34.2232 0H125.599C126.364 0.000857842 127.097 0.303617 127.638 0.841857C128.179 1.3801 128.483 2.10986 128.484 2.87105V156.951C128.483 157.712 128.179 158.442 127.638 158.98C127.097 159.518 126.364 159.821 125.599 159.822ZM34.2232 0.638011C33.6282 0.638701 33.0577 0.874188 32.637 1.29281C32.2162 1.71144 31.9796 2.27902 31.9789 2.87105V156.951C31.9796 157.543 32.2162 158.11 32.637 158.529C33.0577 158.947 33.6282 159.183 34.2232 159.184H125.599C126.194 159.183 126.764 158.947 127.185 158.529C127.606 158.11 127.842 157.543 127.843 156.951V2.87105C127.842 2.27902 127.606 1.71144 127.185 1.29281C126.764 0.874188 126.194 0.638701 125.599 0.638011H34.2232Z" fill="#E6E6E6"/>
<path id="Vector_4" d="M92.6417 9.40128H67.1799C67.0934 9.40128 67.0103 9.34625 66.9491 9.2483C66.8879 9.15035 66.8535 9.0175 66.8535 8.87898C66.8535 8.74046 66.8879 8.60761 66.9491 8.50967C67.0103 8.41172 67.0934 8.35669 67.1799 8.35669H92.6417C92.7283 8.35669 92.8114 8.41172 92.8726 8.50967C92.9338 8.60761 92.9682 8.74046 92.9682 8.87898C92.9682 9.0175 92.9338 9.15035 92.8726 9.2483C92.8114 9.34625 92.7283 9.40128 92.6417 9.40128Z" fill="#E6E6E6"/>
<path id="Vector_5" d="M115.155 148.331H44.667C43.9025 148.33 43.1696 148.028 42.629 147.491C42.0884 146.953 41.7843 146.225 41.7834 145.465V20.6242C41.7843 19.8643 42.0884 19.1358 42.629 18.5984C43.1696 18.0611 43.9025 17.7589 44.667 17.758H115.155C115.919 17.7589 116.652 18.0611 117.193 18.5984C117.733 19.1358 118.037 19.8643 118.038 20.6242V145.465C118.037 146.225 117.733 146.953 117.193 147.491C116.652 148.028 115.919 148.33 115.155 148.331ZM44.667 18.3949C44.0724 18.3956 43.5024 18.6307 43.0819 19.0486C42.6615 19.4666 42.4249 20.0332 42.4242 20.6242V145.465C42.4249 146.056 42.6615 146.623 43.0819 147.041C43.5024 147.459 44.0724 147.694 44.667 147.694H115.155C115.749 147.694 116.319 147.459 116.74 147.041C117.16 146.623 117.397 146.056 117.397 145.465V20.6242C117.397 20.0332 117.16 19.4666 116.74 19.0486C116.319 18.6307 115.749 18.3956 115.155 18.3949H44.667Z" fill="#E6E6E6"/>
<path id="Vector_6" d="M129.006 32.3822C128.591 32.3818 128.193 32.2402 127.899 31.9884C127.605 31.7366 127.44 31.3952 127.439 31.0392V25.3686C127.439 25.0124 127.605 24.6707 127.898 24.4189C128.192 24.167 128.591 24.0255 129.006 24.0255C129.422 24.0255 129.82 24.167 130.114 24.4189C130.408 24.6707 130.573 25.0124 130.573 25.3686V31.0392C130.573 31.3952 130.408 31.7366 130.114 31.9884C129.82 32.2402 129.422 32.3818 129.006 32.3822ZM129.006 24.6224C128.776 24.6226 128.554 24.7013 128.391 24.8412C128.228 24.9811 128.136 25.1707 128.136 25.3686V31.0392C128.136 31.237 128.228 31.4268 128.391 31.5668C128.554 31.7067 128.775 31.7853 129.006 31.7853C129.237 31.7853 129.459 31.7067 129.622 31.5668C129.785 31.4268 129.877 31.237 129.877 31.0392V25.3686C129.877 25.1707 129.785 24.9811 129.622 24.8412C129.458 24.7013 129.237 24.6226 129.006 24.6224Z" fill="#E6E6E6"/>
<path id="Vector_7" d="M129.006 42.828C128.591 42.8276 128.193 42.6683 127.899 42.385C127.605 42.1018 127.44 41.7177 127.439 41.3171V34.9377C127.439 34.537 127.605 34.1526 127.898 33.8693C128.192 33.5859 128.591 33.4268 129.006 33.4268C129.422 33.4268 129.82 33.5859 130.114 33.8693C130.408 34.1526 130.573 34.537 130.573 34.9377V41.3171C130.573 41.7177 130.408 42.1018 130.114 42.385C129.82 42.6683 129.422 42.8276 129.006 42.828ZM129.006 34.0983C128.776 34.0985 128.554 34.187 128.391 34.3444C128.228 34.5018 128.136 34.7151 128.136 34.9377V41.3171C128.136 41.5397 128.228 41.7532 128.391 41.9107C128.554 42.0681 128.775 42.1565 129.006 42.1565C129.237 42.1565 129.459 42.0681 129.622 41.9107C129.785 41.7532 129.877 41.5397 129.877 41.3171V34.9377C129.877 34.7151 129.785 34.5018 129.622 34.3444C129.458 34.187 129.237 34.0985 129.006 34.0983Z" fill="#E6E6E6"/>
<path id="Vector_8" d="M103.607 67.8981H56.2141C55.7113 67.8981 55.2291 67.678 54.8736 67.2862C54.5181 66.8944 54.3184 66.363 54.3184 65.8089C54.3184 65.2548 54.5181 64.7234 54.8736 64.3316C55.2291 63.9398 55.7113 63.7197 56.2141 63.7197H103.607C104.11 63.7197 104.592 63.9398 104.948 64.3316C105.303 64.7234 105.503 65.2548 105.503 65.8089C105.503 66.363 105.303 66.8944 104.948 67.2862C104.592 67.678 104.11 67.8981 103.607 67.8981Z" fill="#CCCCCC"/>
<path id="Vector_9" d="M103.607 76.2548H56.2141C55.7113 76.2548 55.2291 76.0347 54.8736 75.6429C54.5181 75.2511 54.3184 74.7197 54.3184 74.1656C54.3184 73.6115 54.5181 73.0801 54.8736 72.6883C55.2291 72.2965 55.7113 72.0764 56.2141 72.0764H103.607C104.11 72.0764 104.592 72.2965 104.948 72.6883C105.303 73.0801 105.503 73.6115 105.503 74.1656C105.503 74.7197 105.303 75.2511 104.948 75.6429C104.592 76.0347 104.11 76.2548 103.607 76.2548Z" fill="#CCCCCC"/>
<path id="Vector_10" d="M103.607 84.6114H56.2141C55.7113 84.6114 55.2291 84.3913 54.8736 83.9995C54.5181 83.6078 54.3184 83.0764 54.3184 82.5223C54.3184 81.9682 54.5181 81.4368 54.8736 81.045C55.2291 80.6532 55.7113 80.4331 56.2141 80.4331H103.607C104.11 80.4331 104.592 80.6532 104.948 81.045C105.303 81.4368 105.503 81.9682 105.503 82.5223C105.503 83.0764 105.303 83.6078 104.948 83.9995C104.592 84.3913 104.11 84.6114 103.607 84.6114Z" fill="#CCCCCC"/>
<path id="Vector_11" d="M86.4118 58.4968H71.3204C70.4127 58.4968 69.5422 58.1667 68.9003 57.579C68.2585 56.9913 67.8979 56.1942 67.8979 55.3631C67.8979 54.5319 68.2585 53.7349 68.9003 53.1472C69.5422 52.5595 70.4127 52.2293 71.3204 52.2293H86.4118C87.3195 52.2293 88.19 52.5595 88.8319 53.1472C89.4737 53.7349 89.8343 54.5319 89.8343 55.3631C89.8343 56.1942 89.4737 56.9913 88.8319 57.579C88.19 58.1667 87.3195 58.4968 86.4118 58.4968Z" fill="#6ADDDD"/>
<path id="Vector_12" d="M65.2866 113.86C63.9437 113.86 62.631 113.462 61.5144 112.716C60.3978 111.97 59.5276 110.909 59.0137 109.668C58.4998 108.428 58.3653 107.063 58.6273 105.745C58.8893 104.428 59.5359 103.219 60.4855 102.269C61.4351 101.319 62.6449 100.673 63.962 100.411C65.2791 100.149 66.6443 100.283 67.885 100.797C69.1257 101.311 70.1861 102.181 70.9322 103.298C71.6782 104.414 72.0764 105.727 72.0764 107.07C72.0744 108.87 71.3584 110.596 70.0855 111.869C68.8126 113.142 67.0868 113.858 65.2866 113.86ZM65.2866 100.995C64.0851 100.995 62.9105 101.351 61.9115 102.019C60.9125 102.686 60.1338 103.635 59.674 104.745C59.2142 105.855 59.0939 107.077 59.3283 108.255C59.5627 109.434 60.1413 110.516 60.9909 111.366C61.8405 112.215 62.923 112.794 64.1014 113.028C65.2799 113.263 66.5014 113.143 67.6115 112.683C68.7215 112.223 69.6703 111.444 70.3379 110.445C71.0054 109.446 71.3617 108.272 71.3617 107.07C71.3617 106.272 71.2046 105.482 70.8993 104.745C70.594 104.008 70.1465 103.338 69.5824 102.774C69.0183 102.21 68.3485 101.763 67.6115 101.457C66.8744 101.152 66.0844 100.995 65.2866 100.995Z" fill="#E6E6E6"/>
<path id="Vector_13" d="M65.1967 108.637C65.0853 108.637 64.975 108.618 64.8721 108.58C64.7692 108.542 64.6757 108.487 64.597 108.418L61.8791 106.025C61.8002 105.955 61.7377 105.873 61.695 105.782C61.6523 105.692 61.6304 105.595 61.6304 105.496C61.6304 105.398 61.6524 105.301 61.6951 105.211C61.7378 105.12 61.8003 105.038 61.8792 104.968L62.0198 104.844C62.1792 104.704 62.395 104.626 62.62 104.626C62.845 104.626 63.0608 104.704 63.2202 104.844L64.6292 106.084C64.6817 106.131 64.7451 106.166 64.8149 106.189C64.8846 106.211 64.9591 106.22 65.0331 106.214C65.1071 106.208 65.1788 106.189 65.2432 106.156C65.3076 106.123 65.3631 106.079 65.4059 106.025L71.4145 98.5081C71.5442 98.3461 71.7416 98.2361 71.9633 98.2022C72.1851 98.1682 72.413 98.2132 72.5972 98.3271L72.7606 98.4284C72.8518 98.4849 72.9294 98.5566 72.989 98.6395C73.0487 98.7224 73.0892 98.8148 73.1083 98.9115C73.1274 99.0082 73.1246 99.1072 73.1002 99.203C73.0758 99.2987 73.0302 99.3893 72.966 99.4696L65.8913 108.32C65.8202 108.409 65.7277 108.483 65.6203 108.538C65.5129 108.592 65.3933 108.625 65.27 108.634C65.2454 108.636 65.221 108.637 65.1967 108.637Z" fill="#6ADDDD"/>
<path id="Vector_14" d="M92.4458 113.86C91.1029 113.86 89.7902 113.462 88.6736 112.716C87.557 111.97 86.6868 110.909 86.1729 109.668C85.6589 108.428 85.5245 107.063 85.7865 105.745C86.0485 104.428 86.6951 103.219 87.6447 102.269C88.5943 101.319 89.8041 100.673 91.1212 100.411C92.4383 100.149 93.8035 100.283 95.0442 100.797C96.2848 101.311 97.3453 102.181 98.0913 103.298C98.8374 104.414 99.2356 105.727 99.2356 107.07C99.2336 108.87 98.5176 110.596 97.2447 111.869C95.9718 113.142 94.246 113.858 92.4458 113.86ZM92.4458 100.995C91.2443 100.995 90.0697 101.351 89.0707 102.019C88.0716 102.686 87.293 103.635 86.8332 104.745C86.3734 105.855 86.253 107.077 86.4874 108.255C86.7219 109.434 87.3005 110.516 88.1501 111.366C88.9997 112.215 90.0822 112.794 91.2606 113.028C92.4391 113.263 93.6606 113.143 94.7706 112.683C95.8807 112.223 96.8295 111.444 97.4971 110.445C98.1646 109.446 98.5209 108.272 98.5209 107.07C98.5209 106.272 98.3638 105.482 98.0585 104.745C97.7532 104.008 97.3057 103.338 96.7416 102.774C96.1774 102.21 95.5077 101.763 94.7706 101.457C94.0336 101.152 93.2436 100.995 92.4458 100.995Z" fill="#E6E6E6"/>
<path id="Vector_15" d="M95.1581 109.682H95.1569C95.0539 109.682 94.9518 109.661 94.8567 109.622C94.7616 109.582 94.6752 109.524 94.6028 109.45L93.3014 108.142C93.2118 108.056 93.0924 108.008 92.9683 108.008C92.8441 108.008 92.7248 108.056 92.635 108.142L91.3337 109.451C91.2612 109.524 91.1748 109.582 91.0797 109.622C90.9846 109.661 90.8826 109.682 90.7796 109.682H90.7783C90.6755 109.682 90.5736 109.662 90.4785 109.622C90.3835 109.583 90.2972 109.525 90.2246 109.452L90.0946 109.322C89.9476 109.175 89.8649 108.975 89.8646 108.767C89.8642 108.558 89.9463 108.358 90.0928 108.211L91.3999 106.896C91.4876 106.807 91.5368 106.688 91.5367 106.563C91.5367 106.438 91.4875 106.319 91.3997 106.23L90.0629 104.885C89.9163 104.737 89.8342 104.537 89.8345 104.329C89.8348 104.121 89.9175 103.921 90.0644 103.774L90.1948 103.643C90.2674 103.57 90.3536 103.513 90.4486 103.473C90.5436 103.434 90.6455 103.414 90.7483 103.414H90.7496C90.8526 103.414 90.9546 103.434 91.0498 103.474C91.1449 103.514 91.2312 103.572 91.3037 103.645L92.635 104.984C92.7248 105.07 92.8441 105.118 92.9682 105.118C93.0924 105.118 93.2117 105.07 93.3015 104.984L94.6328 103.645C94.7053 103.572 94.7916 103.514 94.8867 103.474C94.9819 103.434 95.0839 103.414 95.1869 103.414H95.1882C95.291 103.414 95.3929 103.434 95.488 103.473C95.583 103.513 95.6693 103.571 95.7419 103.644L95.872 103.774C96.019 103.921 96.1017 104.121 96.102 104.329C96.1023 104.537 96.0201 104.737 95.8736 104.885L94.5366 106.23C94.4489 106.318 94.3997 106.438 94.3997 106.563C94.3997 106.688 94.4489 106.807 94.5366 106.896L95.8436 108.211C95.9901 108.358 96.0723 108.558 96.072 108.767C96.0717 108.975 95.989 109.175 95.842 109.322L95.7117 109.452C95.6391 109.525 95.5528 109.583 95.4578 109.622C95.3628 109.662 95.2609 109.682 95.1581 109.682Z" fill="#CCCCCC"/>
<path id="Vector_16" d="M186.981 155.643H191.227L193.248 139.974H186.981V155.643Z" fill="#A0616A"/>
<path id="Vector_17" d="M198.471 159.822H185.936V154.599H193.695C194.322 154.599 194.943 154.732 195.523 154.991C196.102 155.25 196.629 155.629 197.072 156.107C197.516 156.586 197.868 157.153 198.108 157.778C198.348 158.403 198.471 159.073 198.471 159.749V159.822Z" fill="#2F2E41"/>
<path id="Vector_18" d="M188.025 130.802L185.189 133.707L172.357 124.415L176.542 120.127L188.025 130.802Z" fill="#A0616A"/>
<path id="Vector_19" d="M182.497 135.543L187.96 129.808L191.54 133.218L182.714 142.484L182.664 142.436C181.728 141.544 181.184 140.317 181.153 139.024C181.121 137.732 181.605 136.48 182.497 135.543Z" fill="#2F2E41"/>
<path id="Vector_20" d="M216.776 88.2383C217.031 87.8255 217.193 87.3614 217.25 86.8788C217.308 86.3961 217.26 85.9066 217.109 85.4448C216.959 84.9829 216.709 84.5599 216.379 84.2056C216.049 83.8513 215.646 83.5743 215.198 83.394L199.404 42.828L193.248 46.5428L210.792 85.4597C210.542 86.2382 210.583 87.0823 210.909 87.832C211.235 88.5818 211.822 89.185 212.56 89.5275C213.297 89.8701 214.134 89.928 214.911 89.6904C215.688 89.4528 216.352 88.9361 216.776 88.2383Z" fill="#A0616A"/>
<path id="Vector_21" d="M156.14 90.8688C156.628 90.834 157.103 90.6928 157.531 90.4552C157.959 90.2177 158.329 89.8895 158.616 89.4938C158.902 89.0982 159.099 88.6446 159.191 88.1652C159.283 87.6857 159.268 87.192 159.148 86.7188L182.803 49.8574L176.103 47.0064L154.837 84.3292C154.053 84.5831 153.389 85.115 152.972 85.824C152.555 86.5329 152.413 87.3698 152.574 88.1759C152.735 88.982 153.186 89.7013 153.843 90.1977C154.501 90.694 155.318 90.9328 156.14 90.8688Z" fill="#A0616A"/>
<path id="Vector_22" d="M198.471 84.4023L194.344 146.242L184.481 145.365L182.45 99.7413L176.938 119.336L165.044 120.213L169.752 81.4777L198.471 84.4023Z" fill="#2F2E41"/>
<path id="Vector_23" d="M175.227 115.949L176.957 118.988L189.07 127.8L180.418 132.662C180.418 132.662 163.691 122.938 165.133 119.899L175.227 115.949Z" fill="#2F2E41"/>
<path id="Vector_24" d="M207.872 58.7629L204.401 49.0417C203.628 46.879 202.432 44.8899 200.88 43.1897C199.329 41.4894 197.454 40.1117 195.363 39.1362C190.664 37.4162 185.553 37.1382 180.693 38.3384C180.294 38.4369 179.873 38.5408 179.43 38.6499C176.061 39.4615 172.904 40.9765 170.17 43.0941C168.03 44.7697 166.106 46.8915 165.935 49.1736C165.933 49.1785 165.931 49.1829 165.93 49.1878C165.338 51.7682 165.044 65.1748 165.044 65.1748H170.271L169.445 83.2445L169.511 83.1137C169.511 83.1137 199.659 88.782 199.659 85.8675V67.2149L200.277 60.4609L207.872 58.7629Z" fill="#6ADDDD"/>
<path id="Vector_25" d="M179.669 35.5159C184.284 35.5159 188.025 31.7744 188.025 27.1592C188.025 22.5439 184.284 18.8025 179.669 18.8025C175.053 18.8025 171.312 22.5439 171.312 27.1592C171.312 31.7744 175.053 35.5159 179.669 35.5159Z" fill="#A0616A"/>
<path id="Vector_26" d="M178.584 24.1254L171.298 24.102C170.452 24.0992 169.528 24.0689 168.883 23.5122C167.912 22.6739 168.074 21.092 168.594 19.9104C170.043 16.6202 173.638 14.5307 177.186 14.6274C180.735 14.7242 184.095 16.8564 186.007 19.8929C187.919 22.9293 188.435 26.7642 187.715 30.293C186.883 28.4987 185.601 26.9574 183.998 25.823C182.396 24.6887 180.528 24.0008 178.582 23.8282L178.584 24.1254Z" fill="#2F2E41"/>
</g>
</svg>
