<svg width="119" height="119" viewBox="0 0 119 119" fill="none" xmlns="http://www.w3.org/2000/svg">
<path id="Vector" d="M0.0105743 117.226L3.45986 77.8492C3.57484 76.5446 4.73897 75.9911 5.41446 76.9202L13.9371 88.6621L52.9284 35.0526C53.8338 33.827 55.2854 33.827 56.1764 35.0526L70.8072 55.1561L110.575 0.459398C110.791 0.165095 111.082 0 111.387 0C111.691 0 111.982 0.165095 112.199 0.459398L118.666 9.39432C118.88 9.69154 119 10.0929 119 10.5112C119 10.9295 118.88 11.3308 118.666 11.628L72.4312 75.2597C71.5401 76.5051 70.0742 76.5051 69.1831 75.2597L54.5524 55.1561L22.0573 99.8307L30.5799 111.553C30.7318 111.763 30.8379 112.027 30.886 112.316C30.9341 112.605 30.9223 112.907 30.8519 113.187C30.7815 113.467 30.6554 113.714 30.4879 113.901C30.3204 114.087 30.1182 114.205 29.9044 114.241L1.27532 118.985C0.542351 119.124 -0.0900345 118.254 0.0105743 117.226Z" fill="black" fill-opacity="0.2"/>
</svg>
