<svg width="32" height="26" viewBox="0 0 32 26" fill="none" xmlns="http://www.w3.org/2000/svg">
<path id="Vector" d="M30.8571 0H1.14286C0.510714 0 0 0.510714 0 1.14286V24C0 24.6321 0.510714 25.1429 1.14286 25.1429H30.8571C31.4893 25.1429 32 24.6321 32 24V1.14286C32 0.510714 31.4893 0 30.8571 0ZM29.4286 22.5714H2.57143V2.57143H29.4286V22.5714ZM19.5107 11.2857H23.9179C23.9643 11.2857 24 11.1571 24 11V9.28571C24 9.12857 23.9643 9 23.9179 9H19.5107C19.4643 9 19.4286 9.12857 19.4286 9.28571V11C19.4286 11.1571 19.4643 11.2857 19.5107 11.2857ZM19.6821 16.4286H26.3143C26.4536 16.4286 26.5679 16.3 26.5679 16.1429V14.4286C26.5679 14.2714 26.4536 14.1429 26.3143 14.1429H19.6821C19.5429 14.1429 19.4286 14.2714 19.4286 14.4286V16.1429C19.4286 16.3 19.5429 16.4286 19.6821 16.4286ZM5.71429 18.3214H7.28214C7.43214 18.3214 7.55357 18.2036 7.56429 18.0536C7.7 16.25 9.20714 14.8214 11.0357 14.8214C12.8643 14.8214 14.3714 16.25 14.5071 18.0536C14.5179 18.2036 14.6393 18.3214 14.7893 18.3214H16.3571C16.3959 18.3215 16.4343 18.3136 16.4699 18.2984C16.5055 18.2832 16.5377 18.2608 16.5644 18.2328C16.5911 18.2047 16.6119 18.1715 16.6254 18.1352C16.6388 18.0988 16.6448 18.0601 16.6429 18.0214C16.5429 16.1179 15.5 14.4607 13.9786 13.5179C14.6495 12.7803 15.0202 11.8185 15.0179 10.8214C15.0179 8.61071 13.2357 6.82143 11.0393 6.82143C8.84286 6.82143 7.06072 8.61071 7.06072 10.8214C7.06072 11.8607 7.45357 12.8036 8.1 13.5179C7.32546 13.9978 6.67859 14.6581 6.21464 15.4424C5.75069 16.2266 5.48344 17.1115 5.43571 18.0214C5.42143 18.1857 5.55 18.3214 5.71429 18.3214ZM11.0357 8.96429C12.0536 8.96429 12.8821 9.79643 12.8821 10.8214C12.8821 11.8464 12.0536 12.6786 11.0357 12.6786C10.0179 12.6786 9.18929 11.8464 9.18929 10.8214C9.18929 9.79643 10.0179 8.96429 11.0357 8.96429Z" fill="#1C1A32"/>
</svg>
