<svg width="340" height="226" viewBox="0 0 340 226" fill="none" xmlns="http://www.w3.org/2000/svg">
<g id="forgot_password 1" clip-path="url(#clip0_85_2837)">
<path id="Vector" d="M121.958 130.065C133.61 109.564 155.836 93.8224 179.364 95.3389C162.009 114.216 151.889 138.624 150.794 164.246C150.408 174.128 151.007 185.16 144.447 192.56C140.365 197.165 134.125 199.395 127.991 199.863C121.856 200.33 115.722 199.222 109.669 198.118L108.201 198.569C107.642 174.993 110.306 150.566 121.958 130.065Z" fill="#F0F0F0"/>
<path id="Vector_2" d="M179.399 95.8325C162.001 104.21 147.165 118.201 138.058 135.265C136.089 138.954 134.412 142.868 133.681 147.006C132.95 151.146 133.461 155.086 134.874 159.018C136.167 162.613 137.905 166.14 138.301 169.987C138.719 174.041 137.228 177.832 134.543 180.84C131.258 184.521 126.847 186.802 122.456 188.883C117.58 191.193 112.479 193.515 109.026 197.827C108.608 198.349 107.822 197.669 108.239 197.148C114.248 189.646 124.532 188.236 131.664 182.193C134.992 179.373 137.49 175.534 137.333 171.034C137.195 167.1 135.405 163.461 134.065 159.833C132.658 156.023 131.956 152.192 132.461 148.13C132.977 143.975 134.504 139.988 136.37 136.264C140.578 127.868 146.338 120.159 152.935 113.495C160.518 105.835 169.354 99.5285 179.063 94.8489C179.664 94.5596 179.996 95.545 179.399 95.8325Z" fill="white"/>
<path id="Vector_3" d="M140.725 129.562C138.058 127.612 136.171 124.776 135.401 121.562C134.631 118.348 135.028 114.965 136.522 112.017C136.826 111.422 137.765 111.866 137.461 112.463C136.065 115.205 135.695 118.357 136.418 121.348C137.141 124.339 138.91 126.974 141.404 128.775C141.946 129.168 141.264 129.952 140.725 129.562Z" fill="white"/>
<path id="Vector_4" d="M133.979 157.282C140.663 156.305 146.733 152.845 150.979 147.591C151.399 147.07 152.185 147.749 151.765 148.27C147.337 153.729 141.012 157.318 134.055 158.319C133.392 158.414 133.319 157.377 133.979 157.282V157.282Z" fill="white"/>
<path id="Vector_5" d="M161.031 107.114C161.906 108.083 163.008 108.821 164.238 109.26C165.468 109.698 166.788 109.824 168.079 109.627C168.74 109.523 168.812 110.561 168.155 110.663C166.728 110.875 165.27 110.734 163.91 110.252C162.55 109.771 161.328 108.963 160.352 107.9C160.252 107.808 160.19 107.681 160.18 107.545C160.17 107.408 160.212 107.274 160.298 107.167C160.389 107.064 160.516 107 160.654 106.99C160.791 106.98 160.926 107.024 161.031 107.114Z" fill="white"/>
<path id="Vector_6" d="M226.178 160.012C225.767 160.089 225.356 160.165 224.941 160.249C219.416 161.303 213.986 162.805 208.705 164.738C208.294 164.881 207.88 165.032 207.474 165.187C194.799 169.981 183.124 177.087 173.043 186.144C169.035 189.752 165.307 193.659 161.891 197.833C157.175 203.597 152.519 210.222 146.355 213.98C145.717 214.379 145.054 214.739 144.371 215.056L108.865 200.325C108.801 200.251 108.733 200.185 108.669 200.111L107.224 199.588C107.385 199.36 107.557 199.128 107.719 198.9C107.811 198.768 107.912 198.639 108.005 198.506C108.07 198.419 108.135 198.332 108.188 198.25C108.209 198.221 108.231 198.192 108.249 198.171C108.302 198.088 108.36 198.017 108.41 197.943C109.368 196.64 110.336 195.342 111.316 194.049C111.319 194.041 111.319 194.041 111.331 194.036C118.819 184.199 127.194 174.901 136.714 167.169C137.001 166.937 137.29 166.696 137.593 166.47C141.903 163.009 146.489 159.906 151.305 157.193C153.947 155.715 156.662 154.372 159.44 153.169C166.623 150.075 174.247 148.13 182.034 147.406C197.558 145.964 213.37 149.504 225.276 159.258C225.58 159.508 225.877 159.755 226.178 160.012Z" fill="#F0F0F0"/>
<path id="Vector_7" d="M225.912 160.43C206.977 156.642 186.709 158.879 169.166 167.019C165.374 168.779 161.679 170.894 158.605 173.758C155.529 176.623 153.564 180.077 152.326 184.068C151.194 187.716 150.459 191.579 148.46 194.889C146.353 198.377 142.881 200.506 138.926 201.292C134.088 202.253 129.193 201.418 124.434 200.434C119.151 199.343 113.68 198.125 108.327 199.489C107.679 199.654 107.46 198.638 108.108 198.473C117.421 196.101 126.481 201.168 135.813 200.638C140.168 200.391 144.474 198.829 147.056 195.142C149.314 191.918 150.076 187.935 151.19 184.231C152.36 180.341 154.106 176.86 156.954 173.921C159.867 170.914 163.486 168.65 167.217 166.801C175.632 162.631 184.871 159.944 194.15 158.596C204.815 157.046 215.666 157.332 226.235 159.442C226.889 159.573 226.561 160.56 225.912 160.43V160.43Z" fill="white"/>
<path id="Vector_8" d="M174.729 164.072C173.774 160.908 173.974 157.508 175.294 154.478C176.613 151.448 178.967 148.986 181.934 147.532C182.535 147.24 183.018 148.161 182.416 148.453C179.65 149.802 177.458 152.096 176.235 154.92C175.011 157.744 174.838 160.912 175.745 163.853C175.941 164.492 174.924 164.708 174.729 164.072Z" fill="white"/>
<path id="Vector_9" d="M152.657 182.142C158.581 185.387 165.511 186.279 172.064 184.641C172.713 184.478 172.931 185.494 172.283 185.657C165.461 187.349 158.251 186.406 152.093 183.016C151.507 182.692 152.073 181.82 152.657 182.142Z" fill="white"/>
<path id="Vector_10" d="M204.455 158.376C204.57 159.677 205.006 160.93 205.724 162.021C206.442 163.112 207.42 164.007 208.569 164.627C209.16 164.943 208.593 165.814 208.006 165.5C206.739 164.81 205.66 163.819 204.864 162.616C204.068 161.412 203.579 160.032 203.439 158.595C203.415 158.461 203.442 158.323 203.516 158.208C203.59 158.093 203.705 158.011 203.837 157.978C203.972 157.949 204.112 157.975 204.228 158.05C204.344 158.125 204.425 158.242 204.455 158.376Z" fill="white"/>
<path id="Vector_11" d="M158.541 184.315C153.569 160.267 147.353 152.249 147.353 152.249L144.978 150.407L142.123 148.189L142.137 147.903L141.459 147.673L141.3 147.55L141.04 147.349L140.998 147.394L140.909 147.486L127.987 143.093L111.593 137.523L104.002 127.654C102.766 126.047 101.174 124.747 99.3518 123.858C97.5294 122.969 95.526 122.515 93.4985 122.53L69.2543 122.709C65.9762 122.733 62.8258 123.983 60.4223 126.213L44.487 140.997L19.6567 152.858L19.6148 152.816L19.3541 153.003L15.5176 154.838L15.6759 155.662L13.3013 157.376C13.3013 157.376 7.08562 164.836 2.11304 187.212C0.848067 192.906 0.225403 205.12 0.000654478 220.17C-0.0106346 220.931 0.129514 221.687 0.412948 222.394C0.696382 223.101 1.11745 223.744 1.65167 224.287C2.18588 224.829 2.82259 225.26 3.52476 225.554C4.22694 225.848 4.98058 226 5.74185 226H138.365V226H154.918C155.679 226 156.432 225.848 157.134 225.554C157.836 225.26 158.472 224.83 159.006 224.288C159.54 223.747 159.962 223.104 160.245 222.398C160.529 221.692 160.67 220.937 160.66 220.176C160.44 203.799 159.818 190.489 158.541 184.315Z" fill="#3F3D56"/>
<path id="Vector_12" d="M175.557 20.972C170.398 20.972 165.449 23.0221 161.801 26.6714C158.152 30.3207 156.102 35.2702 156.102 40.4311C156.102 45.592 158.152 50.5415 161.801 54.1908C165.449 57.8401 170.398 59.8903 175.557 59.8903H320.545C325.705 59.8903 330.653 57.8401 334.302 54.1908C337.95 50.5415 340 45.592 340 40.4311C340 35.2702 337.95 30.3207 334.302 26.6714C330.653 23.0221 325.705 20.972 320.545 20.972H175.557Z" fill="#E5E5E5"/>
<path id="Vector_13" d="M175.557 24.9101C171.442 24.9101 167.495 26.5453 164.585 29.4561C161.675 32.3668 160.04 36.3147 160.04 40.4311C160.04 44.5475 161.675 48.4953 164.585 51.4061C167.495 54.3168 171.442 55.9521 175.557 55.9521H320.545C324.66 55.9521 328.607 54.3168 331.518 51.4061C334.428 48.4953 336.063 44.5475 336.063 40.4311C336.063 36.3147 334.428 32.3668 331.518 29.4561C328.607 26.5453 324.66 24.9101 320.545 24.9101H175.557Z" fill="white"/>
<path id="ab6171fa-7d69-4734-b81c-8dff60f9761b" d="M85.1837 113.42C102.726 113.42 116.946 99.1963 116.946 81.6509C116.946 64.1055 102.726 49.8821 85.1837 49.8821C67.6419 49.8821 53.4215 64.1055 53.4215 81.6509C53.4215 99.1963 67.6419 113.42 85.1837 113.42Z" fill="#9E616A"/>
<path id="Vector_14" d="M77.0583 111.864C76.9226 111.565 76.7873 111.265 76.6524 110.965C76.7044 110.966 76.7559 110.974 76.8079 110.975L77.0583 111.864Z" fill="#2F2E41"/>
<path id="Vector_15" d="M52.5382 51.3268C54.1447 50.045 56.0222 48.8657 58.0761 48.932C60.13 48.9982 62.2128 50.8536 61.7872 52.8644C65.5598 46.1834 71.5646 41.0449 78.7476 38.3509C85.9306 35.657 93.8328 35.5796 101.067 38.1325C106.172 39.9339 111.178 43.5377 112.35 48.8233C112.651 50.1802 112.716 51.6679 113.563 52.7698C114.631 54.1589 116.674 54.4732 118.357 53.9845C118.374 53.9796 118.391 53.9746 118.407 53.9696C118.692 53.8725 118.998 53.863 119.288 53.9422C119.578 54.0215 119.837 54.1858 120.032 54.414C120.228 54.6423 120.35 54.9238 120.384 55.2224C120.417 55.5209 120.36 55.8226 120.221 56.0885L118.776 58.7829C120.597 59.1888 122.489 59.1485 124.291 58.6656C124.59 58.587 124.906 58.6031 125.196 58.7114C125.486 58.8198 125.735 59.0152 125.91 59.2709C126.084 59.5266 126.175 59.8299 126.17 60.1394C126.166 60.4489 126.065 60.7493 125.883 60.9994C121.12 67.5396 113.163 71.763 105.044 71.7133C99.2726 71.6781 93.4421 69.6888 87.8256 71.0162C85.6527 71.5297 83.6224 72.5232 81.8836 73.9239C80.1448 75.3246 78.7415 77.0969 77.7768 79.1108C76.8121 81.1247 76.3104 83.3291 76.3086 85.5622C76.3067 87.7953 76.8047 90.0005 77.7661 92.016C76.0407 90.1283 72.7053 90.5752 70.9403 92.426C69.1754 94.2768 68.7184 97.0392 68.8963 99.5907C69.1682 103.493 70.6969 107.17 72.3084 110.749C58.7971 110.324 46.0177 100.844 41.7161 88.022C37.3965 75.1465 41.9236 59.7962 52.5382 51.3268Z" fill="#2F2E41"/>
<path id="Vector_16" opacity="0.2" d="M31.2622 177.055L40.1708 225.534L45.5162 226L31.2622 177.055Z" fill="black"/>
<path id="Vector_17" opacity="0.2" d="M129.392 173.398L120.484 225.499L115.138 226L129.392 173.398Z" fill="black"/>
<path id="Vector_18" d="M60.1365 35.011C58.4284 35.7244 56.6461 34.9426 55.8986 33.1521C55.1397 31.3343 55.8485 29.489 57.584 28.7642C59.3197 28.0393 61.0702 28.823 61.8414 30.6701C62.601 32.4896 61.8999 34.2746 60.1365 35.011ZM56.8646 25.1861L55.5064 25.7533C55.1671 25.8934 54.7877 25.9009 54.4431 25.7745C54.0985 25.6481 53.8139 25.3969 53.6456 25.0707L53.5784 24.9393C52.1171 22.3033 51.9498 19.0996 53.0838 15.4222C54.1342 12.1234 54.5706 9.80338 53.6931 7.70156C52.6786 5.27146 50.5122 4.51023 47.7496 5.61296C46.6781 6.06046 46.3372 6.05333 45.494 6.88996C45.3106 7.07416 45.092 7.21953 44.8512 7.3174C44.6104 7.41527 44.3523 7.46364 44.0924 7.45962C43.8412 7.45666 43.5931 7.40313 43.363 7.30222C43.1329 7.2013 42.9255 7.05507 42.7531 6.87224C42.421 6.51991 42.2349 6.05466 42.2325 5.57043C42.23 5.0862 42.4114 4.61909 42.7399 4.26342C44.1572 2.77951 45.8666 1.60555 47.7603 0.81562C53.6959 -1.66341 56.684 1.99652 58.0514 5.27182C59.3888 8.47543 58.6365 11.4479 57.4276 15.2974C56.4146 18.4962 56.4736 20.8664 57.6244 23.2232C57.7074 23.4014 57.7537 23.5945 57.7602 23.791C57.7668 23.9875 57.7336 24.1833 57.6627 24.3666C57.5917 24.5499 57.4844 24.717 57.3473 24.8578C57.2101 24.9987 57.0459 25.1103 56.8646 25.1861L56.8646 25.1861Z" fill="#6ADDDD"/>
<path id="Vector_19" d="M207.583 49.7118H178.736C178.645 49.7124 178.554 49.6949 178.469 49.6603C178.384 49.6256 178.307 49.5745 178.242 49.5099C178.177 49.4453 178.125 49.3685 178.09 49.2839C178.055 49.1992 178.037 49.1085 178.037 49.0168C178.037 48.9252 178.055 48.8344 178.09 48.7498C178.125 48.6651 178.177 48.5883 178.242 48.5237C178.307 48.4591 178.384 48.408 178.469 48.3734C178.554 48.3387 178.645 48.3212 178.736 48.3219H207.583C207.767 48.3231 207.942 48.3969 208.072 48.5271C208.201 48.6573 208.273 48.8333 208.273 49.0168C208.273 49.2003 208.201 49.3764 208.072 49.5066C207.942 49.6368 207.767 49.7105 207.583 49.7118Z" fill="#6ADDDD"/>
<path id="Vector_20" d="M244.178 49.9434H215.33C215.239 49.944 215.148 49.9265 215.063 49.8919C214.978 49.8572 214.901 49.8061 214.836 49.7416C214.771 49.677 214.719 49.6001 214.684 49.5155C214.649 49.4309 214.631 49.3401 214.631 49.2485C214.631 49.1568 214.649 49.066 214.684 48.9814C214.719 48.8968 214.771 48.8199 214.836 48.7554C214.901 48.6908 214.978 48.6397 215.063 48.605C215.148 48.5704 215.239 48.5529 215.33 48.5535H244.178C244.269 48.5529 244.36 48.5704 244.445 48.605C244.53 48.6397 244.607 48.6908 244.672 48.7554C244.737 48.8199 244.789 48.8968 244.824 48.9814C244.859 49.066 244.877 49.1568 244.877 49.2485C244.877 49.3401 244.859 49.4309 244.824 49.5155C244.789 49.6001 244.737 49.677 244.672 49.7416C244.607 49.8061 244.53 49.8572 244.445 49.8919C244.36 49.9265 244.269 49.944 244.178 49.9434Z" fill="#6ADDDD"/>
<path id="Vector_21" d="M280.772 50.1751H251.925C251.741 50.1739 251.566 50.1001 251.436 49.9699C251.307 49.8397 251.235 49.6636 251.235 49.4801C251.235 49.2966 251.307 49.1206 251.436 48.9904C251.566 48.8602 251.741 48.7864 251.925 48.7852H280.772C280.863 48.7845 280.954 48.8021 281.039 48.8367C281.124 48.8714 281.201 48.9224 281.266 48.987C281.331 49.0516 281.383 49.1285 281.418 49.2131C281.453 49.2977 281.471 49.3885 281.471 49.4801C281.471 49.5718 281.453 49.6626 281.418 49.7472C281.383 49.8318 281.331 49.9086 281.266 49.9732C281.201 50.0378 281.124 50.0889 281.039 50.1236C280.954 50.1582 280.863 50.1757 280.772 50.1751H280.772Z" fill="#6ADDDD"/>
<path id="Vector_22" d="M317.366 50.4068H288.519C288.336 50.4055 288.16 50.3317 288.031 50.2015C287.901 50.0713 287.829 49.8953 287.829 49.7118C287.829 49.5283 287.901 49.3522 288.031 49.222C288.16 49.0918 288.336 49.0181 288.519 49.0168H317.366C317.55 49.0181 317.725 49.0918 317.854 49.222C317.984 49.3522 318.056 49.5283 318.056 49.7118C318.056 49.8953 317.984 50.0713 317.854 50.2015C317.725 50.3317 317.55 50.4055 317.366 50.4068Z" fill="#6ADDDD"/>
<path id="Vector_23" d="M193.096 43.3159C196.057 43.3159 198.458 40.915 198.458 37.9533C198.458 34.9917 196.057 32.5908 193.096 32.5908C190.135 32.5908 187.735 34.9917 187.735 37.9533C187.735 40.915 190.135 43.3159 193.096 43.3159Z" fill="#6ADDDD"/>
<path id="Vector_24" d="M229.912 43.3159C232.873 43.3159 235.273 40.915 235.273 37.9533C235.273 34.9917 232.873 32.5908 229.912 32.5908C226.951 32.5908 224.55 34.9917 224.55 37.9533C224.55 40.915 226.951 43.3159 229.912 43.3159Z" fill="#6ADDDD"/>
<path id="Vector_25" d="M266.727 43.3159C269.688 43.3159 272.088 40.915 272.088 37.9533C272.088 34.9917 269.688 32.5908 266.727 32.5908C263.766 32.5908 261.365 34.9917 261.365 37.9533C261.365 40.915 263.766 43.3159 266.727 43.3159Z" fill="#6ADDDD"/>
<path id="Vector_26" d="M303.542 43.3159C306.503 43.3159 308.904 40.915 308.904 37.9533C308.904 34.9917 306.503 32.5908 303.542 32.5908C300.581 32.5908 298.181 34.9917 298.181 37.9533C298.181 40.915 300.581 43.3159 303.542 43.3159Z" fill="#6ADDDD"/>
</g>
<defs>
<clipPath id="clip0_85_2837">
<rect width="340" height="226" fill="white"/>
</clipPath>
</defs>
</svg>
