<svg width="274" height="223" viewBox="0 0 274 223" fill="none" xmlns="http://www.w3.org/2000/svg">
<g id="group 1" clip-path="url(#clip0_62_2027)">
<path id="Vector" d="M274 22.3211V200.679C274 213.008 262.806 223 248.994 223H25.006C11.1938 223 0 213.008 0 200.679V22.3211C0 9.9919 11.1938 0 25.006 0H248.994C262.806 0 274 9.9919 274 22.3211Z" fill="url(#paint0_linear_62_2027)"/>
<path id="Vector_2" d="M91.375 222.412L107.406 218.934L125.982 214.901C125.982 214.901 126.988 217.98 128.399 222.412H91.375Z" fill="#2F2E41"/>
<path id="Vector_3" d="M131.956 220.414C131.956 220.414 131.806 221.217 131.499 222.412H56.6557C55.8301 219.896 55.4624 217.304 56.4456 215.164C56.6109 214.79 56.82 214.437 57.0685 214.112C57.2526 213.857 57.4585 213.619 57.6839 213.399C59.155 211.942 60.0556 208.803 60.596 205.228C61.2447 200.339 61.5132 195.407 61.399 190.477C61.4066 190.469 61.4066 190.469 61.399 190.469C61.384 189.305 61.354 188.607 61.354 188.607C61.354 188.607 61.0688 184.303 60.7461 177.799C60.7536 177.799 60.7461 177.792 60.7461 177.792C59.8605 160.24 58.6596 126.638 61.7743 117.73C61.973 116.979 62.3757 116.298 62.9376 115.762C67.1307 112.734 71.5925 110.097 76.2671 107.884C76.5372 107.764 76.6798 107.696 76.6798 107.696L86.9546 107.501L99.7136 105.248L108.577 103.625C108.577 103.625 109.23 103.67 110.251 103.813C113.643 104.279 121.104 105.803 122.155 110.22C122.155 110.227 122.162 110.235 122.162 110.242C122.295 110.821 122.318 111.42 122.23 112.007C121.224 119.367 128.324 164.573 130.485 166.834C132.647 169.094 132.077 177.356 126.733 182.606C125.791 183.577 125.105 184.767 124.736 186.068C122.717 192.565 125.885 203.177 128.984 208.142C131.236 211.819 132.276 216.112 131.956 220.414Z" fill="#3F3D56"/>
<path id="Vector_4" d="M172.829 75.8941L172.614 68.035L172.326 57.4958L163.93 57.1074L162.754 67.579L161.659 77.3098L172.829 75.8941Z" fill="#A0616A"/>
<path id="Vector_5" d="M86.8271 109.171L98.6063 121.821C98.6063 121.821 148.515 129.888 148.849 125.652C149.183 121.417 145.895 120.19 151.284 120.567C156.673 120.943 157.968 124.774 158.79 121.11C159.611 117.446 155.092 117.356 160.324 116.836C165.556 116.317 176.983 70.6069 176.983 70.6069L158.755 73.5488C158.755 73.5488 155.212 95.6499 152.991 98.4743C150.769 101.299 148.54 103.325 147.169 103.448C145.799 103.57 86.8271 109.171 86.8271 109.171Z" fill="#3F3D56"/>
<path id="Vector_6" d="M93.5823 92.8172C103.139 92.8172 110.886 85.0646 110.886 75.5012C110.886 65.9379 103.139 58.1852 93.5823 58.1852C84.0256 58.1852 76.2783 65.9379 76.2783 75.5012C76.2783 85.0646 84.0256 92.8172 93.5823 92.8172Z" fill="#A0616A"/>
<path id="Vector_7" d="M80.0977 90.4143L86.9576 91.7287C86.9576 91.7287 80.5781 81.4242 80.9533 76.7077C81.3286 71.991 86.4623 70.3012 86.4623 70.3012C86.4623 70.3012 89.3067 70.917 92.3014 71.2625C92.66 70.252 93.1255 69.2826 93.6898 68.371C93.8009 69.5479 94.3216 70.6484 95.1609 71.4803C96.2584 71.5747 97.3636 71.4469 98.4107 71.1048C99.5965 70.5641 99.574 69.6253 99.1837 68.7465C104.895 69.0244 110.307 71.8033 110.307 71.8033C110.479 69.4975 110.391 67.1796 110.044 64.8936C109.879 64.8485 109.714 64.796 109.549 64.7434C108.526 64.4196 107.54 63.9891 106.606 63.4591C107.645 63.3212 108.615 62.8647 109.383 62.1523C108.753 60.3047 107.747 58.7049 106.164 57.9239C104.636 57.1761 102.965 56.7657 101.265 56.7203C99.5648 56.675 97.8747 56.9958 96.3092 57.661C96.3092 57.661 99.9793 54.9798 98.6283 53.8832C98.5382 53.9733 98.4482 54.056 98.3506 54.1386C98.223 54.2437 98.0804 54.3564 97.9453 54.4615C97.1123 55.1374 95.8663 54.1836 95.7012 53.1622C95.6835 53.0332 95.6584 52.9053 95.6262 52.7792C95.6037 52.674 95.5736 52.5689 95.5436 52.4712C95.5181 52.3846 95.4881 52.2993 95.4535 52.2159C92.9543 51.615 85.3964 54.0559 82.4919 59.4335C82.4919 59.4335 62.1901 69.1972 80.0977 90.4143Z" fill="#3F3D56"/>
<path id="Vector_8" d="M71.8016 222.412H62.1046L61.7742 221.863L57.0686 214.112L54.4714 209.831L60.5959 205.228L63.4782 203.065L69.8348 217.837L71.8016 222.412Z" fill="#A0616A"/>
<path id="Vector_9" d="M76.27 107.884L100.467 163.83L110.254 103.813C109.233 103.67 108.58 103.625 108.58 103.625L104.415 95.529L80.5555 96.7682L76.6828 107.696C76.6828 107.696 76.5402 107.764 76.27 107.884Z" fill="#1C1A32"/>
<path id="Vector_10" d="M108.104 222.412H89.0483L101.215 187.863L107.406 218.934L108.104 222.412Z" fill="#1C1A32"/>
<path id="Vector_11" opacity="0.5" d="M223.965 116.393H169.189C160.504 116.393 153.464 123.438 153.464 132.129V151.946C153.464 160.637 160.504 167.682 169.189 167.682H223.965C232.65 167.682 239.69 160.637 239.69 151.946V132.129C239.69 123.438 232.65 116.393 223.965 116.393Z" fill="white"/>
<path id="Vector_12" d="M223.965 168.27H169.189C164.864 168.265 160.717 166.543 157.659 163.483C154.601 160.423 152.88 156.273 152.875 151.946V132.129C152.88 127.801 154.601 123.651 157.659 120.591C160.717 117.531 164.864 115.809 169.189 115.804H223.965C228.29 115.809 232.436 117.531 235.494 120.591C238.552 123.651 240.273 127.801 240.278 132.129V151.946C240.273 156.273 238.552 160.423 235.494 163.483C232.436 166.543 228.29 168.265 223.965 168.27ZM169.189 116.981C165.175 116.986 161.328 118.583 158.49 121.423C155.652 124.262 154.056 128.113 154.051 132.129V151.946C154.056 155.962 155.652 159.812 158.49 162.651C161.328 165.491 165.175 167.089 169.189 167.093H223.965C227.978 167.089 231.825 165.491 234.663 162.651C237.501 159.812 239.097 155.962 239.102 151.946V132.129C239.097 128.113 237.501 124.263 234.663 121.423C231.825 118.583 227.978 116.986 223.965 116.981L169.189 116.981Z" fill="white"/>
<path id="Vector_13" d="M196.506 156.568C203.442 156.568 209.065 150.941 209.065 144C209.065 137.059 203.442 131.432 196.506 131.432C189.57 131.432 183.947 137.059 183.947 144C183.947 150.941 189.57 156.568 196.506 156.568Z" fill="#A0616A"/>
<path id="Vector_14" d="M199.26 156.497C197.718 153.056 206.072 145.918 200.72 145.556C200.72 145.556 197.201 139.382 194.966 141.038C192.379 142.954 188.609 139.473 186.394 137.144C186.866 136.764 187.289 136.327 187.654 135.843C186.95 135.973 186.237 136.047 185.522 136.067C185.256 135.674 185.07 135.232 184.975 134.767C184.871 134.328 184.904 133.866 185.07 133.446C185.236 133.025 185.526 132.666 185.902 132.415C186.713 131.963 187.75 132.239 188.618 131.914C188.726 131.861 188.82 131.783 188.891 131.686C188.962 131.589 189.009 131.476 189.027 131.357C189.092 131.076 189.219 130.813 189.397 130.587C189.575 130.361 189.801 130.177 190.058 130.048C190.315 129.919 190.598 129.848 190.886 129.841C191.174 129.834 191.459 129.89 191.723 130.006C191.823 130.063 191.936 130.095 192.052 130.098C192.656 130.059 193.254 129.949 193.833 129.769C193.184 129.465 192.559 129.112 191.963 128.713C191.841 128.63 191.718 128.547 191.598 128.459C192.137 128.021 192.765 127.704 193.438 127.531C194.111 127.357 194.813 127.332 195.497 127.455C196.931 127.734 198.313 128.234 199.595 128.936C200.354 129.306 201.112 129.675 201.868 130.044C203.501 130.763 205.052 131.653 206.498 132.699C208.005 133.885 209.233 135.389 210.092 137.105C210.952 138.821 211.422 140.705 211.469 142.623C211.538 146.451 208.266 156.939 199.26 156.497Z" fill="#2F2E41"/>
<path id="Vector_15" opacity="0.5" d="M121.863 166.416H67.0869C58.4022 166.416 51.3618 173.461 51.3618 182.152V201.969C51.3618 210.659 58.4022 217.704 67.0869 217.704H121.863C130.548 217.704 137.588 210.659 137.588 201.969V182.152C137.588 173.461 130.548 166.416 121.863 166.416Z" fill="white"/>
<path id="Vector_16" d="M121.863 218.293H67.087C62.762 218.288 58.6156 216.567 55.5573 213.506C52.4991 210.446 50.7788 206.296 50.7739 201.969V182.152C50.7788 177.824 52.4991 173.674 55.5573 170.614C58.6156 167.554 62.762 165.832 67.087 165.827H121.863C126.188 165.832 130.334 167.554 133.393 170.614C136.451 173.674 138.171 177.824 138.176 182.152V201.969C138.171 206.296 136.451 210.446 133.393 213.506C130.334 216.567 126.188 218.288 121.863 218.293ZM67.087 167.004C63.0738 167.009 59.2262 168.606 56.3885 171.446C53.5507 174.285 51.9544 178.136 51.9499 182.152V201.969C51.9544 205.985 53.5507 209.835 56.3885 212.674C59.2262 215.514 63.0738 217.112 67.087 217.116H121.863C125.876 217.112 129.724 215.514 132.562 212.674C135.399 209.835 136.996 205.985 137 201.969V182.152C136.996 178.136 135.399 174.285 132.562 171.446C129.724 168.606 125.876 167.009 121.863 167.004H67.087Z" fill="white"/>
<path id="Vector_17" d="M95.3159 208.417C102.363 208.417 108.077 202.7 108.077 195.648C108.077 188.595 102.363 182.878 95.3159 182.878C88.2683 182.878 82.5552 188.595 82.5552 195.648C82.5552 202.7 88.2683 208.417 95.3159 208.417Z" fill="#FFB6B6"/>
<path id="Vector_18" d="M87.0032 198.928C86.8445 198.875 86.6761 198.856 86.5096 198.874C86.343 198.891 86.1821 198.944 86.0377 199.029C85.8933 199.114 85.7688 199.228 85.6726 199.366C85.5763 199.503 85.5106 199.659 85.4798 199.824C85.4377 200.162 85.4651 200.505 85.5602 200.832C85.6554 201.159 85.8163 201.464 86.0331 201.727C86.4689 202.249 86.8594 202.807 87.2004 203.395C87.3668 203.693 87.4447 204.032 87.4251 204.373C87.4055 204.713 87.2891 205.041 87.0896 205.318C86.8721 205.529 86.5991 205.675 86.3022 205.738C86.0053 205.8 85.6968 205.777 85.4124 205.672C84.8462 205.45 84.3457 205.088 83.9579 204.62C81.5183 201.971 78.9734 197.574 80.2206 194.195C80.3241 193.834 80.3653 193.458 80.3422 193.083C80.3661 192.653 80.4457 192.005 80.041 191.859C78.9117 191.451 82.0804 184.845 86.9712 183.408C86.733 181.153 98.499 177.909 97.8567 180.74C97.7413 181.249 98.8775 180.972 99.3979 181C103.39 181.217 107.898 182.221 107.535 186.851C107.394 188.644 108.135 188.23 108.73 189.927C107.803 190.48 107.499 191.693 106.784 190.884C106.07 190.074 105.459 189.061 104.435 188.721C103.344 188.359 102.161 188.9 101.23 189.575C100.3 190.25 99.4466 191.089 98.3531 191.443C97.1267 191.839 95.7894 191.563 94.5106 191.724C92.6861 192.037 91.0385 193.006 89.8768 194.448C88.7316 195.882 87.7651 197.45 86.9986 199.117" fill="#2F2E41"/>
<path id="Vector_19" d="M79.8276 115.623L62.5654 116.375C62.5654 116.375 37.0474 159.935 40.0495 162.94C43.0516 165.944 46.1186 164.238 42.3335 168.095C38.5484 171.952 34.7958 170.45 37.0474 173.454C39.299 176.459 42.3011 173.078 39.299 177.397C36.2968 181.716 60.6891 222.412 60.6891 222.412L71.1965 217.154C71.1965 217.154 60.9715 190.267 60.2674 186.743C59.5633 183.218 59.4705 180.205 60.2674 179.083C61.0644 177.961 79.8276 115.623 79.8276 115.623Z" fill="#3F3D56"/>
<path id="Vector_20" d="M168.232 129.314C170.467 129.314 172.279 127.501 172.279 125.264C172.279 123.028 170.467 121.214 168.232 121.214C165.997 121.214 164.185 123.028 164.185 125.264C164.185 127.501 165.997 129.314 168.232 129.314Z" fill="#1C1A32"/>
<path id="Vector_21" d="M167.68 127.372C167.61 127.372 167.541 127.356 167.479 127.325C167.416 127.293 167.362 127.248 167.32 127.192L166.216 125.719C166.18 125.671 166.153 125.617 166.138 125.56C166.123 125.503 166.12 125.443 166.128 125.384C166.136 125.325 166.156 125.268 166.186 125.217C166.216 125.166 166.256 125.121 166.304 125.086C166.351 125.05 166.405 125.024 166.463 125.009C166.52 124.995 166.58 124.992 166.639 125C166.698 125.009 166.754 125.029 166.805 125.06C166.856 125.09 166.901 125.13 166.936 125.178L167.658 126.142L169.514 123.357C169.58 123.258 169.683 123.189 169.8 123.165C169.917 123.142 170.038 123.166 170.138 123.232C170.237 123.298 170.306 123.401 170.33 123.519C170.353 123.636 170.329 123.757 170.263 123.857L168.054 127.172C168.015 127.231 167.961 127.281 167.898 127.316C167.835 127.351 167.764 127.37 167.692 127.372L167.68 127.372Z" fill="white"/>
<path id="Vector_22" d="M69.4507 179.916C71.6858 179.916 73.4978 178.103 73.4978 175.866C73.4978 173.629 71.6858 171.816 69.4507 171.816C67.2155 171.816 65.4036 173.629 65.4036 175.866C65.4036 178.103 67.2155 179.916 69.4507 179.916Z" fill="#1C1A32"/>
<path id="Vector_23" d="M68.8986 177.974C68.8287 177.974 68.7598 177.957 68.6973 177.926C68.6348 177.895 68.5804 177.849 68.5385 177.793L67.4344 176.32C67.3984 176.273 67.3722 176.219 67.3572 176.162C67.3421 176.104 67.3386 176.044 67.3468 175.985C67.3551 175.926 67.3748 175.87 67.405 175.819C67.4351 175.768 67.4751 175.723 67.5226 175.687C67.5701 175.652 67.6242 175.626 67.6817 175.611C67.7393 175.596 67.7991 175.593 67.8579 175.602C67.9166 175.61 67.9731 175.631 68.024 175.661C68.0749 175.692 68.1193 175.732 68.1546 175.78L68.877 176.743L70.7323 173.959C70.765 173.909 70.8072 173.867 70.8563 173.834C70.9054 173.801 70.9606 173.778 71.0185 173.767C71.0765 173.755 71.1362 173.755 71.1942 173.767C71.2522 173.778 71.3074 173.801 71.3566 173.834C71.4057 173.866 71.448 173.909 71.4809 173.958C71.5138 174.007 71.5367 174.062 71.5483 174.12C71.5599 174.178 71.5599 174.238 71.5485 174.296C71.537 174.354 71.5142 174.409 71.4814 174.458L69.2732 177.773C69.2332 177.833 69.1795 177.882 69.1165 177.917C69.0535 177.952 68.9831 177.972 68.9111 177.974L68.8986 177.974Z" fill="white"/>
<path id="Vector_24" d="M226.442 131.476C225.652 131.476 224.879 131.242 224.222 130.802C223.565 130.363 223.053 129.738 222.751 129.008C222.448 128.277 222.369 127.473 222.523 126.698C222.677 125.922 223.058 125.21 223.617 124.65C224.176 124.091 224.888 123.71 225.663 123.556C226.438 123.402 227.241 123.481 227.971 123.784C228.701 124.086 229.325 124.599 229.765 125.256C230.204 125.914 230.438 126.687 230.438 127.478C230.438 128.538 230.017 129.555 229.268 130.305C228.518 131.055 227.502 131.476 226.442 131.476Z" fill="#E6E6E6"/>
<path id="Vector_25" d="M227.836 128.314L226.999 127.478L227.836 126.641C227.873 126.604 227.902 126.561 227.922 126.513C227.942 126.465 227.953 126.414 227.953 126.362C227.953 126.31 227.943 126.258 227.923 126.21C227.903 126.162 227.874 126.118 227.837 126.081C227.801 126.045 227.757 126.016 227.709 125.996C227.661 125.976 227.609 125.966 227.557 125.966C227.505 125.966 227.454 125.977 227.406 125.997C227.358 126.017 227.315 126.046 227.278 126.083L226.442 126.92L225.606 126.083C225.532 126.01 225.432 125.968 225.327 125.968C225.223 125.969 225.123 126.01 225.049 126.084C224.976 126.158 224.934 126.258 224.934 126.362C224.934 126.467 224.975 126.567 225.049 126.641L225.885 127.478L225.049 128.314C225.012 128.351 224.982 128.394 224.962 128.442C224.942 128.49 224.932 128.542 224.931 128.594C224.931 128.646 224.941 128.697 224.961 128.745C224.981 128.793 225.01 128.837 225.047 128.874C225.084 128.911 225.127 128.94 225.175 128.96C225.223 128.979 225.275 128.99 225.327 128.989C225.379 128.989 225.43 128.979 225.478 128.959C225.526 128.939 225.569 128.909 225.606 128.872L226.442 128.035L227.278 128.872C227.315 128.909 227.358 128.938 227.406 128.958C227.454 128.978 227.505 128.988 227.557 128.989C227.609 128.989 227.66 128.978 227.708 128.959C227.756 128.939 227.8 128.91 227.836 128.873C227.873 128.836 227.902 128.793 227.922 128.745C227.942 128.697 227.952 128.645 227.952 128.594C227.952 128.542 227.941 128.49 227.922 128.442C227.902 128.394 227.872 128.351 227.836 128.314Z" fill="white"/>
<path id="Vector_26" d="M122.957 179.724C122.167 179.724 121.394 179.49 120.737 179.05C120.08 178.611 119.568 177.986 119.266 177.256C118.963 176.525 118.884 175.721 119.038 174.946C119.192 174.17 119.573 173.458 120.132 172.898C120.691 172.339 121.403 171.958 122.178 171.804C122.953 171.65 123.756 171.729 124.486 172.032C125.216 172.334 125.84 172.847 126.279 173.504C126.718 174.162 126.953 174.935 126.953 175.726C126.953 176.786 126.532 177.803 125.783 178.553C125.033 179.303 124.017 179.724 122.957 179.724Z" fill="#E6E6E6"/>
<path id="Vector_27" d="M124.351 176.562L123.515 175.726L124.351 174.889C124.424 174.815 124.465 174.715 124.464 174.611C124.464 174.506 124.423 174.407 124.349 174.333C124.275 174.259 124.176 174.218 124.072 174.217C123.967 174.217 123.867 174.258 123.793 174.331L122.957 175.168L122.121 174.331C122.047 174.258 121.947 174.216 121.843 174.217C121.738 174.217 121.638 174.258 121.564 174.332C121.491 174.406 121.449 174.506 121.449 174.61C121.449 174.715 121.49 174.815 121.564 174.889L122.4 175.726L121.564 176.562C121.527 176.599 121.497 176.642 121.477 176.69C121.457 176.738 121.447 176.79 121.447 176.842C121.446 176.894 121.456 176.945 121.476 176.993C121.496 177.041 121.525 177.085 121.562 177.122C121.599 177.159 121.642 177.188 121.69 177.208C121.738 177.228 121.79 177.238 121.842 177.237C121.894 177.237 121.945 177.227 121.993 177.207C122.041 177.187 122.085 177.157 122.121 177.12L122.957 176.284L123.793 177.12C123.867 177.194 123.967 177.235 124.072 177.235C124.176 177.235 124.276 177.193 124.35 177.119C124.424 177.046 124.465 176.945 124.465 176.841C124.466 176.737 124.424 176.636 124.351 176.562Z" fill="white"/>
<path id="Vector_28" d="M168.163 60.6042C172.06 60.6042 175.219 57.443 175.219 53.5435C175.219 49.644 172.06 46.4828 168.163 46.4828C164.266 46.4828 161.107 49.644 161.107 53.5435C161.107 57.443 164.266 60.6042 168.163 60.6042Z" fill="#A0616A"/>
<path id="Vector_29" opacity="0.5" d="M223.774 51.6603H168.998C160.314 51.6603 153.273 58.7056 153.273 67.3963V87.2133C153.273 95.904 160.314 102.949 168.998 102.949H223.774C232.459 102.949 239.499 95.904 239.499 87.2133V67.3963C239.499 58.7056 232.459 51.6603 223.774 51.6603Z" fill="white"/>
<path id="Vector_30" d="M223.774 103.538H168.998C164.673 103.533 160.526 101.811 157.468 98.751C154.41 95.6907 152.69 91.5414 152.685 87.2134V67.3963C152.69 63.0683 154.41 58.919 157.468 55.8586C160.526 52.7983 164.673 51.0768 168.998 51.0719H223.774C228.099 51.0768 232.246 52.7983 235.304 55.8586C238.362 58.919 240.083 63.0683 240.088 67.3963V87.2134C240.083 91.5414 238.362 95.6907 235.304 98.751C232.246 101.811 228.099 103.533 223.774 103.538ZM168.998 52.2487C164.985 52.2532 161.137 53.8506 158.299 56.6903C155.462 59.5301 153.865 63.3803 153.861 67.3963V87.2134C153.865 91.2294 155.462 95.0796 158.299 97.9193C161.137 100.759 164.985 102.356 168.998 102.361H223.774C227.788 102.356 231.635 100.759 234.473 97.9193C237.311 95.0796 238.907 91.2294 238.912 87.2134V67.3963C238.907 63.3803 237.311 59.5301 234.473 56.6903C231.635 53.8506 227.788 52.2532 223.774 52.2487H168.998Z" fill="white"/>
<path id="Vector_31" d="M212.752 78.7771C212.788 82.0704 213.836 88.9269 213.085 92.1527L212.963 91.8828C212.339 92.3779 211.676 92.8217 210.981 93.21C210.479 91.9889 209.729 90.8857 208.778 89.9707C208.903 91.4845 208.724 93.0082 208.252 94.4517C205.442 95.464 200.51 92.2742 197.452 92.2067C192.534 92.0943 187.741 90.8705 183.043 89.5748C181.375 89.1159 179.541 88.5175 178.785 87.1318C178.03 85.7461 179.382 84.2504 179.293 82.6868C178.663 71.5491 183.965 69.6822 189.009 66.7062C190.119 66.0513 190.664 64.6412 191.918 64.0923C193.658 63.3319 195.731 63.6964 197.623 64.0788C197.153 63.9238 196.731 63.6504 196.397 63.2848C196.063 62.9191 195.829 62.4737 195.717 61.9913C195.638 61.5184 195.691 61.0329 195.871 60.5883C196.05 60.1438 196.348 59.7574 196.733 59.4718C197.307 59.096 197.956 58.8508 198.635 58.7537C199.314 58.6565 200.006 58.7097 200.663 58.9094C201.948 59.3118 203.164 59.9096 204.268 60.682C205.018 61.0935 205.688 61.6359 206.246 62.2837C206.51 62.5902 206.673 62.9699 206.715 63.3719C206.757 63.7739 206.675 64.179 206.48 64.5332C206.24 64.8368 205.935 65.0823 205.587 65.2513C205.239 65.4204 204.857 65.5086 204.471 65.5095C203.875 65.5269 203.279 65.4648 202.699 65.325C205.356 65.981 207.751 67.431 209.564 69.4821C211.817 72.1051 212.712 75.4838 212.752 78.7771Z" fill="#2F2E41"/>
<path id="Vector_32" d="M195.108 89.5001C201.128 89.5001 206.008 84.6166 206.008 78.5926C206.008 72.5686 201.128 67.6851 195.108 67.6851C189.089 67.6851 184.208 72.5686 184.208 78.5926C184.208 84.6166 189.089 89.5001 195.108 89.5001Z" fill="#FFB6B6"/>
<path id="Vector_33" d="M207.002 76.946C205.72 78.4982 203.814 78.4172 202.119 78.1697C201.584 78.0932 201.049 78.0078 200.514 77.9088C200.42 77.6074 200.312 77.3059 200.19 77.0135C199.689 75.7924 198.939 74.6892 197.987 73.7742C198.088 74.9705 197.995 76.1751 197.713 77.3419C196.72 77.1124 195.731 76.856 194.746 76.5726C193.875 76.4309 193.091 75.9596 192.557 75.2563C192.024 74.5529 191.78 73.6712 191.878 72.7934C190.461 73.8732 188.919 74.809 187.301 74.827C186.388 74.8033 185.508 74.4878 184.787 73.9267C184.067 73.3656 183.546 72.5884 183.299 71.7091C182.924 70.2851 182.858 68.7969 183.106 67.3451C183.322 65.6129 183.807 63.7099 184.976 63.0125C185.916 62.4456 186.999 62.8506 187.966 63.3094C190.096 64.3322 192.114 65.5714 193.991 67.0077L194.013 67.4801C194.499 65.1541 196.104 63.3589 197.853 63.179C199.03 63.062 200.181 63.6064 201.292 64.1553C202.743 64.796 204.093 65.6464 205.298 66.6792C206.659 67.9181 207.604 69.5476 208.004 71.3447C208.422 73.2928 208.108 75.6053 207.002 76.946Z" fill="#2F2E41"/>
<path id="Vector_34" d="M196.212 61.8086C196.324 61.818 196.049 61.755 196.138 61.7924C196.095 61.7724 196.053 61.7489 196.013 61.7221C196.006 61.7177 195.917 61.646 195.975 61.6959C195.842 61.5921 195.742 61.4518 195.686 61.292C195.562 60.9039 195.505 60.4976 195.516 60.0903C195.538 59.5549 195.447 59.021 195.248 58.5234C195.189 58.3887 195.099 58.2697 194.986 58.1762C194.872 58.0827 194.738 58.0173 194.595 57.9853C194.452 57.9533 194.303 57.9556 194.16 57.992C194.018 58.0284 193.886 58.0979 193.776 58.1948C193.465 58.6138 193.315 59.1304 193.352 59.6508C193.324 60.1544 193.378 60.6592 193.51 61.1458C193.739 61.9459 194.194 62.6623 194.822 63.2078C195.547 63.8433 196.458 64.228 197.419 64.3047C197.551 64.3018 197.679 64.2604 197.788 64.1858C197.897 64.1111 197.982 64.0064 198.033 63.8843C198.083 63.7622 198.097 63.628 198.073 63.4981C198.049 63.3682 197.987 63.2482 197.896 63.1526L196.689 62.0062C196.562 61.881 196.391 61.811 196.213 61.8116C196.035 61.8121 195.864 61.8832 195.738 62.0092C195.612 62.1353 195.541 62.306 195.541 62.4843C195.54 62.6625 195.61 62.8338 195.735 62.9606L196.942 64.107L197.419 62.955C197.22 62.937 197.023 62.8968 196.833 62.8351C196.627 62.7778 196.43 62.6914 196.248 62.5785C196.069 62.4807 195.902 62.3638 195.749 62.2298C195.651 62.1437 195.558 62.0527 195.469 61.9571C195.437 61.9224 195.405 61.8871 195.375 61.8512C195.377 61.8538 195.248 61.6915 195.303 61.7657C195.164 61.5747 195.042 61.3712 194.94 61.1577C194.905 61.0821 194.875 61.0036 194.852 60.9232C194.809 60.7909 194.774 60.6562 194.747 60.5197C194.696 60.2331 194.68 59.9412 194.701 59.6507C194.707 59.5276 194.719 59.4048 194.738 59.2828C194.755 59.2186 194.768 59.1532 194.776 59.0872C194.778 58.9233 194.753 59.1747 194.668 59.2129L194.328 59.305C194.272 59.3005 194.218 59.2835 194.17 59.2554C194.122 59.2273 194.081 59.1887 194.05 59.1426C194.036 59.0862 194.04 59.0962 194.062 59.1725C194.088 59.2621 194.108 59.3532 194.122 59.4453C194.148 59.6594 194.163 59.8746 194.167 60.0902C194.171 60.547 194.224 61.0019 194.325 61.4474C194.42 61.8951 194.653 62.3015 194.992 62.6087C195.33 62.9159 195.758 63.1082 196.212 63.1582C196.391 63.1568 196.561 63.0853 196.687 62.959C196.814 62.8327 196.885 62.6619 196.887 62.4833C196.883 62.3055 196.811 62.1359 196.685 62.0101C196.559 61.8844 196.39 61.8121 196.212 61.8086Z" fill="#2F2E41"/>
<path id="Vector_35" d="M169.408 64.5913C171.643 64.5913 173.455 62.7781 173.455 60.5414C173.455 58.3047 171.643 56.4915 169.408 56.4915C167.173 56.4915 165.361 58.3047 165.361 60.5414C165.361 62.7781 167.173 64.5913 169.408 64.5913Z" fill="#1C1A32"/>
<path id="Vector_36" d="M168.856 62.6492C168.786 62.6492 168.717 62.6329 168.654 62.6016C168.592 62.5703 168.537 62.5249 168.496 62.469L167.391 60.9958C167.355 60.9485 167.329 60.8945 167.314 60.8371C167.299 60.7796 167.296 60.7197 167.304 60.6609C167.312 60.602 167.332 60.5454 167.362 60.4942C167.392 60.443 167.432 60.3983 167.48 60.3627C167.527 60.327 167.581 60.3011 167.639 60.2865C167.696 60.2719 167.756 60.2687 167.815 60.2773C167.874 60.2859 167.93 60.3061 167.981 60.3366C168.032 60.3671 168.076 60.4074 168.112 60.4552L168.834 61.4189L170.689 58.6341C170.756 58.5347 170.858 58.4657 170.976 58.4423C171.093 58.4189 171.214 58.4429 171.314 58.5092C171.413 58.5755 171.482 58.6785 171.505 58.7957C171.529 58.9128 171.505 59.0345 171.438 59.1339L169.23 62.4486C169.19 62.5085 169.137 62.558 169.074 62.5929C169.011 62.6278 168.94 62.647 168.868 62.649L168.856 62.6492Z" fill="white"/>
<path id="Vector_37" d="M224.678 64.988C223.888 64.988 223.116 64.7535 222.458 64.3142C221.801 63.8748 221.289 63.2503 220.987 62.5197C220.684 61.7891 220.605 60.9851 220.759 60.2095C220.914 59.4339 221.294 58.7214 221.853 58.1622C222.412 57.603 223.124 57.2222 223.899 57.0679C224.674 56.9136 225.477 56.9928 226.207 57.2954C226.938 57.5981 227.562 58.1106 228.001 58.7681C228.44 59.4257 228.674 60.1987 228.674 60.9896C228.674 62.05 228.253 63.067 227.504 63.8169C226.754 64.5668 225.738 64.988 224.678 64.988Z" fill="#E6E6E6"/>
<path id="Vector_38" d="M226.072 61.8263L225.236 60.9896L226.072 60.1529C226.109 60.1163 226.138 60.0728 226.158 60.0249C226.178 59.9769 226.189 59.9255 226.189 59.8735C226.189 59.8215 226.179 59.77 226.159 59.7219C226.139 59.6738 226.11 59.6301 226.073 59.5933C226.037 59.5566 225.993 59.5274 225.945 59.5076C225.897 59.4878 225.845 59.4777 225.793 59.4778C225.742 59.478 225.69 59.4884 225.642 59.5086C225.594 59.5287 225.551 59.5581 225.514 59.5951L224.678 60.4318L223.842 59.5951C223.768 59.5215 223.668 59.4802 223.564 59.4803C223.459 59.4805 223.359 59.522 223.285 59.5959C223.212 59.6697 223.17 59.7698 223.17 59.8742C223.17 59.9786 223.211 60.0788 223.285 60.1529L224.121 60.9896L223.285 61.8263C223.248 61.8628 223.218 61.9063 223.198 61.9543C223.178 62.0022 223.168 62.0537 223.167 62.1057C223.167 62.1577 223.177 62.2092 223.197 62.2572C223.217 62.3053 223.246 62.349 223.283 62.3858C223.32 62.4225 223.363 62.4517 223.411 62.4715C223.459 62.4913 223.511 62.5015 223.563 62.5013C223.615 62.5011 223.666 62.4907 223.714 62.4706C223.762 62.4504 223.806 62.4211 223.842 62.3841L224.678 61.5473L225.514 62.3841C225.551 62.4209 225.594 62.4501 225.642 62.47C225.69 62.49 225.741 62.5003 225.793 62.5004C225.845 62.5004 225.896 62.4903 225.944 62.4705C225.992 62.4506 226.036 62.4215 226.072 62.3848C226.109 62.3482 226.138 62.3046 226.158 62.2566C226.178 62.2087 226.188 62.1573 226.188 62.1054C226.188 62.0535 226.178 62.0021 226.158 61.9542C226.138 61.9063 226.108 61.8628 226.072 61.8263Z" fill="white"/>
<path id="Vector_39" d="M251.871 27.066H15.6607C15.5048 27.066 15.3552 27.004 15.245 26.8936C15.1347 26.7833 15.0728 26.6336 15.0728 26.4776C15.0728 26.3215 15.1347 26.1719 15.245 26.0615C15.3552 25.9512 15.5048 25.8892 15.6607 25.8892H251.871C252.027 25.8892 252.177 25.9512 252.287 26.0615C252.397 26.1719 252.459 26.3215 252.459 26.4776C252.459 26.6336 252.397 26.7833 252.287 26.8936C252.177 27.004 252.027 27.066 251.871 27.066Z" fill="white"/>
<path id="Vector_40" d="M42.1315 17.6517C44.6411 17.6517 46.6754 15.5706 46.6754 13.0033C46.6754 10.4361 44.6411 8.35495 42.1315 8.35495C39.622 8.35495 37.5876 10.4361 37.5876 13.0033C37.5876 15.5706 39.622 17.6517 42.1315 17.6517Z" fill="white"/>
<path id="Vector_41" d="M57.8286 17.6517C60.3381 17.6517 62.3725 15.5706 62.3725 13.0033C62.3725 10.4361 60.3381 8.35495 57.8286 8.35495C55.319 8.35495 53.2847 10.4361 53.2847 13.0033C53.2847 15.5706 55.319 17.6517 57.8286 17.6517Z" fill="white"/>
<path id="Vector_42" d="M73.5258 17.6517C76.0354 17.6517 78.0697 15.5706 78.0697 13.0033C78.0697 10.4361 76.0354 8.35495 73.5258 8.35495C71.0163 8.35495 68.9819 10.4361 68.9819 13.0033C68.9819 15.5706 71.0163 17.6517 73.5258 17.6517Z" fill="white"/>
<path id="Vector_43" d="M91.4247 16.6773C91.3531 16.6774 91.2822 16.6631 91.2162 16.6353C91.1503 16.6076 91.0905 16.5668 91.0406 16.5155L87.9746 13.3792C87.8763 13.2788 87.8213 13.1438 87.8213 13.0032C87.8213 12.8627 87.8763 12.7277 87.9746 12.6273L91.0406 9.49115C91.0899 9.44067 91.1487 9.40041 91.2136 9.37267C91.2785 9.34493 91.3481 9.33025 91.4187 9.32947C91.4893 9.32869 91.5593 9.34183 91.6248 9.36813C91.6902 9.39443 91.7499 9.43337 91.8004 9.48274C91.8508 9.53212 91.891 9.59095 91.9188 9.65588C91.9465 9.72081 91.9611 9.79057 91.9619 9.86117C91.9627 9.93178 91.9496 10.0018 91.9233 10.0674C91.897 10.1329 91.8581 10.1926 91.8088 10.2431L89.1103 13.0032L91.8088 15.7636C91.8827 15.8393 91.9327 15.9351 91.9525 16.0391C91.9722 16.143 91.9609 16.2505 91.9199 16.3481C91.8789 16.4456 91.81 16.5289 91.7219 16.5875C91.6338 16.646 91.5304 16.6773 91.4247 16.6773V16.6773Z" fill="white"/>
<path id="Vector_44" d="M96.5766 16.6773C96.4708 16.6773 96.3674 16.646 96.2793 16.5875C96.1912 16.5289 96.1224 16.4456 96.0814 16.3481C96.0404 16.2505 96.029 16.143 96.0488 16.0391C96.0685 15.9351 96.1186 15.8393 96.1925 15.7636L98.8906 13.0032L96.1925 10.2431C96.0929 10.1411 96.0378 10.0038 96.0393 9.86117C96.0409 9.71858 96.099 9.58246 96.2009 9.48274C96.3028 9.38303 96.44 9.32789 96.5825 9.32947C96.725 9.33105 96.861 9.38921 96.9607 9.49115L100.026 12.6273C100.125 12.7277 100.18 12.8627 100.18 13.0032C100.18 13.1438 100.125 13.2788 100.026 13.3792L96.9607 16.5155C96.9107 16.5668 96.851 16.6075 96.785 16.6353C96.719 16.6631 96.6482 16.6774 96.5766 16.6773Z" fill="white"/>
<path id="Vector_45" d="M215.598 8.89313H209.897C209.743 8.89308 209.59 8.92352 209.447 8.98268C209.304 9.04184 209.174 9.12857 209.065 9.23792C208.956 9.34728 208.869 9.47711 208.81 9.62C208.751 9.76288 208.72 9.91603 208.72 10.0707V15.7809C208.72 15.9356 208.751 16.0887 208.81 16.2316C208.869 16.3745 208.956 16.5044 209.065 16.6137C209.174 16.7231 209.304 16.8098 209.447 16.869C209.59 16.9281 209.743 16.9585 209.897 16.9585H215.598C215.911 16.9588 216.211 16.835 216.432 16.6143C216.654 16.3935 216.779 16.0938 216.78 15.7809V10.0707C216.779 9.75779 216.654 9.45811 216.432 9.23737C216.211 9.01662 215.911 8.89283 215.598 8.89313Z" fill="white"/>
<path id="Vector_46" d="M201.628 8.89313H195.927C195.772 8.89308 195.619 8.92352 195.476 8.98268C195.334 9.04184 195.204 9.12857 195.095 9.23792C194.985 9.34728 194.899 9.47711 194.839 9.62C194.78 9.76288 194.75 9.91603 194.75 10.0707V15.7809C194.75 15.9356 194.78 16.0887 194.839 16.2316C194.899 16.3745 194.985 16.5044 195.095 16.6137C195.204 16.7231 195.334 16.8098 195.476 16.869C195.619 16.9281 195.772 16.9585 195.927 16.9585H201.628C201.94 16.9588 202.24 16.835 202.462 16.6143C202.684 16.3935 202.809 16.0938 202.81 15.7809V10.0707C202.809 9.75779 202.684 9.45811 202.462 9.23737C202.24 9.01662 201.94 8.89283 201.628 8.89313Z" fill="white"/>
<path id="Vector_47" d="M228.762 9.16196H223.062C222.907 9.16191 222.754 9.19234 222.611 9.25151C222.468 9.31067 222.339 9.3974 222.229 9.50675C222.12 9.61611 222.033 9.74594 221.974 9.88883C221.915 10.0317 221.885 10.1849 221.885 10.3395V16.0498C221.885 16.2044 221.915 16.3576 221.974 16.5005C222.033 16.6434 222.12 16.7732 222.229 16.8826C222.339 16.9919 222.468 17.0786 222.611 17.1378C222.754 17.197 222.907 17.2274 223.062 17.2273H228.762C229.075 17.2276 229.375 17.1039 229.597 16.8831C229.818 16.6624 229.943 16.3627 229.945 16.0498V10.3395C229.943 10.0266 229.818 9.72694 229.597 9.5062C229.375 9.28545 229.075 9.16165 228.762 9.16196Z" fill="white"/>
<path id="Vector_48" d="M166.476 11.3342H120.906C120.716 11.333 120.529 11.3692 120.354 11.4409C120.179 11.5125 120.019 11.618 119.885 11.7514C119.751 11.8849 119.644 12.0436 119.572 12.2183C119.499 12.3931 119.462 12.5806 119.462 12.7699C119.462 12.9592 119.499 13.1466 119.572 13.3214C119.644 13.4962 119.751 13.6549 119.885 13.7883C120.019 13.9217 120.179 14.0273 120.354 14.0989C120.529 14.1705 120.716 14.2067 120.906 14.2055H166.476C166.854 14.2031 167.217 14.0508 167.484 13.7818C167.751 13.5128 167.901 13.149 167.901 12.7699C167.901 12.3907 167.751 12.0269 167.484 11.7579C167.217 11.489 166.854 11.3367 166.476 11.3342Z" fill="white"/>
</g>
<defs>
<linearGradient id="paint0_linear_62_2027" x1="0" y1="0" x2="274" y2="223" gradientUnits="userSpaceOnUse">
<stop stop-color="#F5A822"/>
<stop offset="1" stop-color="#6ADDDD"/>
</linearGradient>
<clipPath id="clip0_62_2027">
<rect width="274" height="223" fill="white"/>
</clipPath>
</defs>
</svg>
