<svg width="340" height="203" viewBox="0 0 340 203" fill="none" xmlns="http://www.w3.org/2000/svg">
<g id="login 1" clip-path="url(#clip0_82_2607)">
<path id="Vector" d="M260.312 200.704C255.959 197.031 253.315 191.229 254.009 185.58C254.702 179.931 258.997 174.738 264.567 173.538C270.138 172.338 276.489 175.659 278.181 181.094C279.112 170.616 280.185 159.699 285.763 150.777C290.814 142.697 299.562 136.916 309.043 135.882C318.524 134.848 328.506 138.754 334.419 146.227C340.332 153.7 341.779 164.565 337.638 173.145C334.587 179.465 328.967 184.169 323.078 187.995C304.049 200.257 281.226 205.243 258.809 202.037L260.312 200.704Z" fill="#F2F2F2"/>
<path id="Vector_2" d="M325.043 138.971C317.22 145.334 310.043 152.451 303.617 160.218C293.559 172.333 285.42 185.916 279.484 200.493C279.049 201.557 280.778 202.019 281.208 200.968C290.921 177.276 306.427 156.395 326.308 140.233C327.2 139.507 325.928 138.251 325.043 138.971Z" fill="white"/>
<path id="Vector_3" d="M109.452 199.706C115.43 194.661 119.062 186.691 118.109 178.932C117.157 171.174 111.258 164.041 103.607 162.393C95.9553 160.746 87.2331 165.307 84.9091 172.771C83.6301 158.38 82.1562 143.386 74.4948 131.131C67.5575 120.034 55.542 112.094 42.52 110.673C29.498 109.253 15.7874 114.618 7.66605 124.882C-0.455325 135.146 -2.44381 150.069 3.24419 161.853C7.43434 170.534 15.1541 176.995 23.2424 182.251C49.0471 199.019 81.0577 206.013 111.516 201.536" fill="#F2F2F2"/>
<path id="Vector_4" d="M20.5433 114.915C31.2881 123.655 41.1453 133.43 49.9724 144.099C58.8009 154.757 66.5734 166.244 73.1808 178.401C76.874 185.22 80.1917 192.236 83.1191 199.416C83.7159 200.877 81.3409 201.513 80.7507 200.068C75.5656 187.409 69.1506 175.288 61.5977 163.879C54.0816 152.511 45.4789 141.897 35.9106 132.188C30.4988 126.7 24.7888 121.512 18.8066 116.649C17.5804 115.652 19.3273 113.926 20.5433 114.915L20.5433 114.915Z" fill="white"/>
<path id="Vector_5" d="M244.057 202.556H101.414V56.3955C101.414 25.2989 126.747 0 157.885 0H187.586C218.725 0 244.057 25.2989 244.057 56.3955V202.556Z" fill="#F2F2F2"/>
<path id="Vector_6" d="M214.356 202.556H101.414V56.3956C101.383 44.48 105.161 32.8656 112.198 23.2434C112.458 22.8903 112.717 22.5418 112.983 22.197C116.387 17.7385 120.438 13.8119 125.002 10.5469C125.26 10.3596 125.519 10.1755 125.782 9.99142C129.601 7.35212 133.732 5.19454 138.081 3.56779C138.339 3.47003 138.602 3.37208 138.865 3.27812C142.799 1.87627 146.876 0.916 151.023 0.415056C151.28 0.379989 151.543 0.352549 151.807 0.325109C155.848 -0.106335 159.923 -0.106335 163.964 0.325109C164.227 0.352549 164.491 0.379986 164.751 0.415431C168.896 0.916408 172.972 1.87656 176.905 3.27814C177.168 3.37209 177.431 3.47004 177.69 3.56799C181.985 5.17422 186.068 7.2996 189.846 9.89672C190.109 10.0768 190.372 10.2609 190.63 10.445C193.189 12.2687 195.592 14.3003 197.815 16.5193C199.598 18.2991 201.259 20.1964 202.788 22.1982C203.054 22.5418 203.312 22.8903 203.571 23.2429C210.609 32.8652 214.387 44.4798 214.356 56.3956V202.556Z" fill="#CCCCCC"/>
<path id="Vector_7" d="M205.172 137.184C208.626 137.184 211.425 134.388 211.425 130.939C211.425 127.49 208.626 124.695 205.172 124.695C201.719 124.695 198.92 127.49 198.92 130.939C198.92 134.388 201.719 137.184 205.172 137.184Z" fill="#6ADDDD"/>
<path id="Vector_8" d="M232.372 198.178H227.581L225.301 179.722L232.373 179.723L232.372 198.178Z" fill="#FFB8B8"/>
<path id="Vector_9" d="M224.158 196.811H233.398V202.621H218.341C218.341 201.858 218.491 201.102 218.783 200.397C219.076 199.692 219.504 199.052 220.045 198.512C220.585 197.973 221.226 197.545 221.932 197.253C222.638 196.961 223.394 196.811 224.158 196.811Z" fill="#2F2E41"/>
<path id="Vector_10" d="M256.211 198.178H251.42L249.14 179.722L256.212 179.723L256.211 198.178Z" fill="#FFB8B8"/>
<path id="Vector_11" d="M247.997 196.811H257.238V202.621H242.18C242.18 201.858 242.33 201.102 242.622 200.397C242.915 199.692 243.343 199.052 243.884 198.512C244.424 197.973 245.065 197.545 245.771 197.253C246.477 196.961 247.233 196.811 247.997 196.811Z" fill="#2F2E41"/>
<path id="Vector_12" d="M208.337 132.176C207.992 131.669 207.763 131.093 207.666 130.487C207.568 129.882 207.605 129.263 207.773 128.674C207.941 128.084 208.236 127.539 208.638 127.075C209.04 126.612 209.539 126.243 210.1 125.993L226.387 81.1627L234.401 85.5305L215.805 128.372C216.163 129.34 216.152 130.406 215.776 131.367C215.4 132.328 214.683 133.118 213.763 133.587C212.842 134.055 211.782 134.171 210.782 133.911C209.782 133.651 208.912 133.034 208.337 132.176Z" fill="#FFB8B8"/>
<path id="Vector_13" d="M253.764 140.6C253.231 140.295 252.772 139.877 252.419 139.376C252.066 138.875 251.827 138.302 251.719 137.699C251.611 137.096 251.637 136.476 251.795 135.884C251.953 135.291 252.239 134.741 252.633 134.271L247.587 86.8482L256.708 87.2643L258.805 133.911C259.552 134.624 260.01 135.586 260.094 136.615C260.178 137.644 259.881 138.667 259.259 139.492C258.638 140.316 257.735 140.884 256.722 141.089C255.71 141.293 254.657 141.119 253.764 140.6Z" fill="#FFB8B8"/>
<path id="Vector_14" d="M239.214 72.859C244.515 72.859 248.812 68.5673 248.812 63.2733C248.812 57.9793 244.515 53.6876 239.214 53.6876C233.913 53.6876 229.615 57.9793 229.615 63.2733C229.615 68.5673 233.913 72.859 239.214 72.859Z" fill="#FFB8B8"/>
<path id="Vector_15" d="M253.702 129.815H224.764L224.799 129.59C224.851 129.254 229.957 95.8543 226.191 84.9276C225.813 83.8538 225.847 82.6784 226.285 81.6276C226.722 80.5768 227.534 79.725 228.563 79.2359H228.563C233.945 76.7048 244.277 73.5881 252.996 81.1519C254.28 82.2833 255.282 83.6972 255.923 85.282C256.565 86.8667 256.828 88.5789 256.693 90.2829L253.702 129.815Z" fill="#6ADDDD"/>
<path id="Vector_16" d="M230.322 100.79L217.294 98.1506L223.401 83.6986C223.767 82.2988 224.673 81.101 225.922 80.3678C227.17 79.6346 228.659 79.4259 230.062 79.7874C231.464 80.149 232.666 81.0514 233.403 82.2966C234.14 83.5418 234.353 85.0281 233.994 86.4296L230.322 100.79Z" fill="#6ADDDD"/>
<path id="Vector_17" d="M247.008 105.691L246.225 87.7611C245.631 84.3906 247.563 81.2043 250.535 80.6835C253.507 80.1646 256.409 82.5022 257.006 85.8976L259.95 102.651L247.008 105.691Z" fill="#6ADDDD"/>
<path id="Vector_18" d="M252.74 127.668C257.396 145.378 257.904 167.894 256.648 192.455L250.395 191.674L239.061 144.84L232.809 192.455L225.774 192.064C223.673 166.294 221.626 144.171 224.992 129.619L252.74 127.668Z" fill="#2F2E41"/>
<path id="Vector_19" d="M245.538 70.6814C243.748 72.5863 240.422 71.5637 240.189 68.9614C240.171 68.7593 240.172 68.556 240.193 68.3542C240.313 67.2015 240.98 66.1549 240.82 64.9378C240.784 64.6349 240.671 64.3463 240.492 64.0992C239.065 62.191 235.716 64.9527 234.369 63.2252C233.543 62.166 234.514 60.4983 233.88 59.3144C233.044 57.7519 230.567 58.5227 229.013 57.667C227.285 56.7149 227.388 54.0665 228.526 52.4557C229.913 50.4912 232.346 49.4429 234.749 49.2918C237.151 49.1407 239.537 49.7893 241.78 50.6623C244.329 51.6541 246.856 53.0248 248.424 55.2627C250.331 57.9842 250.515 61.643 249.561 64.8253C248.981 66.7611 247.001 69.1259 245.538 70.6814Z" fill="#2F2E41"/>
<path id="Vector_20" d="M328.269 202.807H39.74C39.6168 202.806 39.4988 202.757 39.4118 202.67C39.3249 202.583 39.276 202.465 39.276 202.342C39.276 202.219 39.3249 202.101 39.4118 202.014C39.4988 201.927 39.6168 201.878 39.74 201.877H328.269C328.392 201.878 328.51 201.927 328.597 202.014C328.684 202.101 328.733 202.219 328.733 202.342C328.733 202.465 328.684 202.583 328.597 202.67C328.51 202.757 328.392 202.806 328.269 202.807Z" fill="#3F3D56"/>
<path id="Vector_21" d="M183.287 160.21H132.483C131.814 160.214 131.17 159.952 130.694 159.483C130.218 159.013 129.948 158.375 129.943 157.706V44.4589C129.948 43.7907 130.218 43.1519 130.694 42.6825C131.17 42.2131 131.814 41.9515 132.483 41.9551H183.287C183.956 41.9515 184.6 42.2131 185.076 42.6825C185.552 43.1519 185.822 43.7907 185.828 44.4589V157.706C185.822 158.375 185.552 159.013 185.076 159.483C184.6 159.952 183.956 160.214 183.287 160.21Z" fill="white"/>
<path id="Vector_22" d="M185.828 78.5985H129.943V79.379H185.828V78.5985Z" fill="#CCCCCC"/>
<path id="Vector_23" d="M186.023 123.134H130.138V123.914H186.023V123.134Z" fill="#CCCCCC"/>
<path id="Vector_24" d="M148.31 41.9552H147.529V160.6H148.31V41.9552Z" fill="#CCCCCC"/>
<path id="Vector_25" d="M167.851 41.9552H167.069V160.6H167.851V41.9552Z" fill="#CCCCCC"/>
</g>
<defs>
<clipPath id="clip0_82_2607">
<rect width="340" height="203" fill="white"/>
</clipPath>
</defs>
</svg>
