<svg width="33" height="33" viewBox="0 0 33 33" fill="none" xmlns="http://www.w3.org/2000/svg">
<path id="Vector" d="M29.5433 24.9419H26.901C26.7206 24.9419 26.5514 25.0225 26.4387 25.1644C26.1756 25.4906 25.8937 25.8052 25.5967 26.1045C24.3823 27.3456 22.9438 28.3347 21.3608 29.017C19.7208 29.7242 17.9581 30.087 16.1778 30.0837C14.3774 30.0837 12.6334 29.723 10.9947 29.017C9.41167 28.3347 7.97318 27.3456 6.75876 26.1045C5.54216 24.8677 4.57208 23.4017 3.90224 21.7877C3.2069 20.1147 2.85736 18.338 2.85736 16.5C2.85736 14.662 3.21066 12.8854 3.90224 11.2124C4.57127 9.5969 5.53346 8.1426 6.75876 6.89551C7.98405 5.64842 9.40856 4.6661 10.9947 3.98307C12.6334 3.27703 14.3774 2.91633 16.1778 2.91633C17.9781 2.91633 19.7221 3.27319 21.3608 3.98307C22.947 4.6661 24.3715 5.64842 25.5967 6.89551C25.8937 7.19865 26.1718 7.5133 26.4387 7.83563C26.5514 7.9776 26.7243 8.05818 26.901 8.05818H29.5433C29.78 8.05818 29.9266 7.78958 29.7951 7.58621C26.9123 3.01226 21.8682 -0.0152907 16.1364 5.80901e-05C7.13086 0.0230813 -0.0893698 7.48644 0.000836112 16.6689C0.091042 25.7055 7.29999 33 16.1778 33C21.8946 33 26.916 29.9763 29.7951 25.4139C29.9229 25.2105 29.78 24.9419 29.5433 24.9419ZM32.8846 16.2583L27.5512 11.9606C27.352 11.7995 27.0626 11.9453 27.0626 12.2024V15.1186H15.2607C15.0953 15.1186 14.96 15.2568 14.96 15.4256V17.5744C14.96 17.7433 15.0953 17.8814 15.2607 17.8814H27.0626V20.7977C27.0626 21.0548 27.3558 21.2006 27.5512 21.0394L32.8846 16.7418C32.9206 16.7131 32.9496 16.6764 32.9696 16.6345C32.9896 16.5926 33 16.5466 33 16.5C33 16.4534 32.9896 16.4075 32.9696 16.3656C32.9496 16.3237 32.9206 16.287 32.8846 16.2583Z" fill="#1C1A32"/>
</svg>
