<svg width="37" height="37" viewBox="0 0 37 37" fill="none" xmlns="http://www.w3.org/2000/svg">
<path id="Vector" d="M35.3393 0.196428C35.1654 0.196428 34.9869 0.22846 34.8085 0.301674L8.43302 10.8994H0.928554C0.525875 10.8994 0.196411 11.2381 0.196411 11.659V25.341C0.196411 25.7619 0.525875 26.1006 0.928554 26.1006H5.58224C5.41293 26.6314 5.32141 27.1942 5.32141 27.7662C5.32141 30.7817 7.78324 33.2344 10.8125 33.2344C13.3475 33.2344 15.4845 31.5138 16.1159 29.1893L34.813 36.7029C34.9915 36.7715 35.17 36.8081 35.3438 36.8081C36.1172 36.8081 36.8081 36.1584 36.8081 35.289V1.71562C36.8036 0.846205 36.1172 0.196428 35.3393 0.196428ZM10.8125 29.9535C9.59987 29.9535 8.61605 28.9742 8.61605 27.7662C8.61605 27.2537 8.79451 26.7641 9.1194 26.3751L13.0043 27.9355C12.9128 29.0612 11.9656 29.9535 10.8125 29.9535V29.9535ZM33.5089 32.6258L9.65936 23.0439L9.06907 22.8059H3.49105V14.1941H9.06907L9.65936 13.9561L33.5089 4.37422V32.6258V32.6258Z" fill="#1C1A32"/>
</svg>
