<svg width="296" height="167" viewBox="0 0 296 167" fill="none" xmlns="http://www.w3.org/2000/svg">
<g id="register 1">
<path id="Vector" d="M22.27 166.917L21.9585 166.34C26.1353 164.077 31.3335 161.262 34.0486 156.641C36.7251 152.087 36.7851 145.902 34.2053 140.5C32.0099 135.903 27.9769 131.785 22.5426 128.59C21.4706 127.959 20.3454 127.362 19.2572 126.784C16.6269 125.388 13.907 123.945 11.6643 121.896C8.57537 119.075 6.23822 114.341 7.98017 110.124C8.55306 108.778 9.49129 107.62 10.6883 106.781C11.8854 105.942 13.2933 105.456 14.7521 105.379L14.7891 106.034C13.4526 106.105 12.1627 106.55 11.0658 107.318C9.96896 108.086 9.10902 109.146 8.58361 110.379C6.96488 114.298 9.18577 118.745 12.1056 121.412C14.287 123.404 16.9697 124.828 19.5639 126.205C20.6583 126.786 21.79 127.386 22.8742 128.024C28.4216 131.285 32.5442 135.502 34.7962 140.217C37.4688 145.813 37.3986 152.234 34.6131 156.974C31.8055 161.752 26.5183 164.616 22.27 166.917Z" fill="#F1F1F1"/>
<path id="Vector_2" d="M18.9035 108.836C22.0688 108.836 24.6348 107.588 24.6348 106.048C24.6348 104.508 22.0688 103.26 18.9035 103.26C15.7382 103.26 13.1722 104.508 13.1722 106.048C13.1722 107.588 15.7382 108.836 18.9035 108.836Z" fill="#F1F1F1"/>
<path id="Vector_3" d="M23.4885 127.204C26.6538 127.204 29.2198 125.956 29.2198 124.416C29.2198 122.876 26.6538 121.628 23.4885 121.628C20.3232 121.628 17.7572 122.876 17.7572 124.416C17.7572 125.956 20.3232 127.204 23.4885 127.204Z" fill="#F1F1F1"/>
<path id="Vector_4" d="M13.0084 130.156C16.1737 130.156 18.7397 128.908 18.7397 127.368C18.7397 125.828 16.1737 124.58 13.0084 124.58C9.8431 124.58 7.2771 125.828 7.2771 127.368C7.2771 128.908 9.8431 130.156 13.0084 130.156Z" fill="#F1F1F1"/>
<path id="Vector_5" d="M29.3836 145.572C32.5489 145.572 35.1149 144.324 35.1149 142.784C35.1149 141.245 32.5489 139.996 29.3836 139.996C26.2183 139.996 23.6523 141.245 23.6523 142.784C23.6523 144.324 26.2183 145.572 29.3836 145.572Z" fill="#F1F1F1"/>
<path id="Vector_6" d="M40.8462 145.572C44.0115 145.572 46.5775 144.324 46.5775 142.784C46.5775 141.245 44.0115 139.996 40.8462 139.996C37.6809 139.996 35.1149 141.245 35.1149 142.784C35.1149 144.324 37.6809 145.572 40.8462 145.572Z" fill="#F1F1F1"/>
<path id="Rectangle 62" d="M296 5.06085H111.682V92.6556H296V5.06085Z" fill="#E6E6E6"/>
<path id="Rectangle 75" d="M290.73 12.5723H116.953V85.6553H290.73V12.5723Z" fill="white"/>
<path id="Rectangle 80" d="M295.921 0H111.604V7.84225H295.921V0Z" fill="#6ADDDD"/>
<path id="Ellipse 90" d="M117.423 5.08095C118.224 5.08095 118.874 4.43018 118.874 3.62742C118.874 2.82466 118.224 2.17389 117.423 2.17389C116.621 2.17389 115.971 2.82466 115.971 3.62742C115.971 4.43018 116.621 5.08095 117.423 5.08095Z" fill="white"/>
<path id="Ellipse 91" d="M122.931 5.08095C123.733 5.08095 124.383 4.43018 124.383 3.62742C124.383 2.82466 123.733 2.17389 122.931 2.17389C122.13 2.17389 121.48 2.82466 121.48 3.62742C121.48 4.43018 122.13 5.08095 122.931 5.08095Z" fill="white"/>
<path id="Ellipse 92" d="M128.44 5.08095C129.242 5.08095 129.892 4.43018 129.892 3.62742C129.892 2.82466 129.242 2.17389 128.44 2.17389C127.639 2.17389 126.989 2.82466 126.989 3.62742C126.989 4.43018 127.639 5.08095 128.44 5.08095Z" fill="white"/>
<path id="Path 142" d="M194.679 29.9163C194.492 29.9163 194.313 29.9905 194.182 30.1225C194.05 30.2546 193.976 30.4337 193.976 30.6204C193.976 30.8072 194.05 30.9863 194.182 31.1184C194.313 31.2504 194.492 31.3246 194.679 31.3246H233.26C233.446 31.3246 233.625 31.2504 233.757 31.1184C233.889 30.9863 233.963 30.8072 233.963 30.6204C233.963 30.4337 233.889 30.2546 233.757 30.1225C233.625 29.9905 233.446 29.9163 233.26 29.9163H194.679Z" fill="#E6E6E6"/>
<path id="Path 143" d="M194.679 34.1417C194.492 34.1421 194.314 34.2165 194.183 34.3485C194.051 34.4805 193.977 34.6594 193.977 34.8459C193.977 35.0324 194.051 35.2113 194.183 35.3433C194.314 35.4753 194.492 35.5497 194.679 35.5501H214.375C214.561 35.5497 214.74 35.4753 214.871 35.3433C215.003 35.2113 215.077 35.0324 215.077 34.8459C215.077 34.6594 215.003 34.4805 214.871 34.3485C214.74 34.2165 214.561 34.1421 214.375 34.1417H194.679Z" fill="#E6E6E6"/>
<path id="Path 142_2" d="M193.708 54.5937C193.521 54.5937 193.343 54.6679 193.211 54.7999C193.079 54.932 193.005 55.1111 193.005 55.2978C193.005 55.4846 193.079 55.6637 193.211 55.7958C193.343 55.9278 193.521 56.002 193.708 56.002H266.048C266.234 56.002 266.413 55.9278 266.545 55.7958C266.677 55.6637 266.751 55.4846 266.751 55.2978C266.751 55.1111 266.677 54.932 266.545 54.7999C266.413 54.6679 266.234 54.5937 266.048 54.5937H193.708Z" fill="#E6E6E6"/>
<path id="Path 143_2" d="M193.708 58.8192C193.522 58.8196 193.343 58.8939 193.212 59.0259C193.08 59.158 193.006 59.3368 193.006 59.5233C193.006 59.7098 193.08 59.8887 193.212 60.0207C193.343 60.1527 193.522 60.2271 193.708 60.2275H247.163C247.349 60.2271 247.528 60.1527 247.659 60.0207C247.791 59.8887 247.865 59.7098 247.865 59.5233C247.865 59.3368 247.791 59.158 247.659 59.0259C247.528 58.8939 247.349 58.8196 247.163 58.8192H193.708Z" fill="#E6E6E6"/>
<path id="Path 142_3" d="M193.708 62.949C193.522 62.9494 193.343 63.0238 193.212 63.1558C193.08 63.2878 193.006 63.4667 193.006 63.6532C193.006 63.8397 193.08 64.0186 193.212 64.1506C193.343 64.2826 193.522 64.357 193.708 64.3574H266.048C266.234 64.357 266.412 64.2826 266.544 64.1506C266.676 64.0186 266.749 63.8397 266.749 63.6532C266.749 63.4667 266.676 63.2878 266.544 63.1558C266.412 63.0238 266.234 62.9494 266.048 62.949H193.708Z" fill="#E6E6E6"/>
<path id="Path 143_3" d="M193.708 67.1745C193.522 67.1749 193.343 67.2492 193.212 67.3813C193.08 67.5133 193.006 67.6922 193.006 67.8786C193.006 68.0651 193.08 68.244 193.212 68.376C193.343 68.5081 193.522 68.5824 193.708 68.5828H247.163C247.349 68.5824 247.528 68.5081 247.659 68.376C247.791 68.244 247.865 68.0651 247.865 67.8786C247.865 67.6922 247.791 67.5133 247.659 67.3813C247.528 67.2492 247.349 67.1749 247.163 67.1745H193.708Z" fill="#E6E6E6"/>
<path id="Vector_7" d="M155.888 57.4515C159.269 57.4515 162.01 54.7062 162.01 51.3198C162.01 47.9333 159.269 45.188 155.888 45.188C152.507 45.188 149.766 47.9333 149.766 51.3198C149.766 54.7062 152.507 57.4515 155.888 57.4515Z" fill="#A0616A"/>
<path id="Vector_8" d="M153.949 46.4144C153.949 46.4144 156.806 47.1808 158.286 47.4874C159.766 47.794 159.613 46.9253 159.613 46.9253C159.613 46.9253 161.551 47.1808 161.449 46.9764C161.347 46.772 162.266 45.699 161.194 44.4726C160.123 43.2463 160.429 42.3265 160.429 42.3265H159.51L159.255 41.9688H157.827C157.827 41.9688 156.247 40.5818 153.441 40.9905C150.635 41.3993 147.317 42.4798 147.01 44.166C146.969 44.3948 146.914 44.6489 146.851 44.9172C146.084 48.1616 147.714 51.1973 149.405 54.0693C149.82 54.7751 151.831 56.3143 151.779 55.2583C151.728 54.2023 149.97 51.8307 151.194 51.6774C152.419 51.5241 154.51 48.4072 153.949 46.4144Z" fill="#2F2E41"/>
<path id="Vector_9" d="M152.415 71.1426C151.233 71.0479 150.061 70.855 148.911 70.566L148.975 69.3432L149.511 59.6206L149.516 59.546H160.301L161.994 68.4982L162.222 69.706C161.775 69.88 161.324 70.0441 160.862 70.1882C160.857 70.1882 160.857 70.1932 160.852 70.1932C160.212 70.392 159.562 70.566 158.906 70.7101C158.035 70.8983 157.154 71.0344 156.266 71.1177C155.58 71.1859 154.891 71.2191 154.202 71.2171C153.606 71.2171 153.005 71.1923 152.415 71.1426Z" fill="#6ADDDD"/>
<path id="Vector_10" d="M145.481 69.4128C145.035 69.2189 144.603 69.0102 144.176 68.7915L143.992 68.697C143.868 68.6324 143.739 68.5628 143.615 68.4932C143.446 68.3988 143.283 68.3044 143.124 68.2099C142.97 68.1204 142.811 68.026 142.657 67.9315C142.647 67.9266 142.643 67.9216 142.633 67.9216C142.097 67.5786 141.57 67.2257 141.064 66.843C140.98 66.7783 140.895 66.7137 140.811 66.6491L140.722 65.2176L140.851 65.138L149.511 59.6206L149.63 59.546L149.64 59.541L150.861 59.546V64.0991C151.551 65.0983 152.018 67.1909 152.306 69.9297C152.345 70.3224 152.38 70.725 152.415 71.1426C151.233 71.0479 150.061 70.855 148.911 70.566C148.787 70.5411 148.668 70.5113 148.544 70.4765C147.82 70.2869 147.108 70.0579 146.409 69.7906C146.196 69.711 145.988 69.6265 145.779 69.542L145.759 69.5321C145.67 69.4923 145.571 69.4526 145.481 69.4128Z" fill="#2F2E41"/>
<path id="Vector_11" d="M143.615 68.4932C143.446 68.3988 143.283 68.3043 143.124 68.2099C142.97 68.1204 142.811 68.026 142.657 67.9315C142.647 67.9266 142.643 67.9216 142.633 67.9216C142.097 67.5786 141.57 67.2257 141.064 66.843C140.98 66.7783 140.895 66.7137 140.811 66.6491C140.771 66.6143 140.732 66.5845 140.687 66.5497C140.369 66.3061 140.062 66.0526 139.764 65.7842C139.749 65.7743 139.739 65.7593 139.724 65.7494C140.025 65.5178 140.362 65.3381 140.722 65.2176L141.074 65.322L143.585 66.0775L143.6 67.0965L143.615 68.4932Z" fill="#2F2E41"/>
<path id="Vector_12" d="M164.763 68.5081C164.614 68.5876 164.465 68.6672 164.316 68.7417C164.282 68.7616 164.252 68.7765 164.222 68.7915C164.023 68.8909 163.83 68.9903 163.632 69.0847C163.627 69.0897 163.617 69.0897 163.617 69.0947C163.607 69.0997 163.592 69.1046 163.582 69.1096C163.135 69.3233 162.684 69.5221 162.222 69.7061C161.775 69.88 161.324 70.0441 160.862 70.1882C160.857 70.1882 160.857 70.1932 160.852 70.1932C160.212 70.392 159.562 70.566 158.906 70.7101C158.899 70.3018 158.953 69.8947 159.065 69.5023L159.07 69.4327L159.497 62.5135L158.926 59.546L160.564 59.3024L169.572 64.1588C169.572 64.1588 168.58 65.1529 164.505 67.2704C164.145 67.4577 164.674 68.0807 164.763 68.5081Z" fill="#2F2E41"/>
<path id="Vector_13" d="M156.157 69.9248C155.512 69.9844 154.857 70.0143 154.202 70.0143C153.566 70.0143 152.936 69.9894 152.306 69.9297C152.345 70.3224 152.38 70.7251 152.415 71.1426C153.005 71.1923 153.606 71.2172 154.202 71.2172C154.891 71.2191 155.58 71.1859 156.266 71.1177C157.154 71.0345 158.035 70.8984 158.906 70.7101C158.899 70.3018 158.953 69.8947 159.065 69.5023L159.07 69.4327C158.112 69.6662 157.139 69.8307 156.157 69.9248ZM174.913 42.0294C173.864 39.0121 172.17 36.2603 169.951 33.9658C167.731 31.6713 165.038 29.8894 162.06 28.7442C159.082 27.5991 155.89 27.1183 152.708 27.3354C149.525 27.5525 146.428 28.4623 143.633 30.0013C140.837 31.5403 138.411 33.6715 136.522 36.2462C134.633 38.821 133.328 41.7773 132.698 44.9092C132.067 48.041 132.126 51.2728 132.871 54.3794C133.615 57.486 135.028 60.3925 137.009 62.8963C137.208 63.1448 137.411 63.3933 137.62 63.6319C137.64 63.6518 137.65 63.6667 137.664 63.6816C138.177 64.2735 138.722 64.836 139.297 65.3667C139.436 65.4959 139.58 65.6252 139.724 65.7494C139.739 65.7593 139.749 65.7743 139.764 65.7842C140.062 66.0526 140.369 66.3061 140.687 66.5497C140.732 66.5845 140.771 66.6143 140.811 66.6491C140.895 66.7137 140.98 66.7784 141.064 66.843C141.57 67.2257 142.097 67.5786 142.633 67.9216C142.642 67.9216 142.647 67.9266 142.657 67.9315C142.811 68.026 142.97 68.1204 143.124 68.2099C143.283 68.3043 143.447 68.3988 143.615 68.4932C143.739 68.5628 143.868 68.6324 143.992 68.697L144.176 68.7915C144.603 69.0102 145.035 69.2189 145.481 69.4128C145.571 69.4526 145.67 69.4923 145.759 69.5321L145.779 69.542C145.988 69.6265 146.196 69.711 146.409 69.7906C147.108 70.0579 147.82 70.2869 148.543 70.4765C148.668 70.5113 148.787 70.5411 148.911 70.566C150.061 70.855 151.233 71.0479 152.415 71.1426C153.005 71.1923 153.606 71.2171 154.202 71.2171C154.891 71.2191 155.58 71.1859 156.266 71.1177C157.154 71.0345 158.035 70.8984 158.906 70.7101C159.562 70.566 160.212 70.392 160.852 70.1932C160.857 70.1932 160.857 70.1882 160.862 70.1882C161.324 70.0441 161.775 69.88 162.222 69.7061C162.684 69.5221 163.135 69.3233 163.582 69.1096C163.592 69.1046 163.607 69.0997 163.617 69.0947C163.617 69.0897 163.627 69.0897 163.632 69.0847C163.83 68.9903 164.023 68.8909 164.222 68.7915C164.252 68.7765 164.282 68.7617 164.316 68.7417C164.465 68.6672 164.614 68.5877 164.763 68.5081C164.773 68.5032 164.778 68.4982 164.788 68.4932C165.18 68.2745 165.567 68.0459 165.949 67.8023C166.054 67.7377 166.158 67.6731 166.262 67.5985C166.416 67.5041 166.565 67.3997 166.709 67.2953C166.902 67.1611 167.096 67.0219 167.284 66.8777C167.347 66.8374 167.407 66.7926 167.463 66.7436C167.925 66.3956 168.371 66.0278 168.798 65.6401C172.035 62.7516 174.343 58.9665 175.432 54.7638C176.52 50.561 176.34 46.1293 174.913 42.0294L174.913 42.0294ZM168.426 64.3576C167.889 64.8639 167.325 65.3417 166.738 65.7892C166.61 65.8886 166.475 65.988 166.341 66.0775C166.212 66.1769 166.083 66.2713 165.949 66.3608C165.835 66.4403 165.721 66.5199 165.602 66.5944C165.592 66.6044 165.577 66.6093 165.567 66.6193C165.483 66.6789 165.393 66.7336 165.309 66.7883C165.046 66.9523 164.773 67.1164 164.505 67.2704C164.441 67.3052 164.381 67.345 164.317 67.3798C164.282 67.3997 164.247 67.4196 164.207 67.4394C164.058 67.524 163.909 67.5985 163.761 67.678C163.741 67.6929 163.716 67.6979 163.696 67.7128C163.689 67.714 163.682 67.7175 163.676 67.7228C163.572 67.7775 163.468 67.8271 163.364 67.8768C163.274 67.9216 163.19 67.9663 163.1 68.0061C162.738 68.1801 162.366 68.3441 161.994 68.4982C161.602 68.6572 161.205 68.8014 160.803 68.9356C160.703 68.9704 160.599 69.0102 160.495 69.04C160.023 69.1891 159.552 69.3233 159.07 69.4327C158.112 69.6662 157.139 69.8307 156.157 69.9248C155.512 69.9844 154.857 70.0142 154.202 70.0142C153.566 70.0142 152.936 69.9894 152.306 69.9297C151.181 69.8267 150.067 69.6305 148.975 69.3432C148.936 69.3332 148.891 69.3233 148.851 69.3134C147.956 69.0795 147.078 68.7804 146.226 68.4187C146.181 68.3988 146.132 68.3839 146.092 68.364C146.042 68.3441 145.998 68.3292 145.958 68.3093C145.908 68.2894 145.863 68.2695 145.819 68.2496C145.447 68.0856 145.084 67.9067 144.722 67.7227L144.553 67.6333C144.231 67.4643 143.913 67.2903 143.6 67.0964C143.491 67.0368 143.377 66.9672 143.268 66.8976C143.144 66.8231 143.02 66.7435 142.9 66.664C142.871 66.6441 142.841 66.6242 142.811 66.6044C142.533 66.4155 142.25 66.2266 141.982 66.0228C141.794 65.8836 141.61 65.7494 141.426 65.6053C141.307 65.5158 141.188 65.4213 141.074 65.322C141 65.2673 140.925 65.2026 140.851 65.138C140.752 65.0535 140.652 64.969 140.553 64.8795C140.399 64.7553 140.255 64.6161 140.116 64.4869C139.557 63.9711 139.029 63.4234 138.533 62.8465C138.364 62.6576 138.205 62.4688 138.052 62.27C138.016 62.2308 137.983 62.1893 137.952 62.1457C135.454 58.9866 133.927 55.1676 133.559 51.1544C133.19 47.1412 133.996 43.1074 135.878 39.545C137.76 35.9827 140.636 33.0459 144.156 31.0928C147.676 29.1398 151.687 28.255 155.701 28.5463C159.714 28.8376 163.556 30.2925 166.758 32.7334C169.96 35.1744 172.383 38.4959 173.733 42.2927C175.082 46.0896 175.298 50.1976 174.356 54.1157C173.414 58.0337 171.353 61.5924 168.426 64.3576L168.426 64.3576Z" fill="#3F3D56"/>
<path id="Vector_14" d="M53.5259 162.917L57.5411 162.917L59.4511 147.406L53.5252 147.407L53.5259 162.917Z" fill="#A0616A"/>
<path id="Vector_15" d="M52.5018 161.604L60.409 161.604H60.4093C61.7458 161.604 63.0274 162.136 63.9724 163.082C64.9174 164.029 65.4484 165.312 65.4485 166.651V166.815L52.502 166.815L52.5018 161.604Z" fill="#2F2E41"/>
<path id="Vector_16" d="M68.591 162.917L72.6062 162.917L74.5162 147.406L68.5904 147.407L68.591 162.917Z" fill="#A0616A"/>
<path id="Vector_17" d="M67.567 161.604L75.4742 161.604H75.4745C76.8109 161.604 78.0926 162.136 79.0376 163.082C79.9826 164.029 80.5136 165.312 80.5137 166.651V166.815L67.5672 166.815L67.567 161.604Z" fill="#2F2E41"/>
<path id="Vector_18" d="M41.3429 101.628C41.6715 101.275 41.919 100.855 42.0679 100.397C42.2168 99.938 42.2635 99.4523 42.2046 98.9737C42.1458 98.4951 41.983 98.0353 41.7275 97.6266C41.4721 97.2178 41.1303 96.8702 40.7261 96.6081L43.5159 85.2249L37.7871 87.2693L36.0162 97.7655C35.6215 98.4747 35.5003 99.3041 35.6755 100.097C35.8507 100.889 36.3101 101.59 36.9667 102.066C37.6233 102.542 38.4314 102.761 39.238 102.68C40.0446 102.599 40.7935 102.225 41.3429 101.628Z" fill="#9E616A"/>
<path id="Vector_19" d="M83.9646 100.644C83.636 100.291 83.3885 99.8711 83.2396 99.4125C83.0907 98.954 83.044 98.4683 83.1028 97.9897C83.1617 97.5111 83.3245 97.0513 83.58 96.6426C83.8354 96.2339 84.1772 95.8862 84.5814 95.6241L81.7916 84.2409L87.5204 86.2853L89.2913 96.7816C89.686 97.4907 89.8072 98.3201 89.632 99.1128C89.4568 99.9054 88.9974 100.606 88.3408 101.082C87.6842 101.558 86.8761 101.777 86.0695 101.696C85.2629 101.615 84.514 101.241 83.9646 100.644Z" fill="#9E616A"/>
<path id="Vector_20" d="M46.6257 93.6485L52.191 158.942L60.334 158.198L63.593 107.735L66.494 127.717L67.075 159.456L74.4439 158.964L78.5357 124.819L77.5319 91.751L49.5575 88.9138L46.6257 93.6485Z" fill="#2F2E41"/>
<path id="Vector_21" d="M61.9349 34.2328C66.5989 34.2328 70.3798 30.4462 70.3798 25.7751C70.3798 21.104 66.5989 17.3174 61.9349 17.3174C57.2709 17.3174 53.49 21.104 53.49 25.7751C53.49 30.4462 57.2709 34.2328 61.9349 34.2328Z" fill="#A0616A"/>
<path id="Vector_22" d="M59.2607 19.0089C59.2607 19.0089 63.2016 20.0661 65.2425 20.489C67.2833 20.9119 67.0722 19.7137 67.0722 19.7137C67.0722 19.7137 69.7464 20.0661 69.6057 19.7842C69.4649 19.5023 70.7317 18.0222 69.2538 16.3306C67.776 14.6391 68.1982 13.3704 68.1982 13.3704H66.9315L66.5796 12.877H64.6091C64.6091 12.877 62.4305 10.9638 58.5599 11.5276C54.6893 12.0915 50.112 13.5818 49.6897 15.9077C49.6324 16.2232 49.557 16.5737 49.4695 16.9439C48.4111 21.419 50.6599 25.6062 52.9924 29.5677C53.5656 30.5413 56.3383 32.6642 56.2674 31.2077C56.1965 29.7511 53.7714 26.4799 55.4604 26.2685C57.1494 26.057 60.0348 21.7577 59.2607 19.0089Z" fill="#2F2E41"/>
<path id="Vector_23" d="M53.1471 37.122H68.0196L78.5357 92.7427C78.5357 92.7427 69.3676 93.5278 64.1275 95.4958C58.8875 97.4638 50.1764 91.0003 50.1764 91.0003L53.1471 37.122Z" fill="#6ADDDD"/>
<path id="Vector_24" d="M55.0038 43.4031V37.122L53.3199 37.1117L41.0166 44.946L43.6863 87.8691C43.6863 87.8691 46.846 102.189 51.6386 102.04C56.4312 101.892 60.1266 50.8425 55.0038 43.4031Z" fill="#2F2E41"/>
<path id="Vector_25" d="M44.9685 46.1317L41.0166 44.946C41.0166 44.946 38.091 45.8037 38.091 48.7557C38.091 51.7077 35.5702 93.6485 35.5702 93.6485L43.5779 94.3573L45.296 73.0278L44.9685 46.1317Z" fill="#2F2E41"/>
<path id="Vector_26" d="M66.9113 41.2117L66.1235 37.122L68.3851 36.7837L76.5726 40.0637C76.5726 40.0637 83.9415 94.0198 80.6664 95.6598C77.3914 97.2998 75.1801 96.0292 75.1801 96.0292C75.1801 96.0292 64.4081 56.2341 66.3147 50.8549L66.9113 41.2117Z" fill="#2F2E41"/>
<path id="Vector_27" d="M70.8413 40.8837L72.2387 40.2746C72.2387 40.2746 76.34 38.2391 78.667 42.3494C80.9939 46.4597 89.1815 92.3798 89.1815 92.3798L82.4447 93.6485L77.4082 77.1226L70.8413 40.8837Z" fill="#2F2E41"/>
<path id="Vector_28" d="M125.106 167H0.327504C0.240644 167 0.157342 166.965 0.0959233 166.904C0.0345045 166.842 0 166.759 0 166.672C0 166.585 0.0345045 166.502 0.0959233 166.44C0.157342 166.379 0.240644 166.344 0.327504 166.344H125.106C125.193 166.344 125.277 166.379 125.338 166.44C125.399 166.502 125.434 166.585 125.434 166.672C125.434 166.759 125.399 166.842 125.338 166.904C125.277 166.965 125.193 167 125.106 167Z" fill="#CACACA"/>
</g>
</svg>
