<svg width="18" height="12" viewBox="0 0 18 12" fill="none" xmlns="http://www.w3.org/2000/svg">
<path id="Vector" d="M17.9642 11.7023L9.61355 0.309375C9.31041 -0.103125 8.68991 -0.103125 8.38914 0.309375L0.0361458 11.7023C0.0155898 11.7304 0.00327572 11.7635 0.000568199 11.798C-0.00213932 11.8325 0.0048656 11.8671 0.0208066 11.8979C0.0367476 11.9287 0.0610018 11.9546 0.0908809 11.9726C0.12076 11.9906 0.155097 12.0001 0.190085 12H1.96631C2.08709 12 2.20077 11.9414 2.27182 11.8453L9.00016 2.66719L15.7285 11.8453C15.7995 11.9414 15.9132 12 16.034 12H17.8102C17.9642 12 18.0542 11.8266 17.9642 11.7023Z" fill="#1C1A32"/>
</svg>
