<svg width="245" height="195" viewBox="0 0 245 195" fill="none" xmlns="http://www.w3.org/2000/svg">
<g id="sentMail 1" clip-path="url(#clip0_262_2773)">
<path id="Vector" d="M242.851 74.5719C242.763 74.572 242.677 74.5482 242.605 74.5037L123.733 1.10218C123.372 0.879843 122.942 0.761023 122.502 0.761689C122.061 0.762355 121.632 0.882472 121.271 1.1059L3.25563 74.5029C3.16229 74.561 3.04676 74.5838 2.93446 74.5663C2.82216 74.5488 2.72228 74.4925 2.65681 74.4097C2.59133 74.327 2.56562 74.2245 2.58533 74.125C2.60504 74.0254 2.66856 73.9368 2.7619 73.8788L120.778 0.481771C121.283 0.16902 121.884 0.000901542 122.5 3.61573e-06C123.116 -0.00089431 123.718 0.16547 124.225 0.476747L243.096 73.878C243.172 73.9244 243.228 73.9909 243.258 74.0677C243.287 74.1445 243.288 74.2276 243.261 74.3051C243.233 74.3825 243.179 74.4501 243.105 74.4981C243.031 74.5461 242.942 74.572 242.851 74.5719L242.851 74.5719Z" fill="#3F3D56"/>
<path id="Vector_2" d="M9.99939 77.1738L122.619 3.17038L236.092 82.4395L128.421 139.033L69.9651 127.219L9.99939 77.1738Z" fill="#E6E6E6"/>
<path id="Vector_3" d="M74.8993 173.988H19.2627C18.9211 173.989 18.5827 173.93 18.2669 173.814C17.9512 173.698 17.6643 173.529 17.4225 173.314C17.1808 173.1 16.9891 172.846 16.8582 172.566C16.7274 172.287 16.66 171.987 16.66 171.684C16.66 171.381 16.7274 171.081 16.8582 170.801C16.9891 170.521 17.1808 170.267 17.4225 170.053C17.6643 169.839 17.9512 169.669 18.2669 169.554C18.5827 169.438 18.9211 169.379 19.2627 169.379H74.8993C75.2409 169.379 75.5793 169.438 75.8951 169.554C76.2108 169.669 76.4977 169.839 76.7395 170.053C76.9812 170.267 77.173 170.521 77.3038 170.801C77.4346 171.081 77.502 171.381 77.502 171.684C77.502 171.987 77.4346 172.287 77.3038 172.566C77.173 172.846 76.9812 173.1 76.7395 173.314C76.4977 173.529 76.2108 173.698 75.8951 173.814C75.5793 173.93 75.2409 173.989 74.8993 173.988V173.988Z" fill="#6ADDDD"/>
<path id="Vector_4" d="M39.2239 164.08H19.2627C18.9211 164.08 18.5827 164.021 18.2669 163.905C17.9512 163.79 17.6643 163.62 17.4225 163.406C17.1808 163.192 16.9891 162.938 16.8582 162.658C16.7274 162.378 16.66 162.078 16.66 161.775C16.66 161.472 16.7274 161.172 16.8582 160.893C16.9891 160.613 17.1808 160.359 17.4225 160.144C17.6643 159.93 17.9512 159.761 18.2669 159.645C18.5827 159.529 18.9211 159.47 19.2627 159.47H39.2239C39.5655 159.47 39.9039 159.529 40.2196 159.645C40.5354 159.761 40.8223 159.93 41.064 160.144C41.3057 160.359 41.4975 160.613 41.6283 160.893C41.7592 161.172 41.8265 161.472 41.8265 161.775C41.8265 162.078 41.7592 162.378 41.6283 162.658C41.4975 162.938 41.3057 163.192 41.064 163.406C40.8223 163.62 40.5354 163.79 40.2196 163.905C39.9039 164.021 39.5655 164.08 39.2239 164.08Z" fill="#6ADDDD"/>
<path id="Vector_5" d="M124.202 118.393C123.779 118.393 123.36 118.32 122.969 118.179L53.5133 92.6262V12.6429C53.5142 11.9356 53.8315 11.2576 54.3956 10.7575C54.9596 10.2573 55.7244 9.97601 56.5221 9.97519H189.768C190.565 9.97601 191.33 10.2573 191.894 10.7575C192.458 11.2576 192.776 11.9356 192.776 12.6429V92.682L192.646 92.7315L125.473 118.166C125.071 118.316 124.639 118.393 124.202 118.393Z" fill="white"/>
<path id="Vector_6" d="M124.202 118.583C123.751 118.584 123.305 118.506 122.887 118.355L53.2983 92.7535V12.6429C53.2993 11.8851 53.6393 11.1586 54.2436 10.6228C54.848 10.0869 55.6673 9.7855 56.522 9.78464H189.768C190.622 9.7855 191.442 10.0869 192.046 10.6228C192.65 11.1586 192.99 11.8851 192.991 12.6429V92.8078L125.557 118.341C125.128 118.501 124.668 118.583 124.202 118.583V118.583ZM54.158 92.2443L123.215 117.65C123.859 117.882 124.58 117.878 125.221 117.64L192.132 92.3046V12.6429C192.131 12.0872 191.882 11.5544 191.438 11.1615C190.995 10.7685 190.394 10.5475 189.768 10.5468H56.522C55.8953 10.5475 55.2944 10.7685 54.8512 11.1615C54.4081 11.5544 54.1587 12.0872 54.158 12.6429L54.158 92.2443Z" fill="#3F3D56"/>
<path id="Vector_7" d="M241.991 73.8098H241.905L192.561 92.4914L125.049 118.052C124.785 118.15 124.502 118.202 124.216 118.203C123.93 118.204 123.646 118.155 123.381 118.059L53.7281 92.438L3.17205 73.8402L3.09482 73.8098H3.00877C2.21107 73.8105 1.44629 74.0918 0.882224 74.592C0.318161 75.0921 0.000885116 75.7702 0 76.4775V192.332C0.000886252 193.04 0.318162 193.718 0.882224 194.218C1.44629 194.718 2.21107 194.999 3.00877 195H241.991C242.789 194.999 243.554 194.718 244.118 194.218C244.682 193.718 244.999 193.04 245 192.332V76.4775C244.999 75.7702 244.682 75.0921 244.118 74.592C243.554 74.0918 242.789 73.8105 241.991 73.8098V73.8098ZM244.14 192.332C244.14 192.838 243.914 193.322 243.511 193.679C243.108 194.037 242.561 194.238 241.991 194.238H3.00877C2.43886 194.238 1.89236 194.037 1.48937 193.679C1.08638 193.322 0.859877 192.838 0.859649 192.332V76.4775C0.860429 75.9847 1.07601 75.5113 1.46131 75.1562C1.84661 74.801 2.37181 74.5917 2.92713 74.572L53.7281 93.2612L123.05 118.764C123.801 119.035 124.642 119.031 125.389 118.753L192.561 93.3183L242.077 74.572C242.632 74.5932 243.155 74.8031 243.54 75.158C243.924 75.5129 244.139 75.9855 244.14 76.4775V192.332Z" fill="#3F3D56"/>
<path id="Vector_8" d="M123.508 95.7125C120.944 95.7167 118.448 94.9816 116.396 93.6179L116.269 93.5332L89.4861 75.3518C88.2457 74.5092 87.2047 73.4582 86.4225 72.2588C85.6402 71.0595 85.132 69.7352 84.927 68.3617C84.7219 66.9883 84.824 65.5924 85.2274 64.2539C85.6307 62.9154 86.3275 61.6604 87.2779 60.5607C88.2282 59.4609 89.4136 58.5379 90.7663 57.8443C92.119 57.1507 93.6125 56.7001 95.1616 56.5183C96.7107 56.3365 98.285 56.427 99.7946 56.7847C101.304 57.1423 102.72 57.7601 103.96 58.6027L121.308 70.397L162.304 22.993C163.254 21.8935 164.44 20.9708 165.793 20.2777C167.146 19.5845 168.64 19.1344 170.189 18.9531C171.738 18.7718 173.312 18.8628 174.822 19.2209C176.331 19.5791 177.747 20.1973 178.987 21.0404L178.732 21.3473L178.993 21.0449C181.495 22.7494 183.131 25.264 183.544 28.0371C183.957 30.8101 183.112 33.6151 181.195 35.8367L132.975 91.5952C131.859 92.88 130.425 93.9198 128.783 94.6339C127.142 95.3479 125.337 95.717 123.508 95.7125V95.7125Z" fill="#6ADDDD"/>
</g>
<defs>
<clipPath id="clip0_262_2773">
<rect width="245" height="195" fill="white"/>
</clipPath>
</defs>
</svg>
