<svg width="119" height="119" viewBox="0 0 119 119" fill="none" xmlns="http://www.w3.org/2000/svg">
<path id="Vector" d="M117.71 0.0145411L89.0812 4.75953C88.1327 4.91769 87.7303 6.51912 88.4058 7.44835L96.9284 19.1724L64.4476 63.8544L49.8169 43.7475C48.9114 42.5019 47.4599 42.5217 46.5688 43.7475L0.334007 107.37C0.120033 107.667 0 108.069 0 108.487C0 108.905 0.120033 109.307 0.334007 109.604L6.80142 118.54C7.24695 119.153 7.97992 119.153 8.42546 118.54L48.1928 63.8544L62.8092 83.9613C63.7146 85.187 65.1662 85.187 66.0573 83.9613L105.063 30.3429L113.586 42.067C113.738 42.276 113.931 42.4219 114.141 42.4881C114.351 42.5543 114.57 42.538 114.774 42.4412C114.977 42.3444 115.157 42.1709 115.293 41.9405C115.428 41.71 115.514 41.4319 115.54 41.1378L118.989 1.75437C119.09 0.746057 118.458 -0.123854 117.71 0.0145411Z" fill="black" fill-opacity="0.2"/>
</svg>
