<svg width="297" height="255" viewBox="0 0 297 255" fill="none" xmlns="http://www.w3.org/2000/svg">
<g id="done 1" clip-path="url(#clip0_262_2743)">
<path id="Path 438" d="M22.302 234.011C24.0134 234.613 25.8509 234.764 27.6374 234.449C29.424 234.134 31.0994 233.364 32.5022 232.213C36.0748 229.213 37.1951 224.271 38.1063 219.695L40.802 206.157L35.1583 210.045C31.0993 212.841 26.9492 215.727 24.1391 219.777C21.329 223.827 20.103 229.357 22.3602 233.739" fill="#E6E6E6"/>
<path id="Path 439" d="M23.1735 251.344C22.4631 246.165 21.7323 240.92 22.2317 235.687C22.6744 231.039 24.0917 226.499 26.9772 222.776C28.5087 220.804 30.3724 219.114 32.4844 217.783C33.0349 217.435 33.5418 218.308 32.9936 218.654C29.3392 220.965 26.5127 224.377 24.9214 228.399C23.1641 232.871 22.8819 237.746 23.1846 242.497C23.3676 245.37 23.7564 248.224 24.1469 251.075C24.1777 251.204 24.1584 251.339 24.093 251.455C24.0276 251.57 23.9208 251.656 23.7944 251.696C23.6654 251.73 23.5279 251.713 23.4117 251.647C23.2955 251.581 23.2101 251.472 23.1738 251.343L23.1735 251.344Z" fill="#F2F2F2"/>
<path id="Path 442" d="M28.2866 243.035C29.0205 244.151 30.0294 245.06 31.216 245.673C32.4027 246.286 33.7272 246.582 35.0618 246.535C38.4925 246.372 41.3514 243.977 43.9247 241.703L51.5377 234.977L46.4994 234.736C42.876 234.562 39.1591 234.399 35.7079 235.519C32.2568 236.638 29.074 239.328 28.443 242.902" fill="#E6E6E6"/>
<path id="Path 443" d="M21.1656 254.32C24.5855 248.266 28.5519 241.537 35.64 239.386C37.6106 238.79 39.6769 238.577 41.7277 238.757C42.3741 238.813 42.2127 239.81 41.5676 239.754C38.1299 239.469 34.6989 240.377 31.8521 242.326C29.1126 244.192 26.9796 246.786 25.1744 249.536C24.0686 251.221 23.078 252.977 22.0875 254.731C21.771 255.292 20.8454 254.887 21.1656 254.32Z" fill="#F2F2F2"/>
<path id="Path 141" d="M294.809 179.578H106.265C105.684 179.577 105.127 179.346 104.716 178.935C104.305 178.524 104.074 177.967 104.073 177.385V2.19265C104.074 1.61136 104.305 1.05409 104.716 0.643051C105.127 0.232015 105.684 0.000759895 106.265 0H294.809C295.39 0.000759895 295.946 0.232015 296.357 0.643051C296.768 1.05409 296.999 1.61136 297 2.19265V177.385C296.999 177.966 296.768 178.524 296.357 178.935C295.947 179.346 295.39 179.577 294.809 179.578V179.578Z" fill="white"/>
<path id="Path 141_2" d="M294.809 179.578H106.265C105.684 179.577 105.127 179.346 104.716 178.935C104.305 178.524 104.074 177.967 104.073 177.385V2.19265C104.074 1.61136 104.305 1.05409 104.716 0.643051C105.127 0.232015 105.684 0.000759895 106.265 0H294.809C295.39 0.000759895 295.946 0.232015 296.357 0.643051C296.768 1.05409 296.999 1.61136 297 2.19265V177.385C296.999 177.966 296.768 178.524 296.357 178.935C295.947 179.346 295.39 179.577 294.809 179.578V179.578ZM106.265 0.875332C105.917 0.876088 105.583 1.01482 105.337 1.26116C105.091 1.5075 104.952 1.84139 104.951 2.18977V177.385C104.952 177.733 105.091 178.067 105.337 178.314C105.583 178.56 105.917 178.699 106.265 178.7H294.809C295.157 178.699 295.491 178.56 295.737 178.314C295.983 178.067 296.122 177.733 296.122 177.385V2.19265C296.122 1.84427 295.983 1.51038 295.737 1.26404C295.49 1.0177 295.157 0.878965 294.809 0.878209L106.265 0.875332Z" fill="#CACACA"/>
<path id="Path 142" d="M195.355 45.5244C194.961 45.5251 194.583 45.6822 194.305 45.9613C194.026 46.2404 193.87 46.6187 193.87 47.013C193.87 47.4074 194.026 47.7856 194.305 48.0647C194.583 48.3438 194.961 48.501 195.355 48.5016H276.992C277.386 48.501 277.764 48.3438 278.042 48.0647C278.321 47.7856 278.477 47.4074 278.477 47.013C278.477 46.6187 278.321 46.2404 278.042 45.9613C277.764 45.6822 277.386 45.5251 276.992 45.5244H195.355Z" fill="#E4E4E4"/>
<path id="Path 143" d="M195.355 54.4568C194.961 54.4578 194.584 54.6151 194.306 54.8941C194.027 55.1732 193.871 55.5513 193.871 55.9455C193.871 56.3396 194.027 56.7177 194.306 56.9968C194.584 57.2758 194.961 57.4331 195.355 57.434H237.032C237.426 57.4331 237.804 57.2758 238.082 56.9968C238.36 56.7177 238.517 56.3396 238.517 55.9455C238.517 55.5513 238.36 55.1732 238.082 54.8941C237.804 54.6151 237.426 54.4578 237.032 54.4568H195.355Z" fill="#E4E4E4"/>
<path id="Path 142_2" d="M124.002 102.492C123.608 102.493 123.231 102.65 122.952 102.93C122.674 103.209 122.518 103.587 122.518 103.981C122.518 104.375 122.674 104.753 122.952 105.032C123.231 105.311 123.608 105.468 124.002 105.469H277.071C277.465 105.468 277.843 105.311 278.121 105.032C278.399 104.753 278.555 104.375 278.555 103.981C278.555 103.587 278.399 103.209 278.121 102.93C277.843 102.65 277.465 102.493 277.071 102.492H124.002Z" fill="#E4E4E4"/>
<path id="Path 143_2" d="M124.002 111.425C123.608 111.426 123.231 111.583 122.952 111.862C122.674 112.141 122.518 112.519 122.518 112.913C122.518 113.307 122.674 113.686 122.952 113.965C123.231 114.244 123.608 114.401 124.002 114.402H237.112C237.506 114.401 237.883 114.244 238.161 113.965C238.44 113.686 238.596 113.307 238.596 112.913C238.596 112.519 238.44 112.141 238.161 111.862C237.883 111.583 237.506 111.426 237.112 111.425H124.002Z" fill="#E4E4E4"/>
<path id="Path 142_3" d="M124.002 120.155C123.608 120.156 123.231 120.313 122.952 120.592C122.674 120.871 122.518 121.249 122.518 121.644C122.518 122.038 122.674 122.416 122.952 122.695C123.231 122.974 123.608 123.131 124.002 123.132H277.071C277.465 123.131 277.843 122.974 278.121 122.695C278.399 122.416 278.555 122.038 278.555 121.644C278.555 121.249 278.399 120.871 278.121 120.592C277.843 120.313 277.465 120.156 277.071 120.155H124.002Z" fill="#E4E4E4"/>
<path id="Path 143_3" d="M124.002 129.087C123.608 129.088 123.231 129.246 122.952 129.525C122.674 129.804 122.518 130.182 122.518 130.576C122.518 130.97 122.674 131.348 122.952 131.627C123.231 131.906 123.608 132.064 124.002 132.065H237.112C237.506 132.064 237.883 131.906 238.161 131.627C238.44 131.348 238.596 130.97 238.596 130.576C238.596 130.182 238.44 129.804 238.161 129.525C237.883 129.246 237.506 129.088 237.112 129.087H124.002Z" fill="#E4E4E4"/>
<path id="Path 142_4" d="M124.002 138.05C123.608 138.051 123.231 138.208 122.952 138.488C122.674 138.767 122.518 139.145 122.518 139.539C122.518 139.933 122.674 140.311 122.952 140.59C123.231 140.869 123.608 141.026 124.002 141.027H277.071C277.465 141.026 277.843 140.869 278.121 140.59C278.399 140.311 278.555 139.933 278.555 139.539C278.555 139.145 278.399 138.767 278.121 138.488C277.843 138.208 277.465 138.051 277.071 138.05H124.002Z" fill="#E4E4E4"/>
<path id="Path 143_4" d="M124.002 146.983C123.608 146.984 123.231 147.141 122.952 147.42C122.674 147.699 122.518 148.077 122.518 148.471C122.518 148.865 122.674 149.244 122.952 149.523C123.231 149.802 123.608 149.959 124.002 149.96H237.112C237.506 149.959 237.883 149.802 238.161 149.523C238.44 149.244 238.596 148.865 238.596 148.471C238.596 148.077 238.44 147.699 238.161 147.42C237.883 147.141 237.506 146.984 237.112 146.983H124.002Z" fill="#E4E4E4"/>
<path id="Vector" d="M148.247 72.8662C144.019 72.8662 139.887 71.6119 136.371 69.2619C132.856 66.9119 130.116 63.5717 128.499 59.6637C126.881 55.7558 126.457 51.4555 127.282 47.3068C128.107 43.1582 130.143 39.3473 133.132 36.3563C136.121 33.3652 139.93 31.3283 144.076 30.503C148.223 29.6778 152.521 30.1013 156.426 31.7201C160.332 33.3388 163.671 36.08 166.019 39.5971C168.368 43.1142 169.622 47.2492 169.622 51.4791C169.615 57.1493 167.361 62.5854 163.354 66.5949C159.347 70.6043 153.914 72.8597 148.247 72.8662Z" fill="#6ADDDD"/>
<path id="Vector_2" d="M83.3619 153.732C83.3249 152.951 83.1173 152.188 82.7538 151.497C82.3902 150.805 81.8795 150.202 81.2576 149.729C80.6357 149.256 79.9177 148.925 79.1543 148.76C78.3909 148.595 77.6006 148.599 76.839 148.773L69.7737 138.81L62.6757 141.63L72.8507 155.558C73.2269 156.819 74.0521 157.898 75.1702 158.591C76.2883 159.283 77.6214 159.542 78.917 159.317C80.2127 159.091 81.3808 158.399 82.2 157.369C83.0192 156.34 83.4326 155.046 83.3619 153.732H83.3619Z" fill="#A0616A"/>
<path id="Vector_3" d="M69.5919 152.994L48.2134 125.244L56.2237 100.055C56.8107 93.7218 60.7714 91.9535 60.9399 91.8812L61.197 91.7709L68.1675 110.37L63.0495 124.025L75.6114 145.164L69.5919 152.994Z" fill="#3F3D56"/>
<path id="Vector_4" d="M143.836 67.4504C143.061 67.5476 142.317 67.8137 141.655 68.2298C140.994 68.646 140.433 69.2021 140.009 69.8591C139.586 70.516 139.312 71.2578 139.207 72.0321C139.101 72.8064 139.167 73.5945 139.398 74.3408L130.018 82.1592L133.376 89.0219L146.468 77.7947C147.696 77.322 148.707 76.4153 149.311 75.2464C149.914 74.0776 150.069 72.7277 149.744 71.4526C149.42 70.1775 148.639 69.0659 147.55 68.3282C146.461 67.5906 145.14 67.2782 143.836 67.4504Z" fill="#A0616A"/>
<path id="Vector_5" d="M144.165 81.2439L118.166 104.716L92.4473 98.6726C86.0915 98.5766 84.0232 94.7624 83.9382 94.5998L83.8083 94.3519L101.802 85.9604L115.805 90.0101L135.898 75.8444L144.165 81.2439Z" fill="#3F3D56"/>
<path id="Vector_6" d="M99.1317 248.106L106.117 248.105L109.44 221.147L99.1304 221.148L99.1317 248.106Z" fill="#A0616A"/>
<path id="Vector_7" d="M119.589 254.595L97.635 254.596L97.6346 246.109L113.429 246.108C115.063 246.108 116.629 246.757 117.784 247.913C118.939 249.069 119.588 250.636 119.589 252.271L119.589 254.595L119.589 254.595Z" fill="#2F2E41"/>
<path id="Vector_8" d="M71.2127 248.106L78.198 248.105L81.5211 221.147L71.2118 221.148L71.2127 248.106Z" fill="#A0616A"/>
<path id="Vector_9" d="M91.6699 254.595L69.7163 254.596L69.7159 246.109L85.5104 246.108C86.3192 246.108 87.1202 246.268 87.8674 246.577C88.6147 246.887 89.2937 247.341 89.8657 247.913C90.4376 248.485 90.8913 249.165 91.2009 249.912C91.5104 250.66 91.6698 251.461 91.6698 252.271L91.6699 254.595Z" fill="#2F2E41"/>
<path id="Vector_10" d="M68.7284 149.705L69.2981 189.611L69.8683 242.059L82.4028 240.919L88.6705 168.519L96.6473 240.919H109.588L110.891 167.949L106.333 151.986L68.7284 149.705Z" fill="#2F2E41"/>
<path id="Vector_11" d="M93.2624 155.064C79.6236 155.065 67.0693 148.889 66.8998 148.804L66.759 148.734L65.6145 121.251C65.2826 120.28 58.7471 101.116 57.6402 95.0251C56.5188 88.8539 72.7723 83.4379 74.746 82.8045L75.1939 77.8401L93.408 75.8763L95.7165 82.2286L102.251 84.6801C102.992 84.9583 103.605 85.4987 103.974 86.1989C104.343 86.8991 104.443 87.7105 104.254 88.4793L100.622 103.257L109.492 152.147L107.583 152.229C103.005 154.298 98.0653 155.064 93.2624 155.064Z" fill="#3F3D56"/>
<path id="Vector_12" d="M91.3042 71.1241C97.6594 67.6481 99.995 59.6754 96.5209 53.3167C93.0469 46.958 85.0787 44.6211 78.7235 48.0971C72.3683 51.5731 70.0327 59.5457 73.5068 65.9045C76.9809 72.2632 84.949 74.6001 91.3042 71.1241Z" fill="#A0616A"/>
<path id="Vector_13" d="M74.3923 72.3133C76.8915 74.977 81.533 73.547 81.8586 69.908C81.8842 69.6255 81.8823 69.3412 81.8531 69.059C81.685 67.447 80.7543 65.9836 80.9772 64.2816C81.0276 63.858 81.1853 63.4544 81.4354 63.1088C83.427 60.4404 88.1021 64.3023 89.9817 61.8867C91.1342 60.4055 89.7794 58.0734 90.6639 56.4179C91.8312 54.233 95.2887 55.3108 97.4569 54.1142C99.8693 52.7828 99.725 49.0794 98.137 46.8268C96.2003 44.0797 92.8048 42.6139 89.4515 42.4026C86.0983 42.1913 82.7681 43.0983 79.6375 44.319C76.0806 45.706 72.5534 47.6227 70.3645 50.7521C67.7025 54.5578 67.4464 59.6742 68.7776 64.1242C69.5875 66.8312 72.3514 70.138 74.3923 72.3133Z" fill="#2F2E41"/>
<path id="Vector_14" d="M166.639 254.933H0.436227C0.320532 254.933 0.209569 254.887 0.127761 254.805C0.0459525 254.723 0 254.612 0 254.497C0 254.381 0.0459525 254.27 0.127761 254.188C0.209569 254.106 0.320532 254.06 0.436227 254.06H166.639C166.754 254.06 166.865 254.106 166.947 254.188C167.029 254.27 167.075 254.381 167.075 254.497C167.075 254.612 167.029 254.723 166.947 254.805C166.865 254.887 166.754 254.933 166.639 254.933Z" fill="#CACACA"/>
<path id="Vector_15" d="M147.012 59.5571C146.627 59.5575 146.256 59.4116 145.974 59.1487L138.925 52.5985C138.629 52.3226 138.454 51.9404 138.44 51.5358C138.425 51.1312 138.571 50.7373 138.847 50.4406C139.122 50.1439 139.504 49.9688 139.908 49.9536C140.313 49.9385 140.707 50.0846 141.003 50.3598L146.973 55.9082L158.785 44.0903C158.927 43.9475 159.095 43.8342 159.28 43.7567C159.466 43.6792 159.665 43.6391 159.866 43.6387C160.067 43.6384 160.266 43.6777 160.452 43.7545C160.637 43.8313 160.806 43.9441 160.948 44.0863C161.09 44.2285 161.203 44.3974 161.28 44.5833C161.357 44.7692 161.396 44.9684 161.395 45.1695C161.395 45.3706 161.355 45.5697 161.277 45.7552C161.2 45.9408 161.087 46.1092 160.944 46.2509L148.092 59.1097C147.951 59.2517 147.782 59.3643 147.597 59.4411C147.412 59.5179 147.213 59.5573 147.012 59.5571Z" fill="white"/>
</g>
<defs>
<clipPath id="clip0_262_2743">
<rect width="297" height="255" fill="white"/>
</clipPath>
</defs>
</svg>
