<svg width="245" height="195" viewBox="0 0 245 195" fill="none" xmlns="http://www.w3.org/2000/svg">
<g id="Warning icon">
<path id="Vector" d="M206.785 187.401C207.745 187.462 208.275 186.25 207.549 185.543L207.476 185.251C207.486 185.228 207.495 185.205 207.505 185.182C208.077 183.793 209.655 183.136 211.024 183.711C215.353 185.529 210.782 189.709 211.126 192.537C211.246 193.513 215.009 193.567 214.796 194.524C216.797 190.079 217.849 185.226 217.848 180.345C217.847 179.119 217.781 177.892 217.645 176.669C217.534 175.669 217.38 174.674 217.182 173.689C216.108 168.363 213.786 163.291 210.437 159.055C208.828 158.162 209.81 156.765 208.998 155.09C208.707 154.486 206.108 154.473 206 153.811C206.116 153.826 207.796 152.053 207.241 151.177C206.876 150.6 206.99 149.866 207.459 149.373C207.505 149.324 207.548 149.273 207.588 149.219C208.974 147.308 210.883 147.641 211.881 150.236C214.012 151.327 214.033 153.139 212.726 154.881C211.895 155.99 211.782 157.49 211.053 158.677C211.128 158.774 211.206 158.869 211.281 158.967C212.658 160.76 213.849 162.687 214.853 164.712C214.569 162.461 214.986 159.749 215.7 158.001C216.517 155.995 218.056 154.307 219.404 152.571C221.013 150.499 224.289 151.439 224.573 154.063C224.576 154.089 224.579 154.114 224.581 154.139C224.382 154.253 224.187 154.375 223.996 154.503C222.909 155.234 223.286 156.947 224.574 157.148L224.603 157.153C224.532 157.882 221.985 160.179 221.806 160.89C223.528 167.647 222.239 168.54 216.941 168.653L216.663 169.055C217.165 170.522 217.569 172.024 217.872 173.545C218.158 174.958 218.357 176.385 218.468 177.819C218.607 179.628 218.596 181.446 218.446 183.252L218.455 183.188C218.836 181.199 219.898 179.341 221.44 178.053C223.738 176.133 226.986 175.425 229.465 173.882C230.659 173.139 232.189 174.098 231.981 175.505L231.971 175.572C231.602 175.725 231.241 175.902 230.893 176.1C230.694 176.215 230.498 176.336 230.307 176.465C229.22 177.196 229.597 178.909 230.886 179.109L230.915 179.114C230.936 179.117 230.954 179.12 230.975 179.123C230.342 180.652 224.312 182.808 223.208 184.031C222.134 189.934 222.662 189.758 217.718 188.041H217.715C217.176 190.433 216.387 192.77 215.373 194.997L206.997 195C206.967 194.905 206.94 194.808 206.913 194.713C207.688 194.762 208.468 194.716 209.231 194.572C208.609 193.798 207.987 193.017 207.366 192.242C207.35 192.227 207.338 192.212 207.326 192.197L207.317 192.185L206.455 189.3C206.523 188.66 206.634 188.026 206.784 187.401L206.785 187.401V187.401V187.401Z" fill="#F5A822"/>
<path id="Vector_2" d="M117.66 194.974L43.3469 195C39.6136 195.001 36.2695 193.056 34.4017 189.796C33.4677 188.166 33.0006 186.378 33 184.589C32.9994 182.801 33.4655 181.012 34.3981 179.381L71.5308 111.21C73.3966 107.949 76.7394 106.001 80.4727 106C84.206 105.999 87.5502 107.944 89.4181 111.204L126.602 179.358C127.534 180.983 128 182.769 128 184.557C128 186.344 127.534 188.133 126.601 189.764C124.736 193.025 121.393 194.973 117.66 194.974H117.66H117.66ZM33.9341 184.588C33.934 186.216 42.1342 182.708 42.9837 184.19C44.6829 187.156 39.9501 194.061 43.3466 194.06C43.3466 194.06 124.097 192.261 125.794 189.294C126.642 187.811 127.066 186.183 127.066 184.556C127.065 182.929 126.64 181.302 125.79 179.819L88.6061 111.666C86.9117 108.709 83.8695 106.939 80.473 106.94C77.0781 106.941 33.9342 182.959 33.9341 184.588H33.9341V184.588Z" fill="#F5A822"/>
<path id="Vector_3" d="M119.015 193.542C118.082 195.52 161.757 194.912 162.273 194.912C162.273 194.912 174.549 194.625 174.807 194.151C174.936 193.914 175 193.654 175 193.394C175 193.134 174.935 192.875 174.806 192.638L169.153 181.755C168.896 181.282 168.433 181 167.917 181C167.895 181 167.864 181.02 167.823 181.059C160.282 188.197 150.989 192.916 140.877 193.076C130.124 193.245 119.074 193.417 119.015 193.542H119.015V193.542Z" fill="#F5A822"/>
<g id="Group">
<path id="Vector_4" d="M188.714 192.184L184.487 192.185L182.471 175.885L188.709 175.883L188.714 192.184Z" fill="#A0616A"/>
<path id="Vector_5" d="M174.234 192.093C174.103 192.315 174.034 193.03 174.034 193.288C174.034 194.08 174.676 194.722 175.469 194.722L188.557 194.717C189.097 194.717 189.535 194.279 189.535 193.739L189.535 193.194C189.535 193.194 190.181 191.556 188.848 189.538C188.848 189.538 187.192 191.119 184.715 188.644L183.985 187.322L178.702 191.188L175.773 191.55C175.132 191.629 174.564 191.538 174.234 192.093H174.234V192.093Z" fill="#2F2E41"/>
</g>
<g id="Group_2">
<path id="Vector_6" d="M172.509 178.242L168.506 179.597L161.375 164.801L167.284 162.801L172.509 178.242Z" fill="#A0616A"/>
<path id="Vector_7" d="M158.763 182.794C158.709 183.046 158.873 183.746 158.956 183.99C159.21 184.74 160.024 185.142 160.774 184.889L173.171 180.692C173.683 180.519 173.958 179.964 173.784 179.452L173.61 178.936C173.61 178.936 173.698 177.177 171.788 175.692C171.788 175.692 170.726 177.721 167.587 176.169L166.472 175.151L162.705 180.506L160.046 181.786C159.465 182.066 158.897 182.162 158.763 182.794L158.763 182.794V182.794Z" fill="#2F2E41"/>
</g>
<path id="Vector_8" d="M165.66 83.0613L157.561 110.192L148 134.596L163.137 169.447L168.749 166.922L162.033 134.907L176.117 113.182L182.689 181L188.302 180.683L195.915 98.8228L197 81L165.66 83.0613Z" fill="#2F2E41"/>
<path id="Vector_9" d="M190.631 23L178.884 25.241L177.958 30.6735L170.849 34.191L167.152 74.1351C167.152 74.1351 160.972 82.4454 165.919 85L197.452 81.7933C197.452 81.7933 198.996 75.885 197.45 75.3245C195.904 74.7639 195.899 60.6512 195.899 60.6512L203 31.6232L192.487 27.7925L190.631 23Z" fill="#6ADDDD"/>
<path id="Vector_10" d="M184 23C189.523 23 194 18.7467 194 13.5C194 8.25329 189.523 4 184 4C178.477 4 174 8.25329 174 13.5C174 18.7467 178.477 23 184 23Z" fill="#A0616A"/>
<path id="Vector_11" d="M189.472 14.9863C188.739 15.4037 189.435 17.3965 188.977 17.5688C188.447 17.7679 186.517 15.482 186.493 12.9216C186.486 12.1467 186.657 11.7746 186.492 10.8558C186.277 9.65402 185.615 8.23651 185.002 8.27414C184.639 8.29645 184.284 8.83061 184.258 9.3073C184.221 9.9754 184.844 10.2384 184.755 10.5982C184.583 11.2837 181.964 11.757 181.031 10.5996C180.3 9.69221 180.861 8.0991 180.534 8.01752C180.293 7.95739 180.034 8.83451 179.045 9.82563C178.673 10.199 178.118 10.7544 177.804 10.6007C177.351 10.3787 177.68 8.81401 177.556 8.79327C177.452 8.77609 177.387 9.87589 176.812 10.8593C176.072 12.1228 174.546 13.0966 173.833 12.668C173.397 12.4053 173.363 11.6741 173.337 11.1188C173.281 9.94885 171.647 7.25773 172.07 6.00617C172.93 3.45885 174.405 5.25447 175.072 4.40437C175.975 3.25353 176.785 3.87228 178.298 2.59564C179.777 1.34849 179.789 0.0950015 180.779 0.012511C181.671 -0.0617748 181.988 0.927614 183.014 0.786376C183.882 0.666729 184.072 -0.100646 184.751 0.0110774C185.373 0.113361 185.414 0.789377 186.241 1.04344C186.768 1.20563 186.884 0.970869 187.482 1.04299C188.725 1.19305 189.56 2.37089 189.716 2.59153C190.319 3.44209 190.085 3.80077 190.71 4.65695C191.248 5.39529 192.442 5.08176 192.891 5.45052C194.357 6.65547 194.987 8.87763 195 11.4104C195.009 13.1818 194.787 14.0768 194.291 16.3128C193.915 18.0106 192.172 20.2047 191.212 21.1831C190.954 21.4457 190.231 22.1819 189.723 21.9583C189.241 21.7464 189.226 20.7932 189.226 20.6673C189.224 20.2345 189.334 19.699 190.218 18.343C191.146 16.9186 191.515 16.7561 191.458 16.2767C191.359 15.4294 190.056 14.6537 189.472 14.9863H189.472V14.9863Z" fill="#2F2E41"/>
<g id="Group_3">
<path id="Vector_12" d="M156.294 105.487C155.993 108.012 157.05 110.214 158.657 110.405C160.263 110.597 161.81 108.706 162.111 106.182C162.243 105.077 162.115 104.034 161.794 103.194L162.937 92.4811L157.898 92.0518L157.306 102.658C156.797 103.399 156.426 104.382 156.294 105.487H156.294H156.294Z" fill="#A0616A"/>
<path id="Vector_13" d="M170.777 34.3421C170.777 34.3421 168.167 34.3792 166.438 37.7549C165.52 39.5486 160.606 73.0922 160.606 73.0922L156.08 100.571L163.79 100.61L169.799 74.5868L174.853 59.494L170.777 34.3421L170.777 34.3421Z" fill="#6ADDDD"/>
</g>
<path id="Vector_14" d="M193.266 101.745C192.618 104.14 193.194 106.457 194.552 106.919C195.91 107.382 197.537 105.815 198.184 103.42C198.468 102.372 198.517 101.339 198.369 100.47L201 90.2837L196.714 89L194.575 99.1776C194.021 99.8077 193.55 100.697 193.266 101.745V101.745V101.745Z" fill="#A0616A"/>
<path id="Vector_15" d="M197.741 32.8915C197.741 32.8915 201.488 30.0757 204.613 34.4528C207.738 38.8299 209 74.7932 209 74.7932L200.262 97L193.702 94.8132L199.939 67.6036L189 46.9673L197.741 32.8915H197.741V32.8915Z" fill="#6ADDDD"/>
<g id="Group_4">
<path id="Vector_16" d="M102.086 179.627C120.924 179.627 136.195 164.356 136.195 145.518C136.195 126.68 120.924 111.408 102.086 111.408C83.2474 111.408 67.9761 126.68 67.9761 145.518C67.9761 164.356 83.2474 179.627 102.086 179.627Z" fill="#6ADDDD"/>
<g id="Group_5">
<path id="Vector_17" d="M102.092 166.427C103.821 166.427 105.224 165.025 105.224 163.295C105.224 161.566 103.821 160.164 102.092 160.164C100.362 160.164 98.96 161.566 98.96 163.295C98.96 165.025 100.362 166.427 102.092 166.427Z" fill="#1C1A32"/>
<path id="Vector_18" d="M102.078 124.608C101.791 126.52 102.306 126.92 102.309 135.161C102.312 143.402 104.022 154.452 102.089 154.453C100.156 154.453 99.4485 131.649 92.7358 129.631C84.8434 127.258 103.01 118.42 102.078 124.608V124.608Z" fill="#1C1A32"/>
</g>
</g>
<path id="Vector_19" d="M56.0084 162.599L52.955 169C56.6463 166.374 62.4119 164.11 67 162.897C62.725 160.849 57.4941 157.545 54.3689 154.275L56.1251 161.038C35.5356 156.877 20.75 141.206 20.7437 123.254L20 123C20.0065 141.751 34.5876 158.351 56.0084 162.599V162.599Z" fill="#F5A822"/>
</g>
</svg>
